<svg width="32" height="33" viewBox="0 0 32 33" fill="none" xmlns="http://www.w3.org/2000/svg">
<g clip-path="url(#clip0_195_1139)">
<path d="M16.2893 5.83404C19.8619 5.84838 22.8703 8.45046 23.404 11.9696C23.5885 13.1866 23.3418 14.3325 22.9152 15.4601C22.2714 17.1606 21.4413 18.7727 20.5277 20.3402C19.2423 22.5454 17.9189 24.7293 16.6104 26.9208C16.4236 27.2333 16.1256 27.2528 15.9492 26.9558C14.2771 24.138 12.4936 21.3845 10.9898 18.4699C10.3978 17.3229 9.85538 16.1557 9.43633 14.9318C8.70659 12.8006 9.08817 10.8289 10.3021 8.9953C11.6267 6.99371 13.888 5.82429 16.2893 5.83404ZM16.2611 26.1287C16.3043 26.0679 16.3308 26.0352 16.3522 25.9997C17.49 24.0985 18.6428 22.2058 19.7593 20.292C20.6879 18.7005 21.5457 17.0699 22.2183 15.3505C22.6581 14.2264 22.9002 13.0903 22.687 11.8664C22.1878 8.99473 19.6423 6.69834 16.717 6.53202C13.9191 6.37316 11.4111 7.88324 10.2963 10.4211C9.83578 11.4701 9.62366 12.5672 9.83233 13.7131C10.0122 14.6996 10.3978 15.6195 10.8117 16.5257C11.7789 18.6414 12.9502 20.647 14.1479 22.6383C14.8425 23.7933 15.5434 24.945 16.2599 26.1287H16.2611Z" fill="white"/>
<path d="M16.2666 16.1452C14.4716 16.1303 13.03 14.6868 13.049 12.922C13.068 11.1424 14.5166 9.73325 16.3115 9.74816C18.0817 9.76308 19.4951 11.2084 19.4812 12.9886C19.4674 14.7269 18.0085 16.1602 16.2671 16.1452H16.2666ZM16.2631 10.4358C14.8613 10.4433 13.7344 11.568 13.7401 12.9536C13.7459 14.33 14.8826 15.4582 16.2602 15.457C17.6713 15.4553 18.7936 14.3323 18.7895 12.9255C18.7855 11.5513 17.6465 10.4289 16.2631 10.4364V10.4358Z" fill="white"/>
</g>
<defs>
<clipPath id="clip0_195_1139">
<rect width="14.4" height="21.3333" fill="white" transform="translate(9.06641 5.83398)"/>
</clipPath>
</defs>
</svg>
