<svg width="17" height="17" viewBox="0 0 17 17" fill="none" xmlns="http://www.w3.org/2000/svg">
<path d="M16.1432 1.41078V13.0177C16.1432 13.1361 16.0961 13.2497 16.0124 13.3334C15.9287 13.4171 15.8151 13.4642 15.6967 13.4642C15.5783 13.4642 15.4648 13.4171 15.3811 13.3334C15.2974 13.2497 15.2503 13.1361 15.2503 13.0177V2.48888L1.72688 16.0121C1.64311 16.0959 1.5295 16.1429 1.41103 16.1429C1.29257 16.1429 1.17895 16.0959 1.09518 16.0121C1.01142 15.9283 0.964355 15.8147 0.964355 15.6963C0.964355 15.5778 1.01142 15.4642 1.09518 15.3804L14.6186 1.8572H4.0896C3.9712 1.8572 3.85765 1.81016 3.77393 1.72644C3.69021 1.64272 3.64318 1.52917 3.64318 1.41078C3.64318 1.29238 3.69021 1.17883 3.77393 1.09511C3.85765 1.01139 3.9712 0.964355 4.0896 0.964355H15.6967C15.8151 0.964355 15.9287 1.01139 16.0124 1.09511C16.0961 1.17883 16.1432 1.29238 16.1432 1.41078Z" fill="white"/>
</svg>
