<svg width="24" height="20" viewBox="0 0 24 20" fill="none" xmlns="http://www.w3.org/2000/svg">
<path d="M23.6675 10.3328L14.4752 19.525C14.3815 19.6188 14.2543 19.6714 14.1217 19.6714C13.9891 19.6714 13.8619 19.6188 13.7681 19.525C13.6744 19.4312 13.6217 19.304 13.6217 19.1714C13.6217 19.0388 13.6744 18.9116 13.7681 18.8179L22.1065 10.4795L0.686684 10.4793C0.554003 10.4793 0.426755 10.4266 0.332935 10.3328C0.239115 10.2389 0.186407 10.1117 0.186406 9.97901C0.186405 9.84633 0.239112 9.71908 0.33293 9.62526C0.426748 9.53144 0.553995 9.47874 0.686676 9.47874L22.1065 9.47891L13.768 1.14036C13.6742 1.04659 13.6215 0.919412 13.6215 0.786805C13.6215 0.654198 13.6742 0.527022 13.768 0.433255C13.8617 0.339489 13.9889 0.286812 14.1215 0.286813C14.2541 0.286814 14.3813 0.339493 14.4751 0.433261L23.6675 9.62565C23.7612 9.71942 23.8139 9.84659 23.8139 9.9792C23.8139 10.1118 23.7612 10.239 23.6675 10.3328Z" fill="#3481EB"/>
</svg>
