<svg width="17" height="17" viewBox="0 0 17 17" fill="none" xmlns="http://www.w3.org/2000/svg">
<path d="M16.9998 0.499989L16.9998 13.4998C16.9998 13.6324 16.9471 13.7596 16.8533 13.8533C16.7596 13.9471 16.6324 13.9998 16.4998 13.9998C16.3672 13.9998 16.24 13.9471 16.1462 13.8533C16.0525 13.7596 15.9998 13.6324 15.9998 13.4998L15.9998 1.70747L0.853543 16.8535C0.759723 16.9473 0.632475 17 0.499793 17C0.367111 17 0.239863 16.9473 0.146043 16.8535C0.0522226 16.7597 -0.000485371 16.6324 -0.000485396 16.4997C-0.000485422 16.3671 0.052222 16.2398 0.146042 16.146L15.2923 0.999981L3.49979 0.999983C3.36718 0.999983 3.24 0.947306 3.14624 0.853539C3.05247 0.759773 2.99979 0.632597 2.99979 0.499991C2.99979 0.367385 3.05247 0.24021 3.14624 0.146444C3.24 0.0526771 3.36718 -5.88822e-07 3.49979 -6.12008e-07L16.4998 -2.885e-06C16.6324 -2.90819e-06 16.7596 0.0526747 16.8533 0.146441C16.9471 0.240208 16.9998 0.367383 16.9998 0.499989Z" fill="#3481EB"/>
</svg>
