<svg width="24" height="20" viewBox="0 0 24 20" fill="none" xmlns="http://www.w3.org/2000/svg">
<path d="M0.332536 9.62544L9.52477 0.433203C9.61854 0.339436 9.74571 0.286758 9.87832 0.28676C10.0109 0.286762 10.1381 0.339441 10.2319 0.433209C10.3256 0.526977 10.3783 0.654153 10.3783 0.786761C10.3783 0.919368 10.3256 1.04654 10.2319 1.14031L1.89346 9.47873L23.3133 9.47891C23.446 9.47891 23.5732 9.53161 23.6671 9.62543C23.7609 9.71926 23.8136 9.8465 23.8136 9.97918C23.8136 10.1119 23.7609 10.2391 23.6671 10.3329C23.5733 10.4267 23.446 10.4795 23.3133 10.4795L1.89347 10.4793L10.232 18.8178C10.3258 18.9116 10.3785 19.0388 10.3785 19.1714C10.3785 19.304 10.3258 19.4312 10.232 19.5249C10.1383 19.6187 10.0111 19.6714 9.87848 19.6714C9.74587 19.6714 9.6187 19.6187 9.52493 19.5249L0.332541 10.3325C0.238773 10.2388 0.186095 10.1116 0.186093 9.97899C0.186091 9.84638 0.238769 9.71921 0.332536 9.62544Z" fill="#3481EB"/>
</svg>
