<svg width="40" height="28" viewBox="0 0 40 28" fill="none" xmlns="http://www.w3.org/2000/svg">
<path d="M0 0C13.2 0 26.4 0 40 0C40 9.24 40 18.48 40 28C26.8 28 13.6 28 0 28C0 18.76 0 9.52 0 0Z" fill="#EFEFEF"/>
<path d="M0 19C13.2 19 26.4 19 40 19C40 21.9391 40 24.8781 40 27.9062C26.8 27.9062 13.6 27.9062 0 27.9062C0 24.9672 0 22.0281 0 19Z" fill="#D80027"/>
<path d="M0 0C13.2 0 26.4 0 40 0C40 2.93906 40 5.87813 40 8.90625C26.8 8.90625 13.6 8.90625 0 8.90625C0 5.96719 0 3.02812 0 0Z" fill="#D80027"/>
</svg>
