<svg width="60" height="60" viewBox="0 0 60 60" fill="none" xmlns="http://www.w3.org/2000/svg">
<path d="M25.2544 7.23037C25.5176 7.4285 25.7677 7.63483 26.0157 7.85156C26.0864 7.91123 26.1571 7.9709 26.2299 8.03237C27.5321 9.22019 28.3014 10.9612 28.4112 12.7052C28.4543 13.9799 28.3377 15.0884 27.8907 16.2891C27.8134 16.5211 27.736 16.7531 27.6563 16.9922C32.7223 22.0582 37.7884 27.1242 43.0079 32.3437C43.6855 32.1212 43.6855 32.1212 44.3569 31.8809C46.0933 31.2917 48.1491 31.4926 49.8048 32.2266C51.7704 33.2331 53.0531 34.8253 53.7859 36.8825C54.3426 38.7597 54.1251 40.8933 53.2398 42.6343C52.1893 44.3833 50.6669 45.7205 48.6809 46.2932C47.953 46.4602 47.2697 46.5682 46.5235 46.5234C46.5218 46.6215 46.5202 46.7195 46.5185 46.8205C46.451 48.4676 45.9841 49.8768 45.0001 51.2109C44.9475 51.285 44.8949 51.359 44.8408 51.4352C44.031 52.4784 42.83 53.2263 41.6016 53.6719C41.4991 53.7092 41.3965 53.7465 41.2908 53.7849C39.2509 54.4058 37.0686 54.0787 35.2103 53.1024C33.456 52.0688 32.2883 50.3364 31.7286 48.4058C31.3869 46.8122 31.5126 45.2571 32.1209 43.7466C32.1558 43.6575 32.1907 43.5684 32.2266 43.4766C32.2765 43.372 32.2765 43.372 32.3274 43.2652C32.3737 42.98 32.3737 42.98 32.1185 42.7104C32.0055 42.595 31.8909 42.4812 31.7751 42.3686C31.7125 42.3055 31.6499 42.2425 31.5854 42.1774C31.3743 41.9653 31.1611 41.7554 30.9479 41.5454C30.7965 41.3942 30.6453 41.2429 30.4942 41.0914C30.0827 40.6797 29.6694 40.2699 29.2558 39.8604C28.8242 39.4324 28.3942 39.0028 27.9641 38.5733C27.1488 37.7599 26.3322 36.9481 25.5149 36.1367C24.5848 35.2131 23.6563 34.2879 22.728 33.3625C20.8179 31.4586 18.9058 29.5567 16.9923 27.6562C16.6513 27.7684 16.3144 27.8803 15.982 28.016C14.0876 28.7254 11.9267 28.5249 10.0938 27.7483C8.35638 26.8993 7.04644 25.3392 6.32911 23.5684C5.664 21.5112 5.78426 19.3135 6.76032 17.3804C7.84948 15.5307 9.3436 14.3078 11.4098 13.7151C12.1126 13.5392 12.753 13.434 13.4766 13.4766C13.4694 13.334 13.4621 13.1914 13.4547 13.0444C13.4667 11.1225 14.3656 9.31878 15.7032 7.96874C18.3883 5.61421 22.2479 5.19008 25.2544 7.23037ZM16.9923 9.84374C16.9359 9.89828 16.8796 9.95281 16.8215 10.009C16.0865 10.7663 15.5895 11.9697 15.5849 13.031C15.5935 13.4447 15.604 13.8581 15.6215 14.2715C15.6305 14.719 15.6355 15.0255 15.4203 15.4239C14.9515 15.6746 14.5178 15.6198 13.9967 15.5933C12.3971 15.5539 10.8992 15.8989 9.68635 17.0174C8.49805 18.2981 8.02132 19.708 8.05396 21.4242C8.12005 22.8644 8.85403 24.0274 9.88044 24.9976C11.1539 26.0714 12.5544 26.3595 14.1754 26.2734C15.0364 26.189 15.7783 25.7757 16.4809 25.2956C16.8984 25.1444 17.2767 25.1937 17.6954 25.3125C17.9882 25.4938 18.2141 25.7231 18.4524 25.9701C18.5225 26.0394 18.5926 26.1087 18.6649 26.1802C18.8985 26.4122 19.1291 26.647 19.3598 26.8819C19.527 27.0491 19.6943 27.2162 19.8619 27.383C20.3157 27.8362 20.767 28.2918 21.2178 28.7479C21.6897 29.2245 22.1639 29.6988 22.6379 30.1735C23.4331 30.9704 24.2268 31.7688 25.0195 32.5683C26.1386 33.697 27.2603 34.8229 28.3826 35.9484C29.2529 36.8214 30.1225 37.695 30.992 38.5689C31.0855 38.6628 31.179 38.7568 31.2753 38.8536C31.8118 39.3927 32.3479 39.9323 32.8835 40.4723C33.046 40.6362 33.2087 40.7999 33.3714 40.9635C33.5928 41.1862 33.8138 41.4091 34.0347 41.6322C34.0998 41.6975 34.165 41.7629 34.2321 41.8302C34.7875 42.3926 34.7875 42.3926 34.8409 42.8458C34.7931 43.3698 34.5916 43.7369 34.3433 44.1943C34.2564 44.358 34.1699 44.5219 34.0838 44.686C34.0451 44.7576 34.0065 44.8292 33.9666 44.903C33.527 45.8507 33.6052 47.3027 33.9405 48.2739C34.0278 48.4742 34.1205 48.6721 34.2188 48.8672C34.2913 49.0165 34.2913 49.0165 34.3653 49.1688C35.0391 50.4189 36.0602 51.2027 37.3829 51.6797C37.4608 51.7084 37.5388 51.7371 37.6191 51.7667C38.8694 52.1502 40.1844 51.9433 41.3673 51.4453C41.9994 51.104 42.5264 50.6912 43.0079 50.1562C43.1046 50.0523 43.2012 49.9484 43.3009 49.8413C44.3143 48.5945 44.4591 47.2506 44.3844 45.7056C44.373 45.2643 44.3664 44.9708 44.5794 44.5779C45.0482 44.3248 45.4813 44.3801 46.0035 44.4067C47.6031 44.4461 49.1009 44.1011 50.3138 42.9826C51.4677 41.739 51.9801 40.3524 51.9462 38.6746C51.8868 37.444 51.4006 36.4441 50.6251 35.5078C50.5665 35.4333 50.5078 35.3589 50.4475 35.2821C49.7867 34.5296 48.6767 33.9555 47.6954 33.75C46.0442 33.6502 44.8581 33.8567 43.4162 34.7044C42.9852 34.8528 42.743 34.8163 42.3048 34.6875C41.9791 34.4432 41.7089 34.1583 41.4332 33.8599C41.3586 33.7821 41.2841 33.7044 41.2073 33.6243C41.0245 33.4333 40.8436 33.2409 40.6641 33.0469C40.2587 33.2188 40.0201 33.4412 39.7253 33.7656C39.5919 33.9072 39.5919 33.9072 39.4559 34.0517C39.2708 34.2503 39.0873 34.4505 38.9056 34.6522C38.1398 35.4561 38.1398 35.4561 37.5239 35.4813C37.0779 35.4329 36.8154 35.305 36.4967 34.9805C36.4192 34.9043 36.3417 34.8282 36.2618 34.7497C36.2064 34.6905 36.1509 34.6313 36.0938 34.5703C35.5698 35.0179 35.05 35.4694 34.5351 35.9276C34.2681 36.1504 34.1211 36.2083 33.772 36.2549C33.3985 36.2109 33.3985 36.2109 33.0616 35.9619C32.8126 35.625 32.8126 35.625 32.7247 35.2954C32.8599 34.7208 33.2243 34.3954 33.6329 33.9844C33.7111 33.9045 33.7894 33.8245 33.87 33.7422C34.0627 33.5476 34.2569 33.355 34.4532 33.1641C34.2673 32.7067 33.9688 32.4216 33.6182 32.0801C33.5116 31.9755 33.4049 31.871 33.2951 31.7633C33.2132 31.6841 33.1313 31.605 33.0469 31.5234C32.5315 31.9547 32.0464 32.397 31.5798 32.8807C31.2385 33.2076 30.9203 33.1975 30.4578 33.1883C30.2344 33.1641 30.2344 33.1641 30.0074 33.0395C29.8104 32.6803 29.7726 32.4015 29.7657 31.9922C30.1174 31.2386 30.8159 30.6873 31.4063 30.1172C31.2263 29.6858 30.9632 29.4155 30.63 29.0918C30.5342 28.9981 30.4384 28.9045 30.3397 28.808C30.2663 28.7373 30.1929 28.6666 30.1173 28.5937C29.6674 28.7757 29.4106 29.0607 29.0845 29.4141C28.616 29.8909 28.3294 30.1816 27.6563 30.2344C27.2796 30.1339 27.1114 30.041 26.836 29.7656C26.7515 29.4021 26.7592 29.0754 26.836 28.7109C27.0618 28.3607 27.3459 28.1001 27.6563 27.8247C27.7346 27.7512 27.8128 27.6777 27.8934 27.602C28.0857 27.4221 28.2799 27.2452 28.4766 27.0703C27.9466 26.4411 27.9466 26.4411 27.378 25.8472C27.2257 25.6985 27.2257 25.6985 27.0704 25.5469C26.5968 25.7343 26.2877 26.0726 25.9425 26.4331C25.2303 27.1706 25.2303 27.1706 24.7486 27.2241C24.272 27.1774 24.0993 27.0837 23.7891 26.7187C23.6903 26.2245 23.6692 25.9659 23.9452 25.5409C24.1563 25.2955 24.3773 25.0692 24.6094 24.8437C24.6877 24.7641 24.7659 24.6845 24.8466 24.6025C25.039 24.4073 25.2333 24.2145 25.4298 24.0234C25.3577 23.9428 25.3577 23.9428 25.2842 23.8605C25.221 23.7886 25.1579 23.7167 25.0928 23.6426C25.0303 23.5719 24.9678 23.5012 24.9033 23.4283C24.5982 23.0395 24.486 22.854 24.5127 22.3451C24.625 21.8448 24.7679 21.6731 25.1336 21.3213C25.239 21.2182 25.3443 21.1151 25.4529 21.0088C25.5637 20.9039 25.6745 20.799 25.7886 20.6909C25.9012 20.5819 26.0136 20.4727 26.1258 20.3634C26.4001 20.0974 26.6759 19.8331 26.9532 19.5703C26.804 19.2423 26.6514 19.0064 26.3924 18.7564C26.3303 18.6955 26.2681 18.6346 26.2041 18.5719C26.1395 18.5098 26.0749 18.4478 26.0084 18.3838C25.2134 17.6137 25.2134 17.6137 25.1592 17.1538C25.2069 16.6315 25.4082 16.2681 25.6568 15.813C26.3484 14.5266 26.4955 13.0997 26.0743 11.6821C25.5505 10.3248 24.5748 9.20145 23.2618 8.57665C21.0314 7.64784 18.6527 8.00375 16.9923 9.84374ZM28.1576 21.2842C28.0268 21.4157 27.8964 21.5476 27.7662 21.6797C27.6996 21.7468 27.6331 21.8138 27.5645 21.8829C27.3996 22.0493 27.2349 22.216 27.0704 22.3828C27.2354 22.7566 27.4314 23.0072 27.72 23.295C27.8061 23.3814 27.8922 23.4678 27.9809 23.5569C28.1227 23.6974 28.1227 23.6974 28.2673 23.8407C28.4165 23.9899 28.4165 23.9899 28.5687 24.1422C28.8411 24.4145 29.1141 24.6863 29.3873 24.9578C29.6728 25.2419 29.9577 25.5266 30.2426 25.8113C30.7821 26.35 31.3222 26.8882 31.8625 27.4261C32.4776 28.0387 33.0921 28.6519 33.7065 29.2651C34.9703 30.5265 36.2349 31.7869 37.5001 33.0469C37.632 32.9344 37.7638 32.8218 37.8956 32.7092C37.969 32.6465 38.0425 32.5839 38.1181 32.5193C38.3286 32.3367 38.5286 32.1476 38.7232 31.9482C38.8223 31.8467 38.9214 31.7452 39.0235 31.6406C38.8586 31.2672 38.6628 31.0163 38.3747 30.7284C38.2887 30.642 38.2028 30.5556 38.1143 30.4665C38.02 30.3729 37.9256 30.2792 37.8285 30.1828C37.7292 30.0832 37.6299 29.9837 37.5276 29.8812C37.2557 29.6089 36.9832 29.3371 36.7105 29.0656C36.4254 28.7815 36.1408 28.4968 35.8562 28.2121C35.3786 27.7346 34.9004 27.2574 34.422 26.7806C33.8681 26.2286 33.3149 25.676 32.7621 25.1231C32.2306 24.5915 31.6988 24.0604 31.1669 23.5294C30.9402 23.3031 30.7137 23.0768 30.4872 22.8504C30.1716 22.5349 29.8555 22.2199 29.5393 21.905C29.4448 21.8104 29.3502 21.7158 29.2528 21.6184C29.1672 21.5332 29.0816 21.4481 28.9934 21.3605C28.9186 21.2859 28.8438 21.2113 28.7668 21.1345C28.4623 20.8565 28.4886 20.9651 28.1576 21.2842Z" fill="#292929"/>
</svg>
