<svg width="40" height="40" viewBox="0 0 40 40" fill="none" xmlns="http://www.w3.org/2000/svg">
<g clip-path="url(#clip0_195_1165)">
<path d="M18.943 37.9788C18.1887 37.8748 17.4343 37.7969 16.6887 37.6583C14.7118 37.3032 12.8476 36.6276 11.1135 35.6142C10.8361 35.4496 10.5933 35.4323 10.2898 35.5276C8.13953 36.2032 5.98057 36.8614 3.82161 37.5284C3.78693 37.537 3.75225 37.5457 3.71756 37.5544C3.42277 37.667 3.13664 37.6583 2.90253 37.4244C2.66843 37.1906 2.66843 36.9134 2.74647 36.6103C3.37074 34.3583 3.99502 32.1063 4.6193 29.8544C4.68866 29.6119 4.67132 29.4213 4.54126 29.1961C3.27537 27.1087 2.46901 24.8481 2.15687 22.4316C1.53259 17.5119 2.6771 13.034 5.69444 9.08438C8.3823 5.58518 11.9112 3.3159 16.2378 2.41511C21.5962 1.30646 26.5124 2.39779 30.8736 5.68912C34.4112 8.35682 36.6395 11.908 37.5846 16.2387C37.7494 17.0009 37.8187 17.7891 37.9314 18.5599C37.9488 18.6812 37.9748 18.8111 37.9921 18.9324V21.0371C37.9661 21.2883 37.9314 21.5395 37.9054 21.7993C37.4719 25.6709 35.9979 29.0835 33.3794 31.9764C30.6048 35.0512 27.1713 36.9654 23.0875 37.6929C22.4112 37.8142 21.7262 37.8835 21.0413 37.9701H18.9343L18.943 37.9788ZM4.38519 35.8914C4.52392 35.8567 4.60196 35.8394 4.67999 35.8134C6.4141 35.2851 8.15687 34.7827 9.87363 34.2024C10.5933 33.9599 11.1482 34.0292 11.8158 34.4103C15.128 36.3158 18.7089 36.9567 22.4806 36.4024C26.0181 35.8827 29.1135 34.3843 31.6106 31.8292C36.2927 27.0481 37.7667 21.3576 35.7985 14.9655C33.6655 8.02769 27.4141 3.50645 20.1482 3.40251C16.0731 3.34188 12.4314 4.63243 9.34473 7.27415C4.96612 11.0332 3.00658 15.8316 3.47479 21.5914C3.66554 23.982 4.37652 26.2339 5.62508 28.278C6.07595 29.0142 6.17132 29.6552 5.91121 30.4693C5.35629 32.2363 4.89675 34.0378 4.38519 35.8914Z" fill="#3481EB"/>
<path d="M24.8747 30.9032C21.5712 30.7906 18.6579 29.6213 16.0655 27.6292C12.892 25.178 10.5683 22.0686 9.051 18.3615C8.03655 15.8844 8.38337 13.4938 9.68395 11.2245C10.0741 10.5403 10.5944 9.92532 11.0712 9.28438C11.1753 9.14579 11.3574 8.98989 11.5134 8.97257C12.1984 8.89461 12.8834 8.84265 13.5683 8.83398C13.9325 8.83398 14.236 9.04186 14.4354 9.36233C15.3285 10.8088 16.1608 12.2812 16.7504 13.8749C17.0192 14.5938 16.8545 15.2694 16.4643 15.8844C16.1695 16.3434 15.8227 16.7765 15.4412 17.1749C15.1811 17.4521 15.1551 17.7119 15.3371 17.9804C15.7707 18.656 16.1695 19.3749 16.6984 19.9639C18.2764 21.7221 20.1666 23.0993 22.2215 24.2512C22.8024 24.5717 22.9065 24.5717 23.3574 24.0607C23.973 23.3591 24.5712 22.6402 25.1435 21.904C25.629 21.2804 26.2186 21.0639 26.9643 21.3497C27.3111 21.4883 27.6319 21.6875 27.9527 21.878C29.1666 22.6229 30.3805 23.3851 31.5944 24.13C32.0886 24.4331 32.1666 24.6237 32.0539 25.204C31.8111 26.4599 31.3949 27.6378 30.5799 28.6512C29.4961 30.0024 28.0221 30.6174 26.3487 30.8079C25.8631 30.8599 25.3689 30.8685 24.8747 30.9032ZM25.5337 29.5C26.0452 29.5 26.999 29.4048 27.9007 29.015C29.5048 28.3221 30.2504 26.9882 30.6059 25.3686C30.6233 25.2906 30.5452 25.1434 30.4759 25.1001C29.236 24.3205 27.9961 23.5497 26.7562 22.7702C26.4788 22.5969 26.3314 22.6489 26.1319 22.9087C25.5337 23.6623 24.9441 24.4158 24.2678 25.1001C23.4094 25.9662 22.8111 26.0701 21.8747 25.6024C19.2129 24.2686 16.8978 22.4843 15.025 20.1631C14.5048 19.5135 14.0972 18.7859 13.8718 17.9717C13.7157 17.4001 13.7418 16.9064 14.2186 16.4647C14.5828 16.1269 14.8863 15.7111 15.1897 15.3127C15.5019 14.9056 15.5972 14.4552 15.3371 13.9702C14.7389 12.8355 14.1319 11.7009 13.5597 10.5489C13.3949 10.2111 13.1608 10.1592 12.8314 10.1678C12.2938 10.1852 11.8603 10.3237 11.5828 10.8348C11.2186 11.5104 10.7591 12.1426 10.447 12.8442C9.70129 14.5245 9.63193 16.2395 10.3689 17.9544C11.8949 21.4969 14.1233 24.5111 17.236 26.815C19.551 28.53 22.1608 29.4741 25.525 29.5174L25.5337 29.5Z" fill="#3481EB"/>
</g>
<defs>
<clipPath id="clip0_195_1165">
<rect width="36" height="36" fill="white" transform="translate(2 2)"/>
</clipPath>
</defs>
</svg>
