<svg width="40" height="40" viewBox="0 0 40 40" fill="none" xmlns="http://www.w3.org/2000/svg">
<path d="M36.6358 5.26058C36.4911 5.13305 36.3149 5.04825 36.1265 5.01535C35.938 4.98244 35.7443 5.00268 35.5662 5.07386L5.16608 17.2117C4.79632 17.3594 4.48348 17.6254 4.27454 17.9699C4.0656 18.3143 3.97185 18.7187 4.00735 19.1222C4.04286 19.5256 4.20571 19.9065 4.47145 20.2075C4.73719 20.5085 5.09147 20.7134 5.48109 20.7914L13.5994 22.4183V31.63C13.5996 32.057 13.7248 32.4743 13.9591 32.8282C14.1933 33.1821 14.5259 33.4565 14.9141 33.6163C15.3023 33.776 15.7284 33.8137 16.1378 33.7245C16.5471 33.6354 16.9211 33.4235 17.2115 33.116L21.2077 28.8874L27.4449 34.4659C27.8257 34.8096 28.3165 34.9996 28.825 35C29.047 34.9995 29.2677 34.9639 29.479 34.8944C29.8255 34.7825 30.1372 34.5799 30.383 34.3069C30.6289 34.0338 30.8002 33.6997 30.88 33.3379L36.9733 6.31199C37.0161 6.12199 37.0073 5.92367 36.9478 5.73839C36.8884 5.55311 36.7805 5.38791 36.6358 5.26058ZM5.8066 18.984C5.80086 18.9682 5.80086 18.9508 5.8066 18.935C5.81336 18.9297 5.82097 18.9255 5.8291 18.9228L29.7865 9.35449L14.2909 20.6797L5.8291 18.9901L5.8066 18.984ZM15.9155 31.8396C15.8741 31.8834 15.821 31.9136 15.7627 31.9265C15.7045 31.9393 15.6438 31.9341 15.5885 31.9116C15.5331 31.8891 15.4856 31.8503 15.4519 31.8002C15.4183 31.75 15.4 31.6908 15.3995 31.63V23.6886L19.8531 27.6677L15.9155 31.8396ZM29.1265 32.9232C29.1154 32.9749 29.0909 33.0227 29.0556 33.0615C29.0202 33.1002 28.9753 33.1286 28.9255 33.1436C28.8747 33.1618 28.82 33.1657 28.7672 33.1549C28.7145 33.1442 28.6655 33.1191 28.6255 33.0824L15.9455 21.7342L34.7502 7.98475L29.1265 32.9232Z" fill="#3481EB"/>
</svg>
