<svg width="32" height="33" viewBox="0 0 32 33" fill="none" xmlns="http://www.w3.org/2000/svg">
<g clip-path="url(#clip0_195_1130)">
<path d="M15.9932 23.4331C13.0302 23.4331 10.0677 23.4331 7.10464 23.4331C5.98651 23.4331 5.33203 22.79 5.33203 21.6901C5.33203 18.2304 5.33203 14.7702 5.33203 11.3106C5.33203 10.2101 5.98651 9.56641 7.10404 9.56641C13.0375 9.56641 18.9709 9.56641 24.9043 9.56641C26.0091 9.56641 26.6654 10.2113 26.6654 11.298C26.6654 14.7654 26.6654 18.2328 26.6654 21.6997C26.6654 22.7846 26.0066 23.4325 24.9049 23.4331C21.9345 23.4331 18.9642 23.4331 15.9938 23.4331H15.9932ZM6.48845 22.7306C6.69203 22.76 6.83179 22.7978 6.97156 22.7978C12.9894 22.8008 19.0073 22.8008 25.0246 22.7978C25.1705 22.7978 25.3157 22.7552 25.5351 22.7204C23.2891 20.5427 21.0972 18.4166 18.8937 16.2803C18.0691 16.9431 17.1916 17.6486 16.3129 18.3529C16.068 18.5493 15.9592 18.5469 15.7137 18.3505C15.2768 18.0011 14.8411 17.6504 14.4041 17.3004C13.9514 16.9377 13.4981 16.5763 13.035 16.2064C10.8595 18.3739 8.70042 20.5258 6.48724 22.7306H6.48845ZM16.0157 17.7795C19.1325 15.2764 22.2408 12.7798 25.3491 10.2833C25.2045 10.2179 25.0738 10.198 24.9426 10.198C22.5641 10.1956 20.1862 10.1956 17.8078 10.1956C14.2139 10.1956 10.6195 10.195 7.02565 10.1968C6.90593 10.1968 6.78561 10.2233 6.60999 10.2437C9.77602 12.7804 12.8892 15.2752 16.0157 17.7801V17.7795ZM6.07705 10.6279C6.03391 10.8549 5.97496 11.02 5.97435 11.1851C5.96888 14.727 5.96949 18.2695 5.97314 21.8113C5.97314 21.9482 6.01446 22.0845 6.04606 22.2761C8.23737 20.0929 10.3849 17.9537 12.5404 15.8066C10.3928 14.0858 8.26471 12.3806 6.07705 10.6279ZM19.4467 15.8378C21.6398 17.9621 23.8074 20.0617 25.972 22.159C25.9835 22.0881 26.0243 21.959 26.0243 21.8294C26.0279 18.2797 26.0285 14.73 26.023 11.1803C26.023 11.0164 25.9623 10.8519 25.9203 10.6388C23.7448 12.386 21.6204 14.0924 19.4473 15.8378H19.4467Z" fill="white"/>
</g>
<defs>
<clipPath id="clip0_195_1130">
<rect width="21.3333" height="13.8667" fill="white" transform="translate(5.33203 9.56641)"/>
</clipPath>
</defs>
</svg>
