<svg width="25" height="60" viewBox="0 0 25 60" fill="none" xmlns="http://www.w3.org/2000/svg">
<path d="M21.398 13.125C21.5059 13.2038 21.5059 13.2038 21.6159 13.2843C22.6594 14.098 23.7039 15.4757 23.9249 16.8017C23.859 17.1094 23.859 17.1094 23.6759 17.395C23.3902 17.5781 23.3902 17.5781 22.9874 17.5745C22.5699 17.4609 22.5699 17.4609 22.3433 17.1574C22.2852 17.028 22.227 16.8985 22.1671 16.7651C21.3501 15.1095 20.2011 14.0178 18.4633 13.3552C15.791 12.4833 12.9991 13.1924 10.5511 14.3854C9.18526 15.082 7.99353 15.9573 6.8668 16.9922C6.7007 17.1417 6.7007 17.1417 6.53126 17.2943C4.60564 19.1137 2.92857 21.8652 2.74449 24.5616C2.73657 24.9194 2.73184 25.277 2.72861 25.6348C2.72522 25.7551 2.72182 25.8755 2.71831 25.9996C2.70945 27.1111 2.94533 28.1149 3.23399 29.1797C3.25629 29.2621 3.2786 29.3445 3.30158 29.4294C3.4386 29.9311 3.58035 30.4315 3.72329 30.9316C5.48422 37.1176 6.82596 43.6865 6.30833 50.1494C6.16324 52.0428 6.52547 53.8049 7.77981 55.2836C9.06989 56.7237 10.6704 57.4707 12.5866 57.6411C14.2128 57.7288 15.7486 57.1529 16.9815 56.1035C18.2861 54.8555 19.0426 53.3473 19.0982 51.5405C19.0731 50.0474 18.5413 48.9404 17.7652 47.6953C16.521 45.6184 15.6003 43.4351 15.3043 41.0156C15.2913 40.913 15.2783 40.8105 15.2649 40.7048C14.76 36.0581 16.2351 30.9452 19.12 27.2794C20.5536 25.4543 21.6171 23.3568 22.4262 21.1894C22.5699 20.8594 22.5699 20.8594 22.8043 20.7422C23.4107 20.6906 23.4107 20.6906 23.7271 20.8594C23.9355 21.2298 23.8944 21.619 23.859 22.0312C23.2628 24.1374 21.98 26.1291 20.7128 27.8842C17.9766 31.6854 16.2489 36.3201 16.9669 41.0669C17.3648 43.4472 18.2591 45.3617 19.5372 47.3907C20.5986 49.1129 20.9398 51.0034 20.6368 53.0003C20.5561 53.3118 20.4579 53.6057 20.3434 53.9062C20.3048 54.0186 20.2663 54.131 20.2266 54.2468C19.5077 56.1772 18.0726 57.6515 16.2308 58.5329C14.2789 59.3733 11.987 59.5557 9.97639 58.7736C7.73871 57.8019 6.12679 56.3488 5.13874 54.0765C4.60425 52.6046 4.57544 51.1695 4.69883 49.6289C5.18411 43.0775 3.58749 36.4903 1.82774 30.2344C1.63967 29.5651 1.63967 29.5651 1.55153 29.2503C1.50372 29.08 1.45551 28.9099 1.40676 28.7398C0.809322 26.6274 0.915737 24.1155 1.59336 22.0312C1.6301 21.9175 1.6301 21.9175 1.66758 21.8016C3.06444 17.6476 6.45704 14.6535 10.2565 12.7157C13.7965 11.0271 18.1501 10.6038 21.398 13.125Z" fill="#292929"/>
<path d="M22.3513 1.062C23.5955 1.80645 24.2281 2.94052 24.657 4.30571C25.0854 6.17535 24.8303 8.22297 23.8399 9.86067C23.3152 10.67 22.665 11.1749 21.7654 11.5283C20.8823 11.686 20.0537 11.6789 19.2458 11.25C18.5363 10.7186 17.9641 10.1208 17.488 9.37498C17.4135 9.46834 17.4135 9.46834 17.3374 9.56358C16.7252 10.3009 16.1241 10.8256 15.1351 10.9222C14.3243 10.9397 13.7195 10.7689 13.0349 10.3125C12.9865 10.3974 12.9382 10.4823 12.8884 10.5697C12.3851 11.4123 11.8845 12.1022 10.9255 12.4219C10.6768 12.436 10.4276 12.4424 10.1784 12.4438C10.047 12.4455 9.91559 12.4472 9.78019 12.4489C9.40807 12.4223 9.15102 12.3461 8.81614 12.1875C8.80526 12.3325 8.80526 12.3325 8.79416 12.4805C8.59756 13.3274 8.10913 13.9187 7.40989 14.414C6.97042 14.6268 6.62907 14.6748 6.1428 14.6631C6.02844 14.661 5.91409 14.6588 5.79627 14.6567C5.71001 14.6539 5.62376 14.6512 5.53489 14.6484C5.52341 14.7221 5.51193 14.7959 5.5001 14.8718C5.32038 15.9005 5.05573 16.6667 4.21195 17.3218C3.59733 17.7483 2.98469 17.7825 2.25364 17.6953C1.47314 17.4743 0.942343 16.9494 0.495824 16.289C0.0047762 15.3853 -0.00635702 14.2455 0.221166 13.2609C0.528665 12.4007 1.03769 11.7232 1.82151 11.25C2.36698 11.1021 2.86431 11.1023 3.42551 11.1328C3.41584 10.9999 3.40618 10.8669 3.39622 10.73C3.40118 9.79249 3.87819 9.06197 4.50766 8.39812C5.15274 7.79015 5.7604 7.81611 6.60972 7.82774C6.94114 7.85155 6.94114 7.85155 7.17551 7.96873C7.20965 7.87674 7.24379 7.78474 7.27897 7.68996C7.72492 6.54704 8.16558 5.81235 9.28489 5.27342C10.1665 4.94281 10.9368 5.26034 11.7458 5.62498C11.7658 5.55701 11.7857 5.48903 11.8062 5.41899C12.1289 4.37903 12.6291 3.69675 13.5036 3.04686C14.1941 2.68595 15.1502 2.6719 15.8918 2.89717C16.4006 3.13563 16.765 3.44933 17.1364 3.86717C17.1763 3.77789 17.2162 3.68862 17.2573 3.59663C17.7939 2.4536 18.4143 1.4442 19.6088 0.915969C20.5158 0.660854 21.4888 0.666238 22.3513 1.062ZM19.2312 3.22264C18.3872 4.43531 18.2616 5.83102 18.4255 7.26561C18.6567 8.28845 19.1377 9.1561 19.9586 9.81947C20.3408 10.06 20.6733 10.1253 21.1208 10.0781C21.8861 9.89191 22.2958 9.39763 22.7056 8.75105C23.3833 7.52303 23.4268 6.00342 23.1492 4.64171C22.8639 3.78721 22.399 3.11531 21.7287 2.51951C20.7054 2.03796 19.9292 2.38707 19.2312 3.22264ZM13.5036 5.15623C13.0327 5.87526 13.0463 6.79136 13.1521 7.61717C13.3718 8.29262 13.6834 8.90704 14.3239 9.2578C14.7664 9.3763 15.0243 9.42355 15.4519 9.25047C16.1766 8.65927 16.516 8.07168 16.6677 7.14842C16.7105 6.25448 16.5132 5.5174 15.9646 4.80467C15.5908 4.47153 15.3542 4.35481 14.8659 4.25535C14.2466 4.37282 13.9067 4.68242 13.5036 5.15623ZM9.28489 7.14842C8.85302 7.74369 8.66889 8.28403 8.69895 9.02342C8.82687 9.78305 9.03771 10.2928 9.63645 10.7812C9.67512 10.8199 9.71379 10.8586 9.75364 10.8984C10.2022 10.9415 10.4876 10.9446 10.8889 10.73C11.3798 10.1859 11.6519 9.5773 11.6799 8.84032C11.6429 8.134 11.4427 7.59318 11.0061 7.03856C10.3418 6.52874 9.90357 6.61043 9.28489 7.14842ZM5.18332 9.96092C4.80505 10.5614 4.89367 11.2702 4.94895 11.9531C5.1218 12.4457 5.34706 12.8114 5.76926 13.125C6.11073 13.2129 6.11073 13.2129 6.47239 13.125C6.9726 12.7883 7.23027 12.5242 7.40989 11.9531C7.50838 11.0028 7.42491 10.3412 6.85325 9.56541C6.17568 9.07606 5.65174 9.37205 5.18332 9.96092ZM2.05771 13.0774C1.61301 13.5482 1.62374 14.0982 1.6384 14.7148C1.69527 15.2684 1.91472 15.5929 2.29026 15.9888C2.59622 16.2007 2.59622 16.2007 2.96409 16.1792C3.50411 15.9839 3.68579 15.6556 3.93088 15.1538C4.07846 14.4428 4.0182 13.8251 3.67454 13.1836C3.43322 12.8725 3.43322 12.8725 3.07395 12.6562C2.56493 12.6562 2.42536 12.7431 2.05771 13.0774Z" fill="#292929"/>
<path d="M11.4123 31.1572C11.8152 31.2891 11.8152 31.2891 12.0011 31.5938C12.1758 32.0141 12.3007 32.4322 12.407 32.8734C12.4281 32.9581 12.4491 33.0429 12.4708 33.1302C12.539 33.4073 12.6057 33.6848 12.6721 33.9624C12.6952 34.058 12.7182 34.1535 12.742 34.252C13.3349 36.7159 13.8049 39.1995 14.1443 41.7114C14.1584 41.8153 14.1725 41.9192 14.187 42.0263C14.4175 43.876 14.4175 43.876 14.1199 44.2685C13.8134 44.4969 13.5919 44.467 13.2214 44.4141C12.8765 44.1547 12.7648 43.9937 12.6587 43.5718C12.6418 43.4243 12.6249 43.2769 12.6075 43.125C12.5975 43.0435 12.5874 42.962 12.577 42.8781C12.5552 42.7015 12.5342 42.5249 12.5139 42.3482C12.4585 41.8705 12.3953 41.3939 12.332 40.9172C12.3189 40.8186 12.3059 40.7201 12.2924 40.6185C12.1533 39.5895 11.9708 38.5702 11.7712 37.5513C11.7542 37.4641 11.7372 37.3769 11.7196 37.287C11.4559 35.9493 11.1426 34.6294 10.7761 33.3158C10.7433 33.1971 10.7105 33.0785 10.6767 32.9562C10.6476 32.8542 10.6184 32.7522 10.5884 32.6471C10.4886 32.1612 10.4362 31.7808 10.7092 31.355C10.9948 31.1719 10.9948 31.1719 11.4123 31.1572Z" fill="#292929"/>
<path d="M12.7523 28.3593C13.1035 28.6742 13.2297 29.079 13.3382 29.5312C13.2894 30.166 13.2894 30.166 12.9867 30.4687C12.2712 30.5338 12.2712 30.5338 11.954 30.3369C11.6311 29.827 11.5139 29.3093 11.5804 28.7109C11.8472 28.2402 12.2593 28.2977 12.7523 28.3593Z" fill="#292929"/>
</svg>
