<svg width="40" height="28" viewBox="0 0 40 28" fill="none" xmlns="http://www.w3.org/2000/svg">
<path d="M0 0C13.2 0 26.4 0 40 0C40 9.17561 40 18.3512 40 27.8049C26.8 27.8049 13.6 27.8049 0 27.8049C0 18.6293 0 9.45366 0 0Z" fill="#D70026"/>
<path d="M0 0C13.2 0 26.4 0 40 0C40 3.05854 40 6.11707 40 9.26829C26.8 9.26829 13.6 9.26829 0 9.26829C0 6.20976 0 3.15122 0 0Z" fill="black"/>
<path d="M0 18.7317C13.2 18.7317 26.4 18.7317 40 18.7317C40 21.7903 40 24.8488 40 28C26.8 28 13.6 28 0 28C0 24.9415 0 21.8829 0 18.7317Z" fill="#FED943"/>
</svg>
