<svg width="61" height="60" viewBox="0 0 61 60" fill="none" xmlns="http://www.w3.org/2000/svg">
<path d="M18.8837 2.68064C21.0911 4.3858 22.318 6.60491 22.7332 9.3495C22.8318 10.1424 22.8224 10.9429 22.8255 11.7407C22.8275 11.9377 22.8296 12.1347 22.8319 12.3317C22.8374 12.8434 22.8409 13.355 22.844 13.8667C22.8475 14.3916 22.853 14.9164 22.8582 15.4413C22.8682 16.466 22.8762 17.4908 22.8827 18.5156C22.9788 18.5612 23.0749 18.6068 23.1738 18.6537C23.3001 18.7149 23.4264 18.7762 23.5565 18.8392C23.6816 18.8993 23.8067 18.9594 23.9356 19.0213C24.7762 19.491 25.3086 20.2956 25.578 21.2109C25.7153 22.0579 25.713 22.8968 25.7158 23.7533C25.7178 23.9872 25.7199 24.2211 25.722 24.455C25.7274 25.028 25.7318 25.601 25.7334 26.174C25.7344 26.497 25.7365 26.8198 25.7401 27.1427C25.7434 27.4458 25.7449 27.7489 25.7444 28.052C25.7435 29.0622 25.7435 29.0622 26.2811 29.8828C26.9702 30.2491 27.6046 30.3133 28.3766 30.3617C28.5028 30.3704 28.629 30.3792 28.7591 30.3883C30.412 30.4971 32.0667 30.5594 33.7226 30.6006C33.8019 30.6027 33.8812 30.6048 33.9629 30.6069C39.0547 30.858 39.0547 30.858 43.4429 28.6611C44.4631 27.6735 45.3038 26.4988 46.0315 25.2854C46.4717 24.5995 46.99 24.3677 47.7675 24.1975C48.7712 24.0241 49.71 24.2748 50.539 24.8437C51.1266 25.3474 51.5826 25.9825 51.828 26.7187C51.9262 28.0612 51.8265 29.0084 50.9345 30.0512C50.7288 30.2735 50.5187 30.489 50.3046 30.7031C50.3895 30.7656 50.4744 30.8282 50.5618 30.8926C51.518 31.6295 52.1263 32.3739 52.5311 33.5156C52.5311 33.6316 52.5311 33.7476 52.5311 33.8672C52.677 33.8647 52.8229 33.8623 52.9733 33.8597C53.5199 33.8512 54.0666 33.8458 54.6133 33.8414C54.8489 33.8391 55.0845 33.8359 55.32 33.8318C58.394 33.7799 58.394 33.7799 59.6027 34.9292C60.4192 35.8844 60.4739 36.999 60.3827 38.2031C60.224 38.776 59.9536 39.2766 59.5624 39.7265C59.6802 39.9709 59.8016 40.2028 59.9478 40.4315C60.4859 41.3314 60.514 42.2287 60.3827 43.2422C60.2058 43.7597 59.9482 44.1937 59.6398 44.6425C59.5294 44.8944 59.5294 44.8944 59.6892 45.1726C59.7561 45.2727 59.823 45.3729 59.892 45.476C60.4866 46.3809 60.5374 47.4101 60.3205 48.4675C60.1527 48.9425 59.8988 49.3163 59.5624 49.6875C59.6802 49.9236 59.7984 50.1595 59.9181 50.3947C59.9578 50.4731 59.9975 50.5515 60.0385 50.6323C60.0785 50.711 60.1185 50.7897 60.1598 50.8708C60.5517 51.697 60.5225 52.7373 60.2628 53.6027C59.8592 54.4846 59.3071 55.175 58.3791 55.5214C57.6565 55.7545 57.0184 55.8291 56.2619 55.8156C56.1543 55.8151 56.0467 55.8146 55.9359 55.814C55.5968 55.8121 55.2579 55.8077 54.9188 55.8032C54.6871 55.8014 54.4553 55.7998 54.2235 55.7984C53.6593 55.7945 53.0953 55.7885 52.5311 55.7812C52.5145 55.8912 52.4979 56.0012 52.4808 56.1145C52.3031 57.0976 51.5505 57.9959 50.7733 58.5937C49.9638 59.0451 49.2398 59.309 48.3135 59.3176C48.172 59.3191 48.0304 59.3206 47.8845 59.3222C47.6558 59.3234 47.6558 59.3234 47.4225 59.3248C47.3057 59.3255 47.3057 59.3255 47.1866 59.3262C46.775 59.3287 46.3634 59.3303 45.9518 59.3314C45.527 59.3327 45.1022 59.3368 44.6774 59.3414C44.3503 59.3445 44.0232 59.3455 43.696 59.3459C43.4634 59.3467 43.2307 59.3498 42.9981 59.353C42.8565 59.3526 42.7149 59.3523 42.5691 59.3519C42.3823 59.353 42.3823 59.353 42.1917 59.354C41.787 59.2827 41.6502 59.1459 41.3983 58.8281C41.332 58.5937 41.332 58.5937 41.3324 58.3593C41.3286 58.2433 41.3286 58.2433 41.3246 58.125C41.4399 57.7585 41.6716 57.633 41.9843 57.4218C42.3065 57.3642 42.3065 57.3642 42.6598 57.3653C42.7929 57.3645 42.9259 57.3637 43.0629 57.3629C43.2056 57.3642 43.3483 57.3656 43.4953 57.3669C43.6432 57.3661 43.791 57.3653 43.9433 57.3644C44.4956 57.3614 45.0478 57.3625 45.6002 57.3639C46.1413 57.365 46.6823 57.3626 47.2234 57.3596C47.3654 57.3609 47.5074 57.3622 47.6537 57.3636C48.5841 57.3581 49.226 57.2524 49.9558 56.6354C50.008 56.5711 50.0603 56.5067 50.1142 56.4404C50.1682 56.3767 50.2223 56.3129 50.278 56.2472C50.6371 55.6686 50.6859 55.104 50.6883 54.435C50.6889 54.3491 50.6895 54.2632 50.6901 54.1747C50.6919 53.8881 50.692 53.6015 50.6921 53.3149C50.6929 53.1089 50.6939 52.9029 50.695 52.6969C50.6976 52.138 50.6986 51.5792 50.6992 51.0203C50.6996 50.6709 50.7004 50.3214 50.7012 49.9719C50.7041 48.7518 50.7056 47.5317 50.706 46.3116C50.7064 45.1758 50.7099 44.0401 50.7148 42.9043C50.7189 41.928 50.7207 40.9517 50.7208 39.9753C50.7209 39.3927 50.7219 38.8102 50.7253 38.2276C50.7283 37.6793 50.7286 37.1311 50.7267 36.5828C50.7265 36.3822 50.7273 36.1817 50.7291 35.9811C50.7608 34.4131 50.7608 34.4131 50.0702 33.0469C49.3062 32.2908 48.4091 32.2532 47.391 32.2514C47.1926 32.2532 46.9941 32.255 46.7956 32.2569C46.584 32.2563 46.3723 32.2554 46.1606 32.2542C45.7067 32.2524 45.2528 32.2527 44.7988 32.2548C44.0802 32.2582 43.3616 32.2566 42.6429 32.2545C41.5056 32.2517 40.3683 32.2522 39.2311 32.2541C37.1957 32.2575 35.1602 32.2551 33.1248 32.2515C32.4113 32.2504 31.6978 32.2507 30.9843 32.2523C30.5395 32.2531 30.0946 32.253 29.6498 32.2527C29.4445 32.2527 29.2393 32.2532 29.034 32.2541C25.9219 32.2673 25.9219 32.2673 24.6657 31.0936C23.7814 30.144 23.7686 29.1247 23.7685 27.8833C23.7671 27.724 23.7655 27.5647 23.7638 27.4053C23.7596 26.988 23.7572 26.5708 23.7554 26.1534C23.7525 25.4857 23.7478 24.818 23.7411 24.1503C23.7392 23.9187 23.7388 23.6871 23.7384 23.4555C23.754 22.1454 23.754 22.1454 23.205 20.9985C22.6203 20.5334 22.1505 20.3468 21.4029 20.3452C21.2484 20.344 21.094 20.3429 20.9349 20.3417C20.7652 20.3422 20.5955 20.3427 20.4257 20.3433C20.2459 20.3426 20.066 20.3418 19.8862 20.3408C19.3988 20.3387 18.9114 20.3389 18.424 20.3395C18.0166 20.3399 17.6092 20.3392 17.2018 20.3385C16.2403 20.3368 15.2788 20.337 14.3174 20.3383C13.3267 20.3397 12.3361 20.338 11.3454 20.3349C10.4938 20.3323 9.64219 20.3315 8.79055 20.3322C8.28239 20.3326 7.77425 20.3323 7.2661 20.3303C6.78803 20.3285 6.31001 20.329 5.83195 20.3312C5.65697 20.3316 5.482 20.3312 5.30703 20.33C4.3852 20.324 3.62786 20.3244 2.84365 20.8594C2.28523 21.5494 2.24313 22.2773 2.24204 23.1329C2.24178 23.2191 2.24151 23.3054 2.24124 23.3942C2.2405 23.6828 2.24059 23.9713 2.24069 24.2598C2.24034 24.467 2.23994 24.6742 2.2395 24.8814C2.23846 25.4444 2.23819 26.0075 2.23811 26.5705C2.23803 26.9233 2.23778 27.2761 2.23747 27.6289C2.23638 28.8628 2.2359 30.0967 2.236 31.3306C2.23607 32.4752 2.23484 33.6198 2.23298 34.7643C2.23144 35.7505 2.23082 36.7366 2.23089 37.7227C2.23092 38.31 2.2306 38.8973 2.22935 39.4847C2.10879 43.5705 2.10879 43.5705 2.7997 47.5635C2.84505 47.7137 2.84505 47.7137 2.89131 47.8669C3.53314 49.8967 4.65519 51.67 6.1249 53.2031C6.20526 53.2909 6.28563 53.3786 6.36843 53.4691C8.13849 55.3407 10.5407 56.5169 13.039 57.0703C13.1284 57.0905 13.2179 57.1107 13.3101 57.1315C14.4877 57.3616 15.6619 57.339 16.8565 57.3383C17.0984 57.339 17.3403 57.3398 17.5822 57.3407C18.1005 57.3425 18.6188 57.3435 19.1371 57.344C19.9565 57.3448 20.7758 57.3473 21.5952 57.3501C23.481 57.3564 25.3667 57.3603 27.2525 57.3642C28.984 57.3678 30.7155 57.3718 32.4469 57.3778C33.2618 57.3805 34.0767 57.3821 34.8915 57.3829C35.3973 57.3836 35.9031 57.3852 36.4088 57.3872C36.6437 57.3878 36.8786 57.3881 37.1135 57.388C37.4335 57.3879 37.7534 57.3891 38.0734 57.3908C38.1668 57.3904 38.2603 57.39 38.3565 57.3896C38.7994 57.3934 39.1528 57.3974 39.5233 57.6562C39.7673 57.9699 39.7572 58.1387 39.7431 58.5425C39.6405 58.9453 39.6405 58.9453 39.4616 59.1435C39.0435 59.3647 38.6429 59.3453 38.1812 59.3415C38.0803 59.342 37.9793 59.3426 37.8754 59.3432C37.5365 59.3446 37.1977 59.3434 36.8588 59.3423C36.6161 59.3428 36.3733 59.3434 36.1306 59.3442C35.4702 59.3458 34.8099 59.3452 34.1495 59.3441C33.4574 59.3432 32.7653 59.344 32.0733 59.3446C30.9093 59.3452 29.7453 59.3444 28.5814 59.3427C27.2396 59.3408 25.8977 59.3414 24.5559 59.3433C23.4021 59.3449 22.2483 59.3451 21.0945 59.3442C20.4063 59.3437 19.718 59.3436 19.0298 59.3448C18.381 59.3458 17.7323 59.3451 17.0835 59.343C16.8468 59.3426 16.6101 59.3427 16.3734 59.3435C12.3415 59.3556 8.74314 58.1651 5.65615 55.5468C5.57322 55.4783 5.49028 55.4097 5.40484 55.339C4.84518 54.866 4.35956 54.358 3.89834 53.789C3.81631 53.688 3.73428 53.5869 3.64977 53.4828C1.45005 50.6655 0.405864 47.4861 0.422223 43.9334C0.421234 43.6821 0.42 43.4308 0.418541 43.1795C0.4154 42.5043 0.415914 41.8291 0.417334 41.1539C0.418175 40.5883 0.417171 40.0227 0.416174 39.4571C0.413845 38.123 0.414478 36.789 0.417073 35.4549C0.4197 34.0812 0.417621 32.7074 0.4132 31.3337C0.409538 30.1503 0.408613 28.9669 0.409913 27.7835C0.410672 27.0784 0.410447 26.3732 0.40765 25.6681C0.405156 25.006 0.406097 24.344 0.409652 23.6819C0.410392 23.4395 0.409944 23.1972 0.408197 22.9548C0.398963 21.5606 0.402293 20.5344 1.4074 19.4713C1.75927 19.128 2.12789 18.9242 2.57769 18.7308C2.71867 18.6697 2.71867 18.6697 2.8625 18.6073C2.96919 18.5619 2.96919 18.5619 3.07802 18.5156C3.07871 18.4082 3.0794 18.3008 3.08011 18.1901C3.08694 17.1697 3.09541 16.1494 3.10565 15.1291C3.11085 14.6047 3.11546 14.0803 3.11862 13.556C3.12171 13.0484 3.12646 12.5408 3.1323 12.0332C3.13423 11.8412 3.1356 11.6491 3.13634 11.457C3.14665 9.02372 3.5492 6.67107 5.07021 4.68748C5.42845 4.50836 5.72996 4.54305 6.1249 4.57029C6.40322 4.6948 6.40322 4.6948 6.59365 4.92185C6.73539 5.42945 6.74232 5.75048 6.50393 6.21275C6.4086 6.37915 6.31147 6.54453 6.21279 6.70896C5.47941 8.00672 5.18151 9.22405 5.16334 10.7221C5.16157 10.8495 5.16157 10.8495 5.15978 10.9794C5.15613 11.2513 5.15321 11.5232 5.15032 11.7952C5.14816 11.9642 5.14595 12.1332 5.1437 12.3023C5.13571 12.9256 5.12865 13.549 5.12148 14.1723C5.10456 15.5669 5.08764 16.9616 5.07021 18.3984C10.2909 18.3984 15.5116 18.3984 20.8905 18.3984C20.8809 17.0086 20.8712 15.6189 20.8612 14.187C20.8594 13.7524 20.8575 13.3178 20.8556 12.87C20.8517 12.4715 20.8517 12.4715 20.8472 12.073C20.8455 11.8991 20.8447 11.7251 20.8446 11.5512C20.8419 8.9932 20.2541 6.72401 18.4049 4.87379C16.9093 3.48504 14.9691 2.69529 12.9218 2.69529C11.5993 2.78533 10.3413 3.03759 9.19375 3.72068C8.73945 3.98733 8.41699 4.06816 7.88271 3.98435C7.60439 3.85984 7.60439 3.85984 7.41396 3.63279C7.3176 3.25423 7.2539 2.9618 7.36315 2.58131C7.61226 2.22903 7.95415 2.06739 8.32949 1.87498C8.40758 1.83418 8.48567 1.79339 8.56612 1.75135C11.9292 0.0480873 15.8526 0.571688 18.8837 2.68064ZM47.4431 26.4422C47.3629 26.5165 47.2828 26.5908 47.2002 26.6674C46.6068 27.244 46.0176 27.8244 45.4335 28.4105C45.2046 28.64 44.9751 28.8689 44.7455 29.0977C44.6002 29.2431 44.4549 29.3885 44.3097 29.534C44.2409 29.6026 44.172 29.6712 44.1011 29.7418C43.7756 30.004 43.7756 30.004 43.6249 30.3515C46.2312 30.6806 46.2312 30.6806 48.6319 29.9766C49.2083 29.4465 49.8776 28.6726 49.9883 27.8691C49.9912 27.3129 49.978 26.9258 49.6015 26.4844C49.1668 26.1024 48.7161 26.0455 48.154 26.0754C47.8117 26.1387 47.6944 26.2086 47.4431 26.4422ZM52.6483 35.7422C52.6483 36.7863 52.6483 37.8304 52.6483 38.9062C53.2822 38.917 53.9156 38.9263 54.5495 38.932C54.7648 38.9343 54.98 38.9375 55.1953 38.9416C55.506 38.9473 55.8166 38.9499 56.1273 38.952C56.2225 38.9544 56.3176 38.9568 56.4156 38.9593C57.089 38.9596 57.5923 38.8121 58.1561 38.4375C58.5384 38.0194 58.5694 37.6036 58.5484 37.0564C58.4831 36.6399 58.3189 36.4032 58.039 36.0937C57.4346 35.7059 56.9352 35.6951 56.2418 35.7078C56.0872 35.7086 56.0872 35.7086 55.9295 35.7093C55.6023 35.7113 55.2753 35.7157 54.9481 35.7202C54.7255 35.722 54.5029 35.7236 54.2803 35.725C53.7362 35.7286 53.1924 35.7354 52.6483 35.7422ZM52.6483 40.7812C52.6483 41.7867 52.6483 42.7922 52.6483 43.8281C53.3345 43.8443 54.0199 43.8583 54.7061 43.8667C54.9393 43.8703 55.1724 43.875 55.4055 43.8811C55.7415 43.8897 56.0773 43.8937 56.4134 43.8968C56.5169 43.9004 56.6203 43.904 56.7269 43.9078C57.4038 43.9081 57.7507 43.7704 58.2403 43.2993C58.5789 42.9065 58.5532 42.5164 58.5489 42.0172C58.4815 41.5287 58.2835 41.3444 57.9218 41.0156C57.5877 40.8157 57.3464 40.7522 56.9587 40.7546C56.8626 40.7546 56.7664 40.7547 56.6674 40.7547C56.5647 40.7559 56.462 40.7571 56.3562 40.7583C56.2502 40.7587 56.1443 40.759 56.0351 40.7593C55.6972 40.7607 55.3593 40.7636 55.0214 40.7666C54.792 40.7678 54.5627 40.7688 54.3334 40.7698C53.7717 40.7722 53.21 40.7768 52.6483 40.7812ZM52.6483 45.7031C52.6483 46.7472 52.6483 47.7914 52.6483 48.8672C53.3031 48.8752 53.9577 48.8822 54.6124 48.8865C54.835 48.8882 55.0575 48.8906 55.2801 48.8937C55.6007 48.898 55.9212 48.8999 56.2418 48.9015C56.3407 48.9033 56.4396 48.9051 56.5415 48.907C57.1296 48.9072 57.5297 48.8424 58.039 48.5156C58.4009 48.1156 58.5387 47.8081 58.559 47.2778C58.536 46.8222 58.4591 46.527 58.1561 46.1718C57.487 45.6914 56.8842 45.6865 56.0816 45.6917C55.9834 45.6918 55.8852 45.692 55.7841 45.6922C55.4712 45.6928 55.1584 45.6943 54.8456 45.6958C54.6332 45.6964 54.4208 45.6969 54.2084 45.6974C53.6884 45.6986 53.1684 45.7009 52.6483 45.7031ZM52.6483 50.7422C52.6483 51.7863 52.6483 52.8304 52.6483 53.9062C53.2822 53.917 53.9156 53.9263 54.5495 53.932C54.7648 53.9343 54.98 53.9375 55.1953 53.9416C55.506 53.9473 55.8166 53.9499 56.1273 53.952C56.2225 53.9544 56.3176 53.9568 56.4156 53.9593C57.089 53.9596 57.5923 53.8121 58.1561 53.4375C58.5384 53.0194 58.5694 52.6036 58.5484 52.0564C58.4831 51.6399 58.3189 51.4031 58.039 51.0937C57.4346 50.7059 56.9352 50.6951 56.2418 50.7078C56.0872 50.7086 56.0872 50.7086 55.9295 50.7093C55.6023 50.7113 55.2753 50.7157 54.9481 50.7202C54.7255 50.722 54.5029 50.7236 54.2803 50.725C53.7362 50.7286 53.1924 50.7354 52.6483 50.7422Z" fill="#292929"/>
</svg>
