<svg width="376" height="108" viewBox="0 0 376 108" fill="none" xmlns="http://www.w3.org/2000/svg">
<path d="M31.16 107V57.88C31.16 57.3467 31.16 56.1733 31.16 54.36C31.16 52.44 31.16 50.2533 31.16 47.8C31.16 45.24 31.16 42.5733 31.16 39.8C31.2667 37.0267 31.32 34.36 31.32 31.8C31.32 29.24 31.32 27 31.32 25.08C31.4267 23.16 31.48 21.88 31.48 21.24H30.84L24.12 107H15.8L9.08 21.24H8.44C8.44 22.2 8.44 23.32 8.44 24.6C8.54667 25.7733 8.6 27.64 8.6 30.2C8.70667 32.6533 8.76 36.0667 8.76 40.44C8.76 44.8133 8.76 50.6267 8.76 57.88V107H0.92V0.759995H14.84L19.8 80.6H20.44L25.4 0.759995H39.16V107H31.16ZM67.5913 95.32C67.5913 103.427 63.4846 107.48 55.2713 107.48C47.1646 107.48 43.1113 103.427 43.1113 95.32V41.08C43.1113 32.8667 47.1646 28.76 55.2713 28.76C63.4846 28.76 67.5913 32.8667 67.5913 41.08V69.88H51.4313V95.48C51.4313 98.5733 52.7113 100.12 55.2713 100.12C57.8313 100.12 59.1113 98.5733 59.1113 95.48V80.44H67.5913V95.32ZM59.1113 40.92C59.1113 37.9333 57.8313 36.44 55.2713 36.44C52.7113 36.44 51.4313 37.9333 51.4313 40.92V63.8H59.1113V40.92ZM88.2225 107V36.92H82.6225L81.5025 57.24C80.9692 65.7733 80.5425 72.8133 80.2225 78.36C79.9025 83.9067 79.5825 88.3867 79.2625 91.8C79.0492 95.1067 78.7825 97.6133 78.4625 99.32C78.2492 100.92 77.9825 102.147 77.6625 103C77.1292 104.387 76.2758 105.4 75.1025 106.04C74.0358 106.68 72.4358 107 70.3025 107H69.1825V99.48H69.8225C70.9958 99.48 71.7958 98.84 72.2225 97.56C72.4358 96.8133 72.6492 95.7467 72.8625 94.36C73.0758 92.8667 73.2892 90.6267 73.5025 87.64C73.7158 84.6533 73.9292 80.76 74.1425 75.96C74.3558 71.0533 74.6225 64.8133 74.9425 57.24L76.0625 29.24H96.8625V107H88.2225ZM109.716 59.64H115.636C119.263 59.64 121.77 60.3333 123.156 61.72C124.65 63 125.396 65.1867 125.396 68.28V99C125.396 101.56 124.65 103.533 123.156 104.92C121.77 106.307 119.263 107 115.636 107H101.236V29.24H109.716V59.64ZM113.876 99.64C116.223 99.64 117.396 98.52 117.396 96.28V70.04C117.396 67.9067 116.223 66.84 113.876 66.84H109.716V99.64H113.876ZM145.529 107V70.68H137.529V107H129.049V29.24H137.529V63H145.529V29.24H154.009V107H145.529ZM175.868 107V59H175.228L167.068 107H158.268V29.24H166.588V77.08H167.228L175.068 29.24H184.188V107H175.868ZM205.86 107L200.1 75.96H199.62L197.06 85.4V107H188.58V29.24H197.06V62.36H197.7L205.86 29.24H214.82L206.34 62.84L214.66 107H205.86ZM235.661 65.56V107H226.701V0.759995H241.741C245.475 0.759995 248.088 1.77333 249.581 3.79999C251.181 5.71999 251.981 8.38666 251.981 11.8V54.68C251.981 58.0933 251.181 60.76 249.581 62.68C248.088 64.6 245.475 65.56 241.741 65.56H235.661ZM235.661 57.72H239.821C242.275 57.72 243.501 56.2267 243.501 53.24V12.76C243.501 10.2 242.275 8.91999 239.821 8.91999H235.661V57.72ZM278.994 95.32C278.994 103.427 274.94 107.48 266.834 107.48C258.727 107.48 254.674 103.427 254.674 95.32V41.08C254.674 32.8667 258.727 28.76 266.834 28.76C274.94 28.76 278.994 32.8667 278.994 41.08V95.32ZM270.674 41.08C270.674 37.9867 269.394 36.44 266.834 36.44C264.274 36.44 262.994 37.9867 262.994 41.08V95.32C262.994 98.3067 264.274 99.8 266.834 99.8C269.394 99.8 270.674 98.3067 270.674 95.32V41.08ZM310.468 107V64.92C310.468 62.04 310.468 59.6933 310.468 57.88C310.574 56.0667 310.628 54.5733 310.628 53.4C310.734 52.12 310.788 51.1067 310.788 50.36C310.894 49.5067 310.948 48.7067 310.948 47.96H310.308L304.388 107H296.868L290.948 47.96H290.308C290.308 48.7067 290.308 49.5067 290.308 50.36C290.414 51.1067 290.468 52.12 290.468 53.4C290.574 54.5733 290.628 56.0667 290.628 57.88C290.628 59.6933 290.628 62.04 290.628 64.92V107H283.268V29.24H295.748L300.548 86.2H301.028L305.668 29.24H317.988V107H310.468ZM338.014 66.04C337.374 66.5733 336.68 66.9467 335.934 67.16C335.294 67.3733 334.547 67.64 333.694 67.96C332.2 68.4933 331.187 69.1867 330.654 70.04C330.227 70.7867 330.014 71.9067 330.014 73.4V96.28C330.014 98.84 331.187 100.12 333.534 100.12C335.667 100.12 337.16 99.0533 338.014 96.92V66.04ZM338.494 107L338.334 103H337.694C337.054 104.173 336.147 105.24 334.974 106.2C333.907 107.053 332.147 107.48 329.694 107.48C326.6 107.48 324.467 106.68 323.294 105.08C322.12 103.373 321.534 101.133 321.534 98.36V75C321.534 71.3733 322.227 68.76 323.614 67.16C325.107 65.4533 327.72 64.0133 331.454 62.84C333.48 62.2 335.027 61.6133 336.094 61.08C337.267 60.44 337.854 59.4267 337.854 58.04V39.32C337.854 37.2933 336.627 36.28 334.174 36.28C331.507 36.28 330.174 37.4 330.174 39.64V54.36H322.174V38.68C322.174 35.2667 323.24 32.76 325.374 31.16C327.614 29.56 330.76 28.76 334.814 28.76C342.494 28.76 346.334 31.8533 346.334 38.04V107H338.494ZM366.935 107V70.68H358.935V107H350.455V29.24H358.935V63H366.935V29.24H375.415V107H366.935Z" fill="white"/>
</svg>
