<svg width="60" height="60" viewBox="0 0 60 60" fill="none" xmlns="http://www.w3.org/2000/svg">
<g clip-path="url(#clip0_31_230)">
<path d="M0.472789 57.5335C0.123138 57.2363 0.0164027 57.0633 -0.0323605 56.607C0.0115963 56.1692 0.108463 56.0467 0.410678 55.7329C0.507694 55.6315 0.604709 55.5302 0.704666 55.4257C0.822364 55.3077 0.94041 55.19 1.05873 55.0726C1.12548 55.006 1.19224 54.9395 1.26101 54.8709C1.74333 54.3916 2.23036 53.9172 2.71829 53.4436C3.28511 52.8923 3.84815 52.337 4.41199 51.7826C4.90626 51.297 5.40174 50.8128 5.89984 50.3312C6.38433 49.8625 6.86532 49.3905 7.34411 48.9161C7.52655 48.7365 7.71023 48.5582 7.89517 48.3813C8.153 48.1342 8.40612 47.8831 8.65861 47.6305C8.7356 47.5588 8.81258 47.487 8.8919 47.4131C9.10217 47.1974 9.25282 47.0262 9.37904 46.7523C9.37162 46.4336 9.31569 46.1691 9.22556 45.8638C9.00012 45.074 9.09412 44.3363 9.4564 43.6079C9.84404 42.9807 10.3728 42.4561 10.9025 41.9476C10.8711 41.8533 10.8396 41.7591 10.8073 41.662C10.7613 41.5242 10.7154 41.3864 10.6681 41.2445C10.6371 41.1761 10.6062 41.1076 10.5743 41.0371C10.1197 39.945 10.0957 38.2959 10.5334 37.1919C11.1801 35.8319 12.3854 34.7743 13.4337 33.7262C13.7239 33.4353 14.0112 33.1416 14.2984 32.8477C14.4835 32.6616 14.6689 32.4755 14.8544 32.2897C14.9395 32.2021 15.0246 32.1145 15.1122 32.0242C15.6152 31.5279 15.9261 31.2796 16.6447 31.2836C16.955 31.3758 17.0699 31.462 17.2672 31.7157C17.386 32.115 17.3212 32.4025 17.2306 32.807C17.0022 33.1153 17.0022 33.1153 16.7065 33.3998C16.5484 33.5544 16.5484 33.5544 16.3872 33.7122C16.2764 33.8171 16.1656 33.922 16.0514 34.0301C15.9389 34.1391 15.8265 34.2483 15.7143 34.3577C15.44 34.6237 15.1642 34.8879 14.8869 35.1507C15.3318 35.6822 15.7912 36.189 16.283 36.6774C16.3482 36.7426 16.4135 36.8079 16.4807 36.8751C16.6935 37.0878 16.9066 37.3001 17.1198 37.5123C17.2686 37.6609 17.4174 37.8095 17.5661 37.9581C17.9554 38.3469 18.345 38.7354 18.7347 39.1238C19.1332 39.5211 19.5314 39.9188 19.9296 40.3164C20.7093 41.0948 21.4894 41.8729 22.2697 42.6507C22.4017 42.5389 22.5335 42.4268 22.6652 42.3147C22.7386 42.2523 22.812 42.1899 22.8877 42.1257C23.1105 41.9296 23.3047 41.7229 23.4928 41.4935C23.5929 41.3714 23.693 41.2494 23.7931 41.1273C23.6845 41.0268 23.5759 40.9264 23.464 40.8229C23.3221 40.6876 23.1804 40.5523 23.0387 40.4169C22.967 40.3511 22.8954 40.2853 22.8215 40.2175C22.4567 39.8648 22.2863 39.6657 22.1516 39.164C22.1525 38.7836 22.1525 38.7836 22.3356 38.4466C22.6859 38.1413 22.8597 38.0711 23.3244 38.0804C24.0768 38.4395 24.6276 39.129 25.1994 39.7211C25.7387 39.4776 26.0903 39.1032 26.5031 38.6883C26.6143 38.5799 26.6143 38.5799 26.7278 38.4693C27.1054 38.0922 27.3962 37.7883 27.5431 37.2601C27.4528 37.1725 27.3624 37.0849 27.2694 36.9946C27.1506 36.8781 27.0319 36.7615 26.9132 36.6449C26.8537 36.5873 26.7942 36.5298 26.7329 36.4705C26.156 35.9012 26.156 35.9012 26.0197 35.5023C26.0403 35.1095 26.0709 34.8022 26.2614 34.4549C26.6384 34.2482 27.0144 34.2457 27.4259 34.3304C27.7483 34.5411 27.9909 34.8058 28.2462 35.0921C28.3147 35.1648 28.3831 35.2375 28.4536 35.3123C28.6211 35.4908 28.7855 35.6721 28.9494 35.8539C29.973 35.3849 30.7519 34.4172 31.5275 33.6273C31.1421 33.1649 30.7595 32.748 30.3117 32.3456C29.9906 32.0288 29.821 31.8289 29.799 31.3714C29.8869 30.932 29.8869 30.932 30.07 30.639C30.4852 30.3835 30.6944 30.375 31.1759 30.4632C31.5265 30.6999 31.8168 30.9833 32.1134 31.2836C32.1846 31.3532 32.2557 31.4228 32.329 31.4946C32.4934 31.6567 32.6553 31.8214 32.8165 31.9867C33.7933 31.5404 34.5377 30.6325 35.2775 29.8773C35.0928 29.4234 34.7996 29.1452 34.4498 28.808C33.7682 28.1488 33.7682 28.1488 33.7101 27.5482C33.7165 27.1581 33.7383 27.0844 33.9957 26.7645C34.4572 26.5387 34.665 26.5812 35.1603 26.7132C35.4669 26.9377 35.7169 27.2029 35.9733 27.4823C36.0422 27.5544 36.1112 27.6265 36.1822 27.7009C36.3511 27.8779 36.5176 28.0571 36.6837 28.2367C37.2774 27.74 37.8322 27.2202 38.3756 26.6693C38.4502 26.5942 38.5247 26.5191 38.6015 26.4418C38.7828 26.2591 38.9639 26.0761 39.1447 25.8929C38.7803 25.4575 38.4208 25.0394 37.9948 24.6625C37.6973 24.3677 37.6182 24.243 37.4821 23.8275C37.504 23.432 37.504 23.432 37.6871 23.0951C38.0374 22.7897 38.2113 22.7196 38.6759 22.7289C39.4283 23.088 39.9792 23.7774 40.5509 24.3695C40.9699 24.1916 41.2423 23.9439 41.5617 23.6224C41.6981 23.4869 41.6981 23.4869 41.8372 23.3487C42.1055 23.0684 42.1055 23.0684 42.3087 22.6117C39.8724 20.1754 37.4361 17.739 34.9259 15.2289C34.4053 15.6751 33.9218 16.1019 33.443 16.5852C33.3816 16.647 33.3203 16.7088 33.257 16.7724C33.0539 16.977 32.8512 17.1819 32.6485 17.3869C32.502 17.5346 32.3554 17.6823 32.2088 17.83C31.8944 18.1468 31.5802 18.4637 31.266 18.7807C30.7691 19.282 30.2714 19.7825 29.7736 20.2828C29.6894 20.3674 29.6053 20.452 29.5185 20.5392C29.3465 20.7121 29.1745 20.8849 29.0025 21.0578C27.8443 22.2219 26.6866 23.3864 25.5311 24.5531C24.7504 25.3414 23.9684 26.1284 23.1849 26.9141C22.7707 27.3295 22.3572 27.7456 21.9452 28.1632C21.5581 28.5555 21.1694 28.9461 20.7794 29.3356C20.6366 29.4787 20.4945 29.6225 20.353 29.7669C20.1596 29.964 19.9642 30.1588 19.7682 30.3532C19.6594 30.4628 19.5506 30.5724 19.4385 30.6853C19.0429 30.9785 18.7727 31.0272 18.2853 31.0492C17.975 30.9569 17.86 30.8707 17.6627 30.617C17.5414 30.209 17.5988 29.9394 17.6994 29.5257C17.8992 29.2267 18.1458 28.9858 18.4027 28.7354C18.477 28.6603 18.5513 28.5852 18.6278 28.5078C18.8767 28.2569 19.1282 28.0085 19.3797 27.76C19.5588 27.5805 19.7378 27.4009 19.9166 27.2211C20.4027 26.7333 20.8909 26.2478 21.3796 25.7626C21.8906 25.2547 22.3998 24.7449 22.9092 24.2354C23.765 23.3799 24.6221 22.5258 25.4802 21.6726C26.4722 20.6861 27.4623 19.6978 28.4515 18.7084C29.4029 17.7568 30.3553 16.8062 31.3083 15.8561C31.7139 15.4517 32.1192 15.0471 32.5242 14.6422C33.0014 14.1654 33.4794 13.6896 33.9581 13.2144C34.1336 13.0399 34.3089 12.865 34.4838 12.6899C34.7227 12.4509 34.9626 12.2129 35.2028 11.9753C35.2718 11.9057 35.3408 11.8362 35.4119 11.7645C36.051 11.1366 36.6622 10.8312 37.5608 10.7693C38.9504 10.7995 39.889 12.0873 40.7853 13.0023C40.8404 12.9543 40.8956 12.9062 40.9524 12.8567C41.0253 12.7936 41.0983 12.7304 41.1735 12.6654C41.2455 12.6028 41.3176 12.5403 41.3918 12.4759C41.7289 12.1973 41.9178 12.0691 42.36 12.0209C42.7775 12.0648 42.7775 12.0648 43.0631 12.2479C43.3284 12.6618 43.3351 12.8689 43.2462 13.3539C43.0498 13.619 42.8395 13.8485 42.6054 14.0808C42.3879 14.2899 42.3879 14.2899 42.4259 14.6429C42.6579 14.8363 42.89 15.0296 43.129 15.2289C44.8693 13.4886 46.6095 11.7484 48.4025 9.95543C48.2129 9.57636 48.1123 9.40398 47.8165 9.13512C47.3894 9.31331 47.1335 9.56578 46.8182 9.90096C46.7176 10.0054 46.6171 10.1099 46.5135 10.2175C46.3035 10.4378 46.0945 10.6591 45.8864 10.8813C45.7854 10.9856 45.6844 11.0899 45.5804 11.1973C45.4895 11.2934 45.3985 11.3895 45.3049 11.4885C44.9283 11.7698 44.6483 11.8046 44.1837 11.8304C43.9127 11.7572 43.9127 11.7572 43.715 11.5961C43.5338 11.2768 43.4713 11.0882 43.5149 10.7222C43.8304 9.58765 45.3531 8.54141 46.1759 7.72887C45.9863 7.33059 45.7604 7.03187 45.4728 6.69615C44.9439 6.03859 44.7383 5.53642 44.777 4.68932C44.8706 3.98163 45.1456 3.4528 45.6774 2.97454C46.3817 2.44446 47.0642 2.35977 47.9337 2.45543C48.9519 2.79066 49.6497 3.50415 50.3828 4.25307C50.5007 4.37152 50.6188 4.48985 50.7369 4.60808C50.9827 4.85452 51.2274 5.10189 51.4714 5.35007C51.7828 5.66682 52.096 5.98174 52.4099 6.29605C52.6531 6.53977 52.8956 6.78411 53.138 7.02868C53.2532 7.14499 53.3686 7.26118 53.4842 7.37724C53.6456 7.53977 53.8062 7.70319 53.9668 7.86663C54.058 7.95906 54.1491 8.0515 54.2431 8.14674C54.9324 8.92354 55.1265 9.5137 55.1142 10.5327C55.049 11.2658 54.7485 11.7374 54.2106 12.2259C53.5203 12.7619 52.9003 12.8714 52.0353 12.7679C51.2271 12.5315 50.6389 11.9299 50.0431 11.3617C49.6342 11.5369 49.3711 11.7709 49.0586 12.0852C48.9577 12.1861 48.8569 12.287 48.753 12.3909C48.5913 12.5544 48.5913 12.5544 48.4263 12.7212C48.314 12.8339 48.2017 12.9466 48.0894 13.0592C47.7945 13.3549 47.5003 13.6514 47.2062 13.9481C46.9058 14.2509 46.6047 14.5531 46.3036 14.8553C45.7135 15.4479 45.1242 16.0413 44.5353 16.6351C44.6458 16.7657 44.7565 16.896 44.8673 17.0263C44.9289 17.0989 44.9906 17.1715 45.0541 17.2463C45.3017 17.5272 45.5725 17.7789 45.8463 18.034C46.495 18.6797 46.7588 19.1834 46.8131 20.0921C46.7278 22.0115 44.2675 23.718 43.0199 24.9662C42.7944 25.1923 42.5689 25.4184 42.3434 25.6445C41.7333 26.2562 41.1228 26.8674 40.5122 27.4785C40.1303 27.8608 39.7485 28.2431 39.3667 28.6254C38.3075 29.686 37.2482 30.7465 36.1885 31.8066C36.0871 31.9081 36.0871 31.9081 35.9836 32.0116C35.9158 32.0794 35.848 32.1472 35.7782 32.2171C35.6409 32.3544 35.5036 32.4918 35.3663 32.6291C35.2641 32.7313 35.2641 32.7313 35.1599 32.8356C34.0557 33.9403 32.9523 35.0457 31.8492 36.1515C30.7141 37.2895 29.5782 38.4267 28.4417 39.5634C27.8047 40.2005 27.168 40.8379 26.532 41.4761C25.9907 42.0192 25.4488 42.5617 24.9061 43.1034C24.6297 43.3793 24.3537 43.6556 24.0782 43.9325C20.7565 47.2709 20.7565 47.2709 18.505 47.3675C17.5302 47.356 16.5808 47.0521 15.7072 46.6351C15.6433 46.7044 15.5794 46.7738 15.5135 46.8452C14.8043 47.5884 13.9907 48.3491 12.9116 48.4126C12.7827 48.4134 12.6539 48.4141 12.5211 48.4149C12.3301 48.4174 12.3301 48.4174 12.1352 48.4199C11.7228 48.3929 11.7228 48.3929 11.2878 48.2219C10.9706 48.142 10.8429 48.1267 10.5533 48.2868C10.2965 48.5092 10.0653 48.7444 9.83314 48.9925C9.74307 49.0839 9.653 49.1753 9.5602 49.2695C9.36501 49.4684 9.1712 49.6686 8.97861 49.87C8.67376 50.1887 8.3655 50.5037 8.0561 50.818C7.45576 51.4292 6.8594 52.0441 6.26379 52.6598C5.4545 53.4962 4.64282 54.3302 3.82694 55.1602C3.52317 55.4709 3.22247 55.7844 2.92182 56.0982C2.7355 56.2887 2.54904 56.479 2.36244 56.6692C2.23821 56.8013 2.23821 56.8013 2.11147 56.936C1.56352 57.4868 1.25377 57.6607 0.472789 57.5335ZM14.3009 45.2289C13.6822 44.6101 13.0634 43.9914 12.4259 43.3539C11.9907 43.5715 11.8273 43.7003 11.525 44.057C11.4545 44.1392 11.3839 44.2213 11.3113 44.306C10.9985 44.7001 10.9715 44.9623 11.0197 45.4632C11.2619 45.9044 11.5006 46.2897 11.9572 46.5179C13.0859 46.6872 13.6271 46.0712 14.3009 45.2289ZM20.9806 44.1742C20.5325 43.6387 20.0691 43.1288 19.5737 42.6368C19.5073 42.5704 19.4409 42.504 19.3725 42.4356C19.156 42.2191 18.939 42.003 18.722 41.7869C18.5706 41.6357 18.4192 41.4845 18.2678 41.3333C17.8716 40.9375 17.4751 40.5421 17.0784 40.1468C16.6729 39.7424 16.2676 39.3377 15.8623 38.933C15.0688 38.1407 14.2748 37.3487 13.4806 36.557C13.3686 36.6478 13.2565 36.7386 13.1411 36.8322C13.0466 36.9088 13.0466 36.9088 12.9501 36.9869C12.4642 37.426 12.2441 38.1152 12.0817 38.7323C12.0626 39.7829 12.4131 40.6676 13.1286 41.44C13.2219 41.5408 13.3153 41.6416 13.4114 41.7455C13.8842 42.2428 14.3603 42.7363 14.8445 43.2225C15.0125 43.3916 15.1791 43.5619 15.3458 43.7322C16.2789 44.6705 17.081 45.3513 18.4318 45.5072C19.5249 45.3979 20.2733 45.0018 20.9806 44.1742ZM44.1814 21.1125C44.2668 21.0199 44.3521 20.9273 44.4401 20.8319C44.5263 20.7408 44.6126 20.6497 44.7015 20.5559C44.9124 20.2875 44.9124 20.2875 44.88 20.0007C44.7289 19.5643 44.4501 19.2988 44.1273 18.9826C44.0604 18.9153 43.9935 18.848 43.9246 18.7786C43.7035 18.5567 43.4809 18.3366 43.2581 18.1164C43.104 17.9626 42.95 17.8087 42.7961 17.6547C42.4735 17.3325 42.1501 17.0111 41.8261 16.6902C41.4105 16.2786 40.9964 15.8654 40.5829 15.4516C40.265 15.1339 39.9466 14.8168 39.628 14.4998C39.4751 14.3477 39.3223 14.1953 39.1696 14.0429C38.9565 13.8302 38.7425 13.6183 38.5283 13.4066C38.4651 13.3433 38.4019 13.28 38.3368 13.2148C38.0599 12.9426 37.8779 12.7753 37.504 12.6507C37.0864 12.8314 36.834 13.0849 36.5469 13.4271C36.4844 13.5011 36.422 13.5751 36.3577 13.6514C36.3106 13.7079 36.2635 13.7644 36.215 13.8226C37.1881 14.8012 38.1619 15.7791 39.1365 16.7562C39.5889 17.21 40.0412 17.6639 40.493 18.1183C40.9286 18.5564 41.3648 18.994 41.8014 19.4313C41.9682 19.5985 42.1348 19.766 42.3012 19.9336C42.5336 20.1677 42.7666 20.401 42.9999 20.6341C43.0692 20.7043 43.1385 20.7744 43.2099 20.8467C43.6572 21.3638 43.6572 21.3638 44.1814 21.1125ZM53.068 10.7684C53.2919 10.4032 53.1818 10.1273 53.09 9.72106C52.8858 9.41258 52.8858 9.41258 52.6037 9.1457C52.4488 8.988 52.4488 8.988 52.2907 8.8271C52.1771 8.71516 52.0634 8.60329 51.9497 8.4915C51.8332 8.37483 51.7168 8.25806 51.6006 8.14117C51.357 7.89715 51.1123 7.65442 50.8667 7.41255C50.5525 7.10305 50.2413 6.79074 49.9309 6.47745C49.6912 6.23609 49.4501 5.99616 49.2086 5.75666C49.0933 5.64205 48.9784 5.52701 48.8639 5.41155C48.7036 5.25027 48.5411 5.09108 48.3786 4.93199C48.2868 4.84104 48.1951 4.75009 48.1005 4.65639C47.7627 4.40801 47.5303 4.34807 47.1134 4.33043C46.8324 4.54288 46.8324 4.54288 46.6447 4.79918C46.7917 5.33611 46.9666 5.64806 47.3608 6.03912C47.4601 6.13882 47.5595 6.23851 47.6619 6.34123C47.7694 6.44672 47.8769 6.55222 47.9877 6.66091C48.0994 6.77194 48.2109 6.88307 48.3223 6.9943C48.5555 7.22657 48.7894 7.45806 49.0239 7.68896C49.3238 7.98426 49.6225 8.28082 49.9207 8.57789C50.2062 8.86216 50.4922 9.14585 50.7783 9.42946C50.9389 9.58876 50.9389 9.58877 51.1027 9.75129C51.2028 9.84988 51.3029 9.94847 51.406 10.05C51.4938 10.1367 51.5816 10.2233 51.672 10.3125C52.279 10.918 52.279 10.918 53.068 10.7684Z" fill="#292929"/>
</g>
<defs>
<clipPath id="clip0_31_230">
<rect width="60" height="60" fill="white"/>
</clipPath>
</defs>
</svg>
