<svg width="60" height="60" viewBox="0 0 60 60" fill="none" xmlns="http://www.w3.org/2000/svg">
<g clip-path="url(#clip0_31_339)">
<path d="M23.8653 -0.0492146C24.0118 -0.0502071 24.1582 -0.0511997 24.3091 -0.0522223C24.7087 -0.0544861 25.1082 -0.0551698 25.5077 -0.0549472C25.8426 -0.0549331 26.1774 -0.0559393 26.5123 -0.0569133C27.3032 -0.0591628 28.0941 -0.0595069 28.885 -0.0587132C29.6977 -0.057936 30.5103 -0.0606113 31.3229 -0.0649609C32.0234 -0.0685724 32.7239 -0.0698879 33.4244 -0.0694331C33.8415 -0.0691922 34.2586 -0.0698114 34.6757 -0.0727018C35.1418 -0.075825 35.6078 -0.0741605 36.0739 -0.0721028C36.2777 -0.0744342 36.2777 -0.0744342 36.4857 -0.0768127C37.8666 -0.0627268 39.0907 0.426795 40.078 1.40624C40.8226 2.32714 41.2652 3.30908 41.264 4.50265C41.2642 4.6917 41.2642 4.6917 41.2645 4.88457C41.2641 5.02163 41.2636 5.15868 41.2632 5.2999C41.2632 5.44514 41.2632 5.59039 41.2633 5.74004C41.2632 6.13732 41.2626 6.53459 41.2618 6.93187C41.2611 7.34742 41.261 7.76298 41.2608 8.17853C41.2605 8.965 41.2595 9.75146 41.2583 10.5379C41.257 11.4335 41.2564 12.329 41.2558 13.2246C41.2546 15.0664 41.2525 16.9082 41.2499 18.75C41.3255 18.7497 41.4011 18.7493 41.4791 18.749C43.3229 18.7412 45.1668 18.7354 47.0106 18.7318C47.9023 18.73 48.794 18.7275 49.6857 18.7235C50.4633 18.72 51.2409 18.7177 52.0185 18.7169C52.4299 18.7165 52.8412 18.7154 53.2526 18.7128C53.7129 18.71 54.1732 18.7099 54.6335 18.7101C54.7684 18.7088 54.9034 18.7076 55.0424 18.7063C56.2708 18.7109 57.2426 18.9671 58.2421 19.6875C58.3629 19.7721 58.4838 19.8567 58.6083 19.9438C59.3609 20.5959 59.9318 21.7222 60.0334 22.7074C60.0472 23.0937 60.0501 23.4788 60.0491 23.8654C60.0501 24.0119 60.0511 24.1583 60.0521 24.3092C60.0544 24.7088 60.0551 25.1083 60.0548 25.5078C60.0548 25.8427 60.0558 26.1775 60.0568 26.5124C60.0591 27.3033 60.0594 28.0942 60.0586 28.8851C60.0578 29.6978 60.0605 30.5104 60.0649 31.323C60.0685 32.0235 60.0698 32.724 60.0693 33.4244C60.0691 33.8416 60.0697 34.2587 60.0726 34.6758C60.0757 35.1419 60.0741 35.6079 60.072 36.0739C60.0743 36.2778 60.0743 36.2778 60.0767 36.4858C60.0626 37.8667 59.5731 39.0908 58.5937 40.0781C57.6727 40.8227 56.6908 41.2653 55.4972 41.2641C55.3712 41.2642 55.2452 41.2644 55.1153 41.2646C54.9783 41.2642 54.8412 41.2637 54.7 41.2633C54.4821 41.2633 54.4821 41.2633 54.2599 41.2633C53.8626 41.2633 53.4653 41.2627 53.068 41.2619C52.6525 41.2611 52.2369 41.2611 51.8214 41.2609C51.0349 41.2606 50.2484 41.2596 49.462 41.2584C48.5664 41.2571 47.6709 41.2565 46.7753 41.2559C44.9335 41.2547 43.0917 41.2526 41.2499 41.25C41.2502 41.3256 41.2506 41.4012 41.2509 41.4792C41.2587 43.323 41.2645 45.1668 41.2681 47.0107C41.2699 47.9024 41.2724 48.7941 41.2764 49.6858C41.2799 50.4634 41.2822 51.241 41.283 52.0186C41.2834 52.43 41.2845 52.8413 41.2871 53.2527C41.2899 53.713 41.29 54.1733 41.2898 54.6336C41.2917 54.836 41.2917 54.836 41.2936 55.0425C41.289 56.2709 41.0328 57.2427 40.3124 58.2422C40.1855 58.4235 40.1855 58.4235 40.0561 58.6084C39.404 59.3609 38.2777 59.9319 37.2925 60.0334C36.9062 60.0473 36.5211 60.0502 36.1345 60.0492C35.988 60.0502 35.8416 60.0512 35.6907 60.0522C35.2911 60.0545 34.8916 60.0552 34.4921 60.0549C34.1572 60.0549 33.8224 60.0559 33.4875 60.0569C32.6966 60.0591 31.9057 60.0595 31.1148 60.0587C30.3021 60.0579 29.4895 60.0606 28.6769 60.0649C27.9764 60.0686 27.2759 60.0699 26.5754 60.0694C26.1583 60.0692 25.7412 60.0698 25.3241 60.0727C24.858 60.0758 24.392 60.0741 23.9259 60.0721C23.7221 60.0744 23.7221 60.0744 23.5141 60.0768C22.1332 60.0627 20.9091 59.5732 19.9218 58.5937C19.1772 57.6728 18.7346 56.6909 18.7358 55.4973C18.7356 55.3083 18.7356 55.3083 18.7353 55.1154C18.7357 54.9784 18.7362 54.8413 18.7366 54.7001C18.7366 54.5548 18.7366 54.4096 18.7365 54.2599C18.7366 53.8627 18.7372 53.4654 18.738 53.0681C18.7388 52.6526 18.7388 52.237 18.739 51.8215C18.7393 51.035 18.7403 50.2485 18.7415 49.4621C18.7428 48.5665 18.7434 47.671 18.744 46.7754C18.7452 44.9336 18.7473 43.0918 18.7499 41.25C18.6743 41.2503 18.5987 41.2506 18.5207 41.251C16.6769 41.2588 14.833 41.2646 12.9892 41.2682C12.0975 41.27 11.2058 41.2725 10.3141 41.2765C9.53652 41.28 8.75892 41.2823 7.98132 41.2831C7.56994 41.2835 7.15859 41.2846 6.74723 41.2872C6.28692 41.29 5.82664 41.2901 5.36632 41.2899C5.1639 41.2918 5.1639 41.2918 4.95738 41.2937C3.72899 41.2891 2.75718 41.0329 1.75772 40.3125C1.57644 40.1856 1.57644 40.1856 1.3915 40.0561C0.638949 39.4041 0.0680094 38.2778 -0.0335598 37.2926C-0.0473633 36.9062 -0.0502762 36.5212 -0.0493062 36.1346C-0.0502987 35.9881 -0.0512912 35.8417 -0.0523138 35.6908C-0.0545777 35.2912 -0.0552615 34.8917 -0.0550389 34.4922C-0.0550248 34.1573 -0.0560301 33.8225 -0.0570041 33.4876C-0.0592537 32.6967 -0.0595985 31.9058 -0.0588048 31.1149C-0.0580276 30.3022 -0.0607029 29.4896 -0.0650525 28.677C-0.068664 27.9765 -0.0699794 27.276 -0.0695246 26.5755C-0.0692837 26.1584 -0.0699029 25.7413 -0.0727934 25.3242C-0.0759165 24.8581 -0.074252 24.3921 -0.0721943 23.926C-0.0737486 23.7901 -0.0753029 23.6542 -0.0769043 23.5142C-0.0628183 22.1333 0.426703 20.9092 1.40615 19.9219C2.32705 19.1773 3.30899 18.7347 4.50256 18.7359C4.62859 18.7357 4.75463 18.7356 4.88448 18.7354C5.02153 18.7358 5.15859 18.7363 5.29981 18.7367C5.51767 18.7367 5.51767 18.7367 5.73995 18.7366C6.13722 18.7367 6.5345 18.7373 6.93177 18.7381C7.34733 18.7388 7.76289 18.7389 8.17844 18.7391C8.96491 18.7394 9.75137 18.7404 10.5378 18.7416C11.4334 18.7429 12.3289 18.7435 13.2245 18.7441C15.0663 18.7453 16.9081 18.7474 18.7499 18.75C18.7496 18.6744 18.7493 18.5987 18.7489 18.5208C18.7411 16.677 18.7353 14.8331 18.7317 12.9893C18.7299 12.0976 18.7274 11.2059 18.7234 10.3142C18.7199 9.53661 18.7176 8.75902 18.7168 7.98141C18.7164 7.57004 18.7153 7.15869 18.7127 6.74732C18.7099 6.28701 18.7098 5.82673 18.71 5.36642C18.7087 5.23146 18.7075 5.09651 18.7062 4.95747C18.7108 3.72908 18.967 2.75727 19.6874 1.75781C19.772 1.63696 19.8566 1.51611 19.9437 1.3916C20.953 0.226878 22.4118 -0.0528617 23.8653 -0.0492146ZM21.1522 2.92968C20.7669 3.4853 20.5959 3.97898 20.5931 4.65673C20.5913 4.85807 20.5913 4.85807 20.5896 5.06348C20.5895 5.20966 20.5895 5.35585 20.5894 5.50646C20.5885 5.66281 20.5875 5.81915 20.5864 5.97549C20.5843 6.31151 20.5828 6.64753 20.582 6.98355C20.5807 7.51489 20.5777 8.0462 20.5745 8.57753C20.5696 9.4178 20.5658 10.2581 20.5625 11.0983C20.5565 12.6035 20.5492 14.1087 20.5407 15.6139C20.5378 16.1421 20.5355 16.6703 20.5338 17.1985C20.5329 17.4478 20.5317 17.6972 20.5304 17.9465C20.5289 18.2506 20.5278 18.5546 20.5271 18.8586C20.5263 18.9925 20.5255 19.1264 20.5247 19.2644C20.5242 19.3807 20.5238 19.4971 20.5233 19.6169C20.5092 19.8927 20.469 20.1268 20.3905 20.3906C20.0092 20.5043 19.6654 20.5224 19.2682 20.5224C19.1352 20.5227 19.0021 20.523 18.8651 20.5233C18.7196 20.5231 18.5741 20.5228 18.4241 20.5226C18.1883 20.5229 17.9525 20.5232 17.7166 20.5236C17.4632 20.5239 17.2099 20.524 16.9565 20.524C16.4274 20.5241 15.8984 20.5256 15.3693 20.5275C15.2352 20.5279 15.2352 20.5279 15.0984 20.5284C14.9156 20.529 14.7328 20.5296 14.55 20.5302C13.3187 20.5343 12.0875 20.5375 10.8562 20.5372C10.0252 20.537 9.19418 20.5389 8.36319 20.5431C7.92391 20.5453 7.48469 20.5464 7.04541 20.5449C6.63158 20.5436 6.21784 20.545 5.80402 20.5484C5.58145 20.5495 5.35886 20.5478 5.13629 20.546C4.24753 20.5566 3.54747 20.6875 2.8124 21.2109C2.22171 21.8348 1.84731 22.4738 1.84278 23.3486C1.84161 23.47 1.84044 23.5914 1.83923 23.7164C1.83916 23.8484 1.83908 23.9803 1.839 24.1162C1.83802 24.2561 1.83705 24.3961 1.83604 24.5403C1.8337 24.9233 1.83244 25.3064 1.83184 25.6895C1.83142 25.9293 1.83068 26.1691 1.82985 26.4089C1.82698 27.2468 1.82545 28.0847 1.82504 28.9226C1.82461 29.7014 1.82111 30.4801 1.8162 31.2589C1.81212 31.9292 1.81032 32.5995 1.81024 33.2698C1.81015 33.6694 1.80914 34.0689 1.80579 34.4685C1.80263 34.915 1.8032 35.3614 1.80467 35.808C1.80293 35.9387 1.80119 36.0694 1.7994 36.2041C1.80736 37.0603 1.96446 37.7278 2.46084 38.4375C3.10841 39.0519 3.75156 39.403 4.65663 39.4068C4.79086 39.408 4.92509 39.4091 5.06339 39.4103C5.20957 39.4104 5.35576 39.4104 5.50637 39.4105C5.66272 39.4114 5.81906 39.4124 5.9754 39.4135C6.31142 39.4156 6.64744 39.417 6.98346 39.4179C7.51479 39.4192 8.04611 39.4222 8.57743 39.4254C9.41771 39.4303 10.258 39.4341 11.0983 39.4374C12.6034 39.4434 14.1086 39.4507 15.6138 39.4592C16.142 39.4621 16.6702 39.4644 17.1984 39.4661C17.4477 39.467 17.6971 39.4682 17.9464 39.4695C18.2505 39.471 18.5545 39.4721 18.8585 39.4728C18.9924 39.4736 19.1263 39.4744 19.2643 39.4752C19.3806 39.4757 19.497 39.4761 19.6168 39.4766C19.8926 39.4907 20.1268 39.5309 20.3905 39.6094C20.5042 39.9907 20.5223 40.3345 20.5223 40.7316C20.5226 40.8647 20.5229 40.9978 20.5232 41.1348C20.523 41.2803 20.5227 41.4258 20.5225 41.5757C20.5228 41.8116 20.5232 42.0474 20.5235 42.2833C20.5238 42.5367 20.5239 42.79 20.5239 43.0434C20.524 43.5725 20.5255 44.1015 20.5274 44.6306C20.5277 44.72 20.528 44.8094 20.5283 44.9015C20.5289 45.0843 20.5295 45.2671 20.5301 45.4499C20.5342 46.6811 20.5374 47.9124 20.5371 49.1437C20.5369 49.9747 20.5388 50.8057 20.543 51.6367C20.5452 52.076 20.5463 52.5152 20.5448 52.9545C20.5435 53.3683 20.5449 53.7821 20.5483 54.1959C20.5494 54.4184 20.5477 54.641 20.5459 54.8636C20.5565 55.7524 20.6874 56.4524 21.2108 57.1875C21.8347 57.7782 22.4737 58.1526 23.3485 58.1571C23.5306 58.1589 23.5306 58.1589 23.7163 58.1607C23.8483 58.1607 23.9802 58.1608 24.1161 58.1609C24.326 58.1624 24.326 58.1624 24.5402 58.1639C24.9232 58.1662 25.3063 58.1675 25.6894 58.168C25.9292 58.1685 26.169 58.1692 26.4088 58.17C27.2467 58.1729 28.0846 58.1744 28.9225 58.1749C29.7013 58.1753 30.48 58.1788 31.2588 58.1837C31.9291 58.1878 32.5994 58.1896 33.2697 58.1897C33.6693 58.1897 34.0688 58.1908 34.4684 58.1941C34.9149 58.1973 35.3613 58.1967 35.8079 58.1952C35.9386 58.197 36.0694 58.1987 36.2041 58.2005C37.0602 58.1925 37.7278 58.0354 38.4374 57.5391C39.0518 56.8915 39.4029 56.2483 39.4067 55.3433C39.4079 55.209 39.409 55.0748 39.4102 54.9365C39.4103 54.7903 39.4103 54.6441 39.4104 54.4935C39.4113 54.3372 39.4123 54.1808 39.4134 54.0245C39.4155 53.6885 39.417 53.3525 39.4178 53.0164C39.4191 52.4851 39.4221 51.9538 39.4253 51.4225C39.4302 50.5822 39.434 49.7419 39.4373 48.9016C39.4433 47.3965 39.4506 45.8913 39.4591 44.3861C39.462 43.8579 39.4643 43.3297 39.466 42.8015C39.4669 42.5521 39.4681 42.3028 39.4694 42.0535C39.4709 41.7494 39.472 41.4454 39.4727 41.1413C39.4735 41.0074 39.4743 40.8736 39.4751 40.7356C39.4756 40.6193 39.476 40.5029 39.4765 40.3831C39.4906 40.1073 39.5308 39.8731 39.6093 39.6094C39.9906 39.4957 40.3344 39.4776 40.7316 39.4776C40.9311 39.4771 40.9311 39.4771 41.1347 39.4767C41.2802 39.4769 41.4257 39.4772 41.5757 39.4774C41.8115 39.4771 42.0473 39.4767 42.2832 39.4764C42.5366 39.4761 42.7899 39.476 43.0433 39.476C43.5724 39.4759 44.1014 39.4744 44.6305 39.4725C44.7199 39.4722 44.8093 39.4719 44.9014 39.4716C45.0842 39.471 45.267 39.4704 45.4498 39.4698C46.6811 39.4657 47.9123 39.4625 49.1436 39.4628C49.9746 39.463 50.8056 39.4611 51.6366 39.4569C52.0759 39.4547 52.5151 39.4536 52.9544 39.4551C53.3682 39.4564 53.782 39.455 54.1958 39.4516C54.4184 39.4505 54.6409 39.4522 54.8635 39.454C55.7523 39.4434 56.4523 39.3125 57.1874 38.7891C57.7781 38.1651 58.1525 37.5262 58.157 36.6514C58.1588 36.4693 58.1588 36.4693 58.1606 36.2836C58.1606 36.1516 58.1607 36.0197 58.1608 35.8838C58.1618 35.7438 58.1628 35.6039 58.1638 35.4597C58.1661 35.0767 58.1674 34.6936 58.168 34.3105C58.1684 34.0707 58.1691 33.8309 58.17 33.5911C58.1728 32.7532 58.1744 31.9153 58.1748 31.0774C58.1752 30.2986 58.1787 29.5199 58.1836 28.7411C58.1877 28.0708 58.1895 27.4005 58.1896 26.7302C58.1897 26.3306 58.1907 25.9311 58.194 25.5315C58.1972 25.085 58.1966 24.6386 58.1951 24.192C58.1969 24.0613 58.1986 23.9305 58.2004 23.7958C58.1924 22.9397 58.0353 22.2721 57.539 21.5625C56.8914 20.9481 56.2482 20.597 55.3432 20.5931C55.1418 20.5914 55.1418 20.5914 54.9364 20.5897C54.7902 20.5896 54.644 20.5896 54.4934 20.5895C54.3371 20.5886 54.1807 20.5876 54.0244 20.5865C53.6884 20.5844 53.3524 20.5829 53.0163 20.5821C52.485 20.5807 51.9537 20.5778 51.4224 20.5746C50.5821 20.5697 49.7418 20.5659 48.9015 20.5625C47.3964 20.5566 45.8912 20.5493 44.386 20.5408C43.8578 20.5379 43.3296 20.5356 42.8014 20.5339C42.5521 20.533 42.3027 20.5318 42.0534 20.5305C41.7493 20.529 41.4453 20.5279 41.1413 20.5272C41.0074 20.5264 40.8735 20.5256 40.7355 20.5248C40.6192 20.5243 40.5028 20.5239 40.383 20.5234C40.1072 20.5093 39.873 20.4691 39.6093 20.3906C39.4956 20.0093 39.4775 19.6655 39.4775 19.2683C39.4772 19.1353 39.4769 19.0022 39.4766 18.8651C39.4768 18.7196 39.4771 18.5741 39.4773 18.4242C39.477 18.1884 39.4767 17.9526 39.4763 17.7167C39.476 17.4633 39.4759 17.2099 39.4759 16.9566C39.4758 16.4275 39.4743 15.8985 39.4724 15.3694C39.4721 15.28 39.4718 15.1906 39.4715 15.0985C39.4709 14.9157 39.4703 14.7329 39.4697 14.5501C39.4656 13.3188 39.4624 12.0876 39.4627 10.8563C39.4629 10.0253 39.461 9.19428 39.4568 8.36328C39.4546 7.924 39.4535 7.48478 39.455 7.0455C39.4563 6.63167 39.4549 6.21794 39.4515 5.80412C39.4504 5.58154 39.4521 5.35895 39.4539 5.13638C39.4433 4.24762 39.3124 3.54756 38.789 2.81249C38.1651 2.2218 37.5261 1.8474 36.6513 1.84287C36.5299 1.8417 36.4085 1.84053 36.2835 1.83933C36.1515 1.83925 36.0196 1.83917 35.8837 1.83909C35.6738 1.83763 35.6738 1.83763 35.4596 1.83613C35.0766 1.8338 34.6935 1.83253 34.3104 1.83193C34.0706 1.83151 33.8308 1.83078 33.591 1.82994C32.7531 1.82707 31.9152 1.82554 31.0773 1.82513C30.2985 1.8247 29.5198 1.8212 28.741 1.81629C28.0707 1.81221 27.4004 1.81041 26.7301 1.81033C26.3305 1.81024 25.931 1.80923 25.5314 1.80588C25.0849 1.80272 24.6385 1.80329 24.1919 1.80476C24.0612 1.80302 23.9305 1.80128 23.7957 1.79949C22.723 1.80947 21.8397 2.0677 21.1522 2.92968Z" fill="#292929"/>
<path d="M5.11442 22.4393C5.20403 22.4385 5.29364 22.4377 5.38597 22.4368C5.68177 22.4348 5.97744 22.4362 6.27324 22.4377C6.47901 22.4374 6.68478 22.437 6.89055 22.4364C7.32165 22.4357 7.75269 22.4367 8.18378 22.4389C8.73629 22.4416 9.28869 22.44 9.8412 22.4372C10.2661 22.4355 10.6909 22.4361 11.1157 22.4373C11.3194 22.4376 11.5232 22.4372 11.7269 22.4361C12.0116 22.4349 12.2962 22.4367 12.581 22.4393C12.7072 22.4379 12.7072 22.4379 12.836 22.4365C13.2343 22.4432 13.4418 22.473 13.7606 22.7203C13.9788 23.0136 14.0447 23.1897 14.0626 23.5547C13.9771 23.8887 13.9216 24.0776 13.6319 24.2731C13.2749 24.4066 12.9774 24.4031 12.5962 24.4016C12.5195 24.4016 12.4428 24.4017 12.3637 24.4017C12.1164 24.4015 11.8691 24.3997 11.6218 24.3979C11.4702 24.3976 11.3186 24.3974 11.1624 24.3972C10.5959 24.3959 10.0294 24.3927 9.46294 24.3896C8.19644 24.3848 6.92993 24.38 5.62505 24.375C5.62505 28.0875 5.62505 31.8 5.62505 35.625C6.65771 35.6209 7.69037 35.6168 8.75432 35.6126C9.49362 35.6106 10.2329 35.6088 10.9722 35.6073C11.9287 35.6054 12.8853 35.6029 13.8418 35.5985C14.5994 35.5949 15.357 35.5927 16.1146 35.5919C16.5152 35.5915 16.9159 35.5904 17.3165 35.5878C17.7653 35.5853 18.214 35.5849 18.6627 35.5851C18.859 35.5832 18.859 35.5832 19.0592 35.5812C20.5479 35.587 21.8625 35.9074 22.9949 36.9104C24.2044 38.1583 24.3936 39.5963 24.3884 41.2575C24.3884 41.3993 24.3884 41.5412 24.3884 41.6873C24.3883 42.0746 24.3878 42.462 24.3869 42.8493C24.3862 43.2547 24.3861 43.6601 24.386 44.0655C24.3856 44.8324 24.3847 45.5994 24.3835 46.3663C24.3821 47.3255 24.3814 48.2847 24.3808 49.2439C24.3796 50.9543 24.3773 52.6646 24.3751 54.375C28.0875 54.375 31.8001 54.375 35.6251 54.375C35.621 53.3423 35.6169 52.3097 35.6127 51.2457C35.6107 50.5064 35.6089 49.7671 35.6074 49.0278C35.6054 48.0713 35.603 47.1148 35.5985 46.1582C35.595 45.4006 35.5928 44.643 35.592 43.8854C35.5915 43.4848 35.5905 43.0842 35.5879 42.6836C35.5853 42.2348 35.585 41.7861 35.5851 41.3373C35.5832 41.1411 35.5832 41.1411 35.5813 40.9409C35.5871 39.4521 35.9074 38.1375 36.9105 37.0051C38.1584 35.7957 39.5963 35.6064 41.2575 35.6117C41.3994 35.6117 41.5412 35.6117 41.6873 35.6116C42.0747 35.6117 42.462 35.6123 42.8494 35.6131C43.2548 35.6138 43.6602 35.6139 44.0655 35.614C44.8325 35.6144 45.5995 35.6154 46.3664 35.6166C47.3256 35.618 48.2848 35.6186 49.244 35.6193C50.9543 35.6204 52.6647 35.6228 54.3751 35.625C54.3751 31.9125 54.3751 28.2 54.3751 24.375C53.9883 24.375 53.6016 24.375 53.2032 24.375C52.7344 24.1406 52.7344 24.1406 52.5733 23.7524C52.4963 23.2982 52.5008 23.1238 52.7344 22.7344C53.2688 22.3781 53.7976 22.4568 54.4263 22.456C54.5494 22.4532 54.6724 22.4503 54.7992 22.4473C54.9177 22.4469 55.0362 22.4464 55.1583 22.446C55.2665 22.445 55.3747 22.444 55.4862 22.4431C55.8769 22.5184 55.9998 22.664 56.2501 22.9687C56.309 23.2447 56.309 23.2447 56.3096 23.5558C56.3116 23.7333 56.3116 23.7333 56.3136 23.9143C56.3122 24.1079 56.3122 24.1079 56.3107 24.3054C56.3119 24.5101 56.3119 24.5101 56.3132 24.719C56.3153 25.1707 56.3139 25.6224 56.3123 26.0742C56.3126 26.3877 56.3131 26.7012 56.3137 27.0147C56.3145 27.672 56.3134 28.3292 56.3112 28.9865C56.3086 29.7462 56.3094 30.5058 56.312 31.2655C56.3141 31.918 56.3144 32.5704 56.3132 33.2229C56.3125 33.6125 56.3126 34.0021 56.3139 34.3917C56.3151 34.826 56.3133 35.2602 56.3107 35.6946C56.3117 35.8236 56.3126 35.9527 56.3136 36.0857C56.3123 36.204 56.3109 36.3223 56.3096 36.4442C56.3093 36.5981 56.3093 36.5981 56.309 36.7553C56.2281 37.134 56.0901 37.2708 55.7813 37.5C55.4795 37.5585 55.4795 37.5585 55.1314 37.5584C54.9992 37.5596 54.867 37.5607 54.7307 37.5618C54.5861 37.5607 54.4415 37.5596 54.2926 37.5584C54.1399 37.559 53.9872 37.5597 53.8299 37.5603C53.498 37.5617 53.1661 37.5617 52.8341 37.5605C52.3085 37.5587 51.783 37.5603 51.2574 37.5624C50.2357 37.566 49.214 37.5662 48.1923 37.5659C46.894 37.5658 45.5957 37.567 44.2973 37.5716C43.7757 37.5734 43.254 37.5734 42.7323 37.5719C42.4853 37.5715 42.2383 37.5719 41.9913 37.5726C41.6912 37.5735 41.3911 37.5731 41.091 37.5712C40.1174 37.577 39.3392 37.6828 38.5181 38.2251C37.8599 38.9139 37.6031 39.6729 37.6019 40.6147C37.6014 40.7478 37.6009 40.8809 37.6004 41.018C37.6005 41.1635 37.6006 41.309 37.6006 41.459C37.6 41.6948 37.5994 41.9306 37.5987 42.1664C37.5981 42.4196 37.5978 42.6728 37.5975 42.926C37.5968 43.4539 37.5948 43.9818 37.5926 44.5096C37.5919 44.6904 37.5911 44.8712 37.5904 45.052C37.59 45.1425 37.5897 45.233 37.5893 45.3263C37.5843 46.555 37.5805 47.7837 37.579 49.0125C37.5781 49.8417 37.5754 50.6708 37.5709 51.5C37.5686 51.9387 37.5671 52.3774 37.5677 52.8161C37.5684 53.3052 37.5654 53.7942 37.5622 54.2832C37.5629 54.4287 37.5637 54.5742 37.5645 54.7241C37.563 54.8572 37.5616 54.9903 37.5601 55.1274C37.5597 55.3009 37.5597 55.3009 37.5592 55.4778C37.4819 55.8743 37.3542 56.0118 37.0313 56.25C36.7553 56.309 36.7553 56.309 36.4442 56.3095C36.2668 56.3115 36.2668 56.3115 36.0858 56.3135C35.9567 56.3126 35.8276 56.3116 35.6946 56.3106C35.5582 56.3115 35.4217 56.3123 35.2811 56.3131C34.8293 56.3152 34.3776 56.3138 33.9258 56.3122C33.6123 56.3126 33.2988 56.313 32.9854 56.3136C32.3281 56.3145 31.6708 56.3133 31.0135 56.3111C30.2539 56.3085 29.4942 56.3094 28.7346 56.312C28.0821 56.3141 27.4296 56.3144 26.7771 56.3132C26.3875 56.3124 25.998 56.3125 25.6084 56.3139C25.174 56.3151 24.7398 56.3133 24.3055 56.3106C24.1764 56.3116 24.0473 56.3125 23.9143 56.3135C23.796 56.3122 23.6778 56.3109 23.5559 56.3095C23.4532 56.3093 23.3506 56.3092 23.2448 56.309C22.8661 56.228 22.7293 56.0901 22.5001 55.7812C22.4415 55.4794 22.4415 55.4794 22.4416 55.1314C22.4405 54.9991 22.4394 54.8669 22.4382 54.7307C22.4393 54.5861 22.4405 54.4415 22.4417 54.2925C22.4407 54.0635 22.4407 54.0635 22.4397 53.8298C22.4383 53.4979 22.4384 53.166 22.4395 52.8341C22.4414 52.3085 22.4398 51.7829 22.4377 51.2574C22.434 50.2357 22.4339 49.214 22.4341 48.1923C22.4343 46.8939 22.433 45.5956 22.4284 44.2973C22.4267 43.7756 22.4267 43.254 22.4281 42.7323C22.4285 42.4853 22.4282 42.2383 22.4274 41.9913C22.4266 41.6911 22.4269 41.391 22.4288 41.0909C22.4231 40.1173 22.3172 39.3392 21.775 38.5181C21.0861 37.8599 20.3272 37.603 19.3853 37.6018C19.2522 37.6013 19.1191 37.6009 18.982 37.6004C18.7638 37.6005 18.7638 37.6005 18.5411 37.6006C18.3053 37.5999 18.0695 37.5993 17.8337 37.5987C17.5805 37.598 17.3272 37.5977 17.074 37.5974C16.5461 37.5967 16.0183 37.5948 15.4904 37.5926C15.3096 37.5918 15.1288 37.5911 14.9481 37.5903C14.8575 37.59 14.767 37.5896 14.6737 37.5892C13.445 37.5843 12.2163 37.5804 10.9876 37.579C10.1584 37.578 9.32921 37.5754 8.50003 37.5709C8.06131 37.5685 7.62262 37.5671 7.18389 37.5677C6.69484 37.5683 6.20587 37.5654 5.71683 37.5621C5.57132 37.5629 5.42581 37.5637 5.27589 37.5644C5.14281 37.563 5.00973 37.5615 4.87262 37.56C4.75699 37.5597 4.64137 37.5595 4.52224 37.5592C4.12569 37.4818 3.98826 37.3541 3.75005 37.0312C3.69106 36.7553 3.69106 36.7553 3.69053 36.4442C3.68855 36.2667 3.68855 36.2667 3.68652 36.0857C3.68795 35.8921 3.68795 35.8921 3.6894 35.6946C3.68858 35.5581 3.68776 35.4216 3.68691 35.281C3.68484 34.8292 3.68621 34.3775 3.6878 33.9258C3.68748 33.6123 3.68703 33.2988 3.68644 32.9853C3.68558 32.328 3.68671 31.6708 3.68894 31.0135C3.69149 30.2538 3.69067 29.4942 3.68808 28.7345C3.68596 28.082 3.68566 27.4295 3.68688 26.7771C3.68761 26.3875 3.68753 25.9979 3.68616 25.6083C3.68498 25.174 3.68678 24.7397 3.6894 24.3054C3.68845 24.1763 3.6875 24.0473 3.68652 23.9143C3.68784 23.796 3.68917 23.6777 3.69053 23.5558C3.69071 23.4532 3.69088 23.3505 3.69106 23.2447C3.85428 22.4811 4.44275 22.4318 5.11442 22.4393Z" fill="#292929"/>
<path d="M23.7889 3.68749C23.8706 3.68648 23.9522 3.68547 24.0362 3.68443C24.3054 3.68177 24.5744 3.68256 24.8436 3.68363C25.031 3.68301 25.2184 3.68228 25.4058 3.68143C25.7982 3.68021 26.1907 3.68074 26.5831 3.68245C27.086 3.68447 27.5887 3.68171 28.0916 3.67759C28.4784 3.67502 28.8653 3.67519 29.2521 3.67616C29.4375 3.67625 29.6229 3.67545 29.8083 3.67372C30.0676 3.67168 30.3266 3.67338 30.5858 3.67605C30.7333 3.67616 30.8807 3.67627 31.0326 3.67639C31.4061 3.75 31.4061 3.75 31.6922 4.02104C31.8749 4.33594 31.8749 4.33594 31.8676 4.76075C31.7205 5.29018 31.7205 5.29018 31.4061 5.50782C31.0395 5.63002 30.786 5.63916 30.4015 5.63831C30.2678 5.6383 30.1341 5.63829 29.9963 5.63828C29.852 5.63768 29.7077 5.63707 29.5591 5.63645C29.4113 5.63628 29.2635 5.63612 29.1113 5.63594C28.7188 5.6354 28.3264 5.63435 27.934 5.63305C27.5334 5.63185 27.1327 5.63132 26.7321 5.63073C25.9464 5.62943 25.1606 5.62747 24.3749 5.625C24.3752 5.6986 24.3755 5.77219 24.3759 5.84801C24.3836 7.64403 24.3895 9.44004 24.3931 11.2361C24.3949 12.1046 24.3974 12.9732 24.4014 13.8417C24.4049 14.5993 24.4072 15.3569 24.408 16.1146C24.4084 16.5152 24.4095 16.9158 24.412 17.3164C24.4146 17.7652 24.415 18.2139 24.4148 18.6627C24.4161 18.7935 24.4173 18.9243 24.4186 19.0591C24.4128 20.5479 24.0925 21.8625 23.0895 22.9948C21.8055 24.2393 20.29 24.4015 18.5832 24.416C18.4158 24.418 18.2484 24.4212 18.081 24.4256C17.8374 24.4321 17.5941 24.4346 17.3505 24.4363C17.2058 24.4387 17.0612 24.441 16.9122 24.4434C16.4146 24.3559 16.244 24.1829 15.9374 23.7891C15.8715 23.3716 15.8715 23.3716 15.9374 22.9688C16.1984 22.614 16.3366 22.511 16.7761 22.4416C16.9906 22.4413 16.9906 22.4413 17.2095 22.4409C17.3257 22.4393 17.3257 22.4393 17.4443 22.4376C17.6915 22.4343 17.9386 22.4339 18.1859 22.4341C19.9173 22.4432 19.9173 22.4432 21.4818 21.7749C22.14 21.0861 22.3969 20.3271 22.3981 19.3852C22.3985 19.2522 22.399 19.1191 22.3995 18.982C22.3994 18.7637 22.3994 18.7637 22.3993 18.541C22.3999 18.3052 22.4006 18.0694 22.4012 17.8336C22.4018 17.5804 22.4022 17.3272 22.4025 17.074C22.4031 16.5461 22.4051 16.0182 22.4073 15.4904C22.408 15.3096 22.4088 15.1288 22.4095 14.948C22.4099 14.8575 22.4103 14.767 22.4106 14.6737C22.4156 13.445 22.4194 12.2163 22.4209 10.9875C22.4219 10.1583 22.4245 9.32916 22.429 8.49998C22.4313 8.06126 22.4328 7.62257 22.4322 7.18384C22.4316 6.69479 22.4345 6.20583 22.4378 5.71678C22.4366 5.49852 22.4366 5.49852 22.4354 5.27585C22.4376 5.07622 22.4376 5.07622 22.4398 4.87257C22.4401 4.75694 22.4404 4.64132 22.4407 4.52219C22.588 3.76692 23.1057 3.69086 23.7889 3.68749Z" fill="#292929"/>
<path d="M35.6177 3.69873C35.8107 3.69522 35.8107 3.69522 36.0075 3.69163C36.1313 3.69171 36.2551 3.69178 36.3827 3.69186C36.4958 3.69164 36.6089 3.69143 36.7255 3.6912C37.1253 3.76808 37.2463 3.90425 37.5001 4.21875C37.5586 4.52055 37.5586 4.52055 37.5585 4.86862C37.5596 5.00085 37.5608 5.13309 37.5619 5.26933C37.5608 5.41392 37.5596 5.55851 37.5585 5.70748C37.5591 5.86016 37.5597 6.01284 37.5604 6.17014C37.5618 6.50209 37.5618 6.83398 37.5606 7.16593C37.5588 7.69151 37.5604 8.21705 37.5625 8.74263C37.5661 9.76433 37.5662 10.786 37.566 11.8077C37.5659 13.106 37.5671 14.4044 37.5717 15.7027C37.5735 16.2244 37.5734 16.746 37.572 17.2677C37.5716 17.5147 37.572 17.7617 37.5727 18.0087C37.5735 18.3088 37.5732 18.609 37.5713 18.9091C37.577 19.8827 37.6829 20.6608 38.2252 21.4819C39.0411 22.2616 39.8951 22.3978 40.9901 22.4034C41.1947 22.4061 41.3993 22.409 41.6039 22.4119C41.9256 22.416 42.2473 22.4194 42.569 22.421C42.8802 22.4228 43.1912 22.4275 43.5023 22.4327C43.5983 22.4325 43.6944 22.4323 43.7934 22.432C44.2342 22.4415 44.4613 22.4493 44.8259 22.7134C45.0856 23.0942 45.0711 23.339 45.0001 23.7891C44.7687 24.1 44.5835 24.334 44.1942 24.4282C43.9299 24.4487 43.6717 24.4501 43.4066 24.4446C43.3093 24.4446 43.212 24.4446 43.1118 24.4446C42.906 24.444 42.7003 24.4419 42.4945 24.4385C42.1841 24.4336 41.8739 24.4337 41.5634 24.4345C39.8575 24.4282 38.3331 24.2657 37.0052 23.0896C35.7957 21.8417 35.6065 20.4037 35.6118 18.7425C35.6117 18.5297 35.6117 18.5297 35.6117 18.3127C35.6118 17.9254 35.6124 17.538 35.6132 17.1507C35.6139 16.7453 35.614 16.3399 35.6141 15.9345C35.6145 15.1675 35.6154 14.4006 35.6166 13.6336C35.6179 12.7602 35.6186 11.8867 35.6192 11.0133C35.6204 9.21719 35.6224 7.42109 35.6251 5.625C35.5529 5.62678 35.4808 5.62857 35.4064 5.6304C35.3117 5.63179 35.2169 5.63318 35.1192 5.63461C35.0253 5.63639 34.9314 5.63818 34.8347 5.64002C34.4716 5.61938 34.2634 5.50165 33.9844 5.27343C33.7501 4.92187 33.7501 4.92187 33.772 4.51172C34.0041 3.51225 34.7449 3.69311 35.6177 3.69873Z" fill="#292929"/>
<path d="M48.0798 22.4377C48.1978 22.4371 48.3157 22.4365 48.4373 22.4359C48.6211 22.4386 48.6211 22.4386 48.8085 22.4414C48.931 22.4396 49.0536 22.4378 49.1798 22.4359C49.2978 22.4365 49.4157 22.4371 49.5373 22.4377C49.6985 22.4385 49.6985 22.4385 49.863 22.4393C50.2424 22.5178 50.3834 22.6725 50.6249 22.9687C50.6913 23.2031 50.6913 23.2031 50.6909 23.4375C50.6934 23.5148 50.696 23.5922 50.6986 23.6719C50.575 24.0651 50.3957 24.1726 50.039 24.375C49.6248 24.437 49.2191 24.4298 48.8012 24.4189C48.6904 24.4188 48.5796 24.4186 48.4654 24.4185C47.5311 24.4066 47.5311 24.4066 47.1093 24.1406C46.9287 23.8224 46.8717 23.6203 46.8896 23.2544C47.1066 22.6499 47.4541 22.4408 48.0798 22.4377Z" fill="#292929"/>
</g>
<defs>
<clipPath id="clip0_31_339">
<rect width="60" height="60" fill="white"/>
</clipPath>
</defs>
</svg>
