<svg width="22" height="19" viewBox="0 0 22 19" fill="none" xmlns="http://www.w3.org/2000/svg">
<path d="M21.3346 0.597122C21.2441 0.519 21.1341 0.467057 21.0163 0.446901C20.8985 0.426745 20.7774 0.439139 20.6661 0.482747L1.66676 7.91806C1.43567 8.00848 1.24015 8.17144 1.10957 8.38246C0.978988 8.59348 0.920392 8.84116 0.942583 9.08832C0.964773 9.33548 1.06655 9.56877 1.23263 9.75315C1.39871 9.93754 1.62013 10.0631 1.86364 10.1109L6.93739 11.1074V16.7502C6.93749 17.0118 7.01577 17.2675 7.16217 17.4842C7.30857 17.701 7.51642 17.8691 7.75904 17.967C8.00166 18.0648 8.26798 18.0879 8.52382 18.0333C8.77965 17.9787 9.01334 17.8489 9.19489 17.6606L11.6924 15.0702L15.5905 18.4874C15.8285 18.698 16.1352 18.8144 16.453 18.8146C16.5918 18.8143 16.7297 18.7925 16.8618 18.7499C17.0783 18.6814 17.2731 18.5573 17.4268 18.39C17.5804 18.2227 17.6875 18.0181 17.7374 17.7965L21.5455 1.24118C21.5723 1.1248 21.5668 1.00331 21.5296 0.889817C21.4924 0.776322 21.425 0.675122 21.3346 0.597122ZM2.06707 9.00368C2.06348 8.99401 2.06348 8.98336 2.06707 8.97369C2.0713 8.9704 2.07605 8.96786 2.08114 8.96618L17.0539 3.10493L7.36957 10.0424L2.08114 9.00743L2.06707 9.00368ZM8.38489 16.8787C8.35905 16.9055 8.32581 16.924 8.28941 16.9319C8.25301 16.9397 8.2151 16.9365 8.18051 16.9228C8.14591 16.909 8.1162 16.8852 8.09517 16.8545C8.07413 16.8238 8.06272 16.7875 8.06239 16.7502V11.8856L10.8458 14.3231L8.38489 16.8787ZM16.6414 17.5424C16.6345 17.5741 16.6192 17.6034 16.5971 17.6271C16.575 17.6509 16.5469 17.6683 16.5158 17.6774C16.4841 17.6886 16.4499 17.691 16.4169 17.6844C16.3839 17.6778 16.3533 17.6624 16.3283 17.6399L8.40364 10.6884L20.1561 2.26587L16.6414 17.5424Z" fill="white"/>
</svg>
