<svg width="34" height="36" viewBox="0 0 34 36" fill="none" xmlns="http://www.w3.org/2000/svg">
<path d="M29.1404 0C29.3366 0.0995149 29.5461 0.179315 29.7262 0.3023C30.256 0.663746 30.4788 1.18385 30.4759 1.81005C30.4759 1.96213 30.4759 2.11422 30.4759 2.32452C30.6721 2.32452 30.855 2.32264 31.038 2.32452C32.7213 2.34142 33.9677 3.52245 33.9857 5.19168C34.0122 7.68612 33.9951 10.1815 33.9923 12.6769C33.9923 13.09 33.7857 13.3275 33.4587 13.3237C33.1336 13.319 32.9336 13.0815 32.9317 12.6647C32.927 11.5287 32.9298 10.3937 32.9298 9.23236H6.95021C6.95021 9.36379 6.95021 9.48866 6.95021 9.61446C6.95021 12.6713 6.95305 15.729 6.94547 18.7858C6.94547 19.0261 7.00992 19.2007 7.18527 19.3716C8.17005 20.332 9.14345 21.3037 10.0761 22.2275C10.3386 22.1881 10.5424 22.1308 10.7472 22.1308C16.8738 22.1261 23.0005 22.1271 29.1272 22.1271C29.222 22.1271 29.3177 22.1233 29.4106 22.1364C29.6788 22.1731 29.839 22.327 29.8665 22.5946C29.8949 22.8781 29.7603 23.0753 29.4854 23.1485C29.3404 23.187 29.1812 23.1795 29.0286 23.1795C23.209 23.1804 17.3904 23.1804 11.5708 23.1804H11.0599C11.1955 23.324 11.2751 23.4132 11.3613 23.4977C12.6485 24.7736 13.9337 26.0523 15.2275 27.3215C15.435 27.5253 15.5365 27.7384 15.5308 28.0332C15.5156 28.8884 15.5118 29.7437 15.5365 30.598C15.5412 30.783 15.654 30.982 15.7649 31.1416C15.8909 31.3219 16.0843 31.4542 16.2265 31.6251C16.4265 31.8654 16.4075 32.1593 16.1848 32.348C15.9554 32.5423 15.7128 32.5357 15.4758 32.3517C15.4483 32.3301 15.417 32.3086 15.3981 32.2804C15.018 31.7143 14.4711 31.6176 13.8285 31.6645C13.1811 31.7115 12.5281 31.6655 11.8779 31.6786C11.5841 31.6842 11.3642 31.5875 11.1566 31.381C9.87516 30.0995 8.58235 28.8283 7.299 27.5487C7.20991 27.4595 7.16347 27.3291 7.09712 27.2183C7.05447 27.2493 7.01182 27.2793 6.96916 27.3103C6.96348 27.422 6.9521 27.5337 6.9521 27.6454C6.95116 29.4029 6.94926 31.1594 6.9521 32.9169C6.954 34.2115 7.6895 34.9326 9.00223 34.9335C14.8683 34.9335 20.7352 34.9335 26.6012 34.9335C27.1491 34.9335 27.405 35.0969 27.4135 35.4498C27.4221 35.8141 27.1557 35.9878 26.587 35.9878C20.685 35.9878 14.7829 35.9897 8.88091 35.9869C7.43454 35.9869 6.29053 35.1203 5.97491 33.7797C5.90572 33.4868 5.8915 33.176 5.8896 32.8737C5.88297 30.7417 5.8915 28.6096 5.87633 26.4785C5.87539 26.2945 5.77871 26.0673 5.64791 25.9358C3.99397 24.2769 2.32582 22.6331 0.662407 20.9836C-0.224747 20.1039 -0.220956 19.1707 0.672833 18.2835C1.15717 17.8028 1.63866 17.3184 2.12868 16.8434C2.88029 16.1158 3.87265 16.1111 4.62711 16.8377C5.0233 17.2189 5.39769 17.6226 5.7825 18.016C5.81662 18.0038 5.85169 17.9915 5.88581 17.9793C5.88581 17.8479 5.88581 17.7155 5.88581 17.5841C5.88581 13.5077 5.88297 9.43139 5.88771 5.35503C5.8896 3.88484 6.71705 2.75638 8.05726 2.43061C8.47619 2.32827 8.92166 2.33109 9.41453 2.27946C9.41453 2.15459 9.41453 1.99687 9.41453 1.83821C9.41832 0.926615 9.80597 0.3821 10.6789 0.0619621C10.7092 0.0506963 10.732 0.0215929 10.7585 0.00093882C10.9955 0.00093882 11.2315 0.00093882 11.4684 0.00093882C12.5925 0.369895 12.9565 1.19418 12.8153 2.29917H15.3204C15.3204 1.98185 15.2815 1.68612 15.3279 1.40354C15.4512 0.655296 15.9706 0.247849 16.6492 0H17.3591C18.4737 0.378345 18.8377 1.20357 18.6993 2.29354H21.1361C21.1854 1.88046 21.1797 1.48615 21.2859 1.12377C21.465 0.516351 21.9626 0.201846 22.5399 0C22.7759 0 23.0128 0 23.2498 0C23.2763 0.020654 23.2991 0.0497575 23.3294 0.0610233C24.2014 0.3821 24.59 0.925677 24.5938 1.83633C24.5938 1.99405 24.5938 2.15271 24.5938 2.30856H27.059C27.059 2.14333 27.0344 1.98936 27.0638 1.84666C27.1396 1.48615 27.1879 1.10781 27.3415 0.78016C27.5462 0.342669 27.9964 0.164294 28.4305 0C28.6665 0 28.9035 0 29.1404 0ZM6.97201 8.13582H32.8919C32.9061 8.08794 32.9251 8.05602 32.9251 8.0241C32.9279 7.11062 32.9374 6.19715 32.9279 5.28368C32.9146 3.95525 31.8237 3.12627 30.474 3.4342C30.474 3.63699 30.4835 3.84728 30.4721 4.0557C30.419 5.01236 29.6854 5.7099 28.7471 5.70427C27.8088 5.69864 27.0932 4.98701 27.0628 4.02378C27.0562 3.81724 27.0619 3.6107 27.0619 3.37881H24.5928C24.5928 3.65107 24.6033 3.87357 24.5909 4.09419C24.5398 5.01612 23.791 5.71084 22.8659 5.70333C21.9399 5.69582 21.212 4.9842 21.1854 4.0557C21.1788 3.8379 21.1854 3.62009 21.1854 3.40322H18.7116C18.7116 3.63605 18.7164 3.84541 18.7116 4.05383C18.6851 4.99077 17.9354 5.70896 16.9932 5.70333C16.0701 5.6977 15.3308 4.98044 15.3042 4.0604C15.2976 3.84259 15.3042 3.62385 15.3042 3.40228H12.8314C12.8314 3.62103 12.8352 3.81818 12.8314 4.01439C12.8105 4.97387 12.0949 5.69301 11.1557 5.70333C10.2012 5.71366 9.4496 4.99077 9.42116 4.03035C9.41453 3.82381 9.42116 3.61633 9.42116 3.38069C9.16904 3.38069 8.95768 3.37412 8.74821 3.38163C7.81367 3.41543 7.04404 4.06603 6.99096 4.98795C6.93125 6.02441 6.9777 7.0665 6.9777 8.13582H6.97201ZM12.5167 29.5231C9.74057 26.7714 6.96348 24.0188 4.18259 21.2615C3.9172 21.5309 3.63096 21.8229 3.36747 22.0904C6.13509 24.8318 8.91313 27.5844 11.6969 30.3417C11.9651 30.0732 12.2532 29.7859 12.5167 29.5221V29.5231ZM5.05742 20.4344C7.83168 23.1813 10.6107 25.934 13.3413 28.6387C13.6058 28.3862 13.8996 28.1055 14.1612 27.8567C11.4011 25.1228 8.62689 22.3758 5.86401 19.6392C5.60336 19.8964 5.32092 20.1752 5.05742 20.4344ZM5.10387 18.7651C4.74464 18.4197 4.3731 18.062 4.00156 17.7043C3.93331 17.6395 3.86886 17.5691 3.79588 17.5118C3.52481 17.2996 3.20539 17.2865 2.95707 17.5231C2.3789 18.0751 1.81211 18.6393 1.25384 19.2111C1.01879 19.4524 0.993195 19.7725 1.21309 20.01C1.6396 20.4719 2.11351 20.8916 2.53055 21.2915C3.37884 20.4578 4.22429 19.6279 5.10387 18.7642V18.7651ZM29.4106 2.87185C29.4106 2.49726 29.42 2.12267 29.4077 1.74808C29.3945 1.32937 29.13 1.05617 28.7613 1.05523C28.3917 1.05523 28.1301 1.32655 28.1253 1.74808C28.1168 2.48506 28.1168 3.22297 28.1253 3.95994C28.131 4.39274 28.3784 4.64716 28.7613 4.64622C29.1367 4.64622 29.3935 4.38241 29.4068 3.959C29.4182 3.59662 29.4096 3.2333 29.4096 2.87091L29.4106 2.87185ZM11.7613 2.8803C11.7613 2.48224 11.7717 2.08418 11.7585 1.68706C11.7461 1.31904 11.4779 1.06087 11.1329 1.05711C10.7898 1.05336 10.495 1.30778 10.4875 1.67204C10.4704 2.45595 10.4713 3.23987 10.4865 4.02378C10.4941 4.40964 10.787 4.66124 11.1538 4.6481C11.5064 4.63589 11.7499 4.38711 11.7604 4.00407C11.7708 3.62948 11.7623 3.25489 11.7623 2.8803H11.7613ZM17.6453 2.8512C17.6453 2.47661 17.652 2.10202 17.6434 1.72743C17.634 1.33406 17.3752 1.06462 17.0188 1.05617C16.6482 1.04772 16.3705 1.32468 16.3667 1.73494C16.3592 2.48412 16.3592 3.2333 16.3667 3.98154C16.3715 4.38053 16.6274 4.64059 16.9914 4.64716C17.3724 4.65373 17.6349 4.38992 17.6444 3.97403C17.6529 3.59944 17.6463 3.22485 17.6463 2.85026L17.6453 2.8512ZM22.246 2.84369C22.246 3.21828 22.2403 3.59286 22.2479 3.96745C22.2565 4.39274 22.5067 4.65185 22.8896 4.6481C23.2526 4.64528 23.5199 4.38617 23.5256 3.99092C23.537 3.23048 23.5379 2.4691 23.5256 1.70865C23.519 1.31998 23.2365 1.05429 22.8792 1.05711C22.5219 1.05993 22.2593 1.32749 22.2498 1.71992C22.2404 2.09451 22.2479 2.4691 22.247 2.84369H22.246ZM14.437 30.5961V29.2518C13.9858 29.6996 13.5356 30.1474 13.0826 30.5961H14.437Z" fill="#050110"/>
<path d="M33.9935 24.214C33.9935 27.1422 33.9992 30.0704 33.9916 32.9995C33.9878 34.573 33.0305 35.7512 31.513 35.9399C30.6742 36.0441 29.8136 35.9859 28.9625 35.9756C28.6639 35.9718 28.4734 35.7127 28.4914 35.4236C28.5085 35.1391 28.7122 34.9429 29.0355 34.9373C29.6146 34.9269 30.1975 34.8959 30.7737 34.941C31.9869 35.0358 32.9566 34.2575 32.9471 32.7827C32.9082 26.9498 32.931 21.1159 32.9319 15.283C32.9319 15.1422 32.9253 15.0005 32.9452 14.8625C32.9869 14.5677 33.1613 14.3949 33.4693 14.3977C33.7755 14.4006 33.9499 14.5695 33.9849 14.869C33.9992 14.9967 33.9954 15.1263 33.9954 15.2549C33.9954 18.2422 33.9954 21.2286 33.9954 24.2159L33.9935 24.214Z" fill="#050110"/>
<path d="M19.9514 18.6281C22.9901 18.6281 26.0298 18.6281 29.0685 18.6281C29.1869 18.6281 29.3083 18.6159 29.422 18.6393C29.712 18.6994 29.8817 18.8787 29.8675 19.1829C29.8542 19.4683 29.6845 19.6307 29.4049 19.6749C29.3121 19.6899 29.2163 19.6814 29.1215 19.6814C22.9958 19.6814 16.871 19.6814 10.7453 19.6814C10.6629 19.6814 10.5785 19.6871 10.497 19.6767C10.1946 19.6392 10.0193 19.4589 10.0136 19.1651C10.007 18.8693 10.1842 18.6863 10.4799 18.6365C10.5956 18.6168 10.7159 18.6281 10.8344 18.6281C13.8731 18.6281 16.9127 18.6281 19.9514 18.6281Z" fill="#050110"/>
<path d="M19.9468 11.6498C22.9855 11.6498 26.0242 11.6498 29.0629 11.6498C29.1927 11.6498 29.3254 11.6433 29.4515 11.6658C29.7026 11.7108 29.8439 11.8714 29.8666 12.1221C29.8884 12.3718 29.7842 12.5652 29.5434 12.6469C29.4022 12.6947 29.242 12.7013 29.0904 12.7013C22.9893 12.7041 16.8882 12.7041 10.7871 12.7013C10.6355 12.7013 10.4355 12.721 10.3435 12.6384C10.1957 12.5051 10.0232 12.2835 10.0402 12.1174C10.0573 11.9531 10.28 11.7869 10.4468 11.6714C10.5359 11.6095 10.699 11.6498 10.8298 11.6498C13.8685 11.6498 16.9072 11.6498 19.9458 11.6498H19.9468Z" fill="#050110"/>
<path d="M19.9488 15.1347C22.9638 15.1347 25.9788 15.1347 28.9938 15.1347C29.1 15.1347 29.2071 15.13 29.3132 15.1375C29.6592 15.161 29.8658 15.3535 29.8724 15.6511C29.8791 15.9675 29.6705 16.1646 29.3028 16.1862C29.1966 16.1918 29.0905 16.189 28.9834 16.189C22.9534 16.189 16.9234 16.189 10.8934 16.189C10.7512 16.189 10.6081 16.1928 10.4688 16.1749C10.1787 16.1383 10.0242 15.9534 10.0157 15.6774C10.0072 15.3985 10.1636 15.2117 10.4441 15.1554C10.5702 15.13 10.7029 15.1366 10.8327 15.1366C13.8714 15.1366 16.9101 15.1366 19.9488 15.1366V15.1347Z" fill="#050110"/>
<path d="M23.2139 25.6148C25.1541 25.6148 27.0933 25.6148 29.0335 25.6157C29.1747 25.6157 29.3198 25.6129 29.4572 25.6401C29.7415 25.6974 29.8809 25.8889 29.8685 26.1706C29.8562 26.4372 29.7074 26.6071 29.4373 26.6493C29.3103 26.6691 29.1776 26.6672 29.0487 26.6672C25.1333 26.6672 21.2188 26.6672 17.3034 26.6672C16.7186 26.6672 16.4759 26.5076 16.4826 26.1321C16.4892 25.7716 16.7328 25.6148 17.2882 25.6138C19.2634 25.6138 21.2387 25.6138 23.2139 25.6138V25.6148Z" fill="#050110"/>
</svg>
