<svg width="24" height="24" viewBox="0 0 24 24" fill="none" xmlns="http://www.w3.org/2000/svg">
<path d="M7.17192 2.62505C7.91087 3.17068 8.24769 4.04044 8.65411 4.83625C9.02655 5.56532 9.4134 6.28057 9.86027 6.96721C10.2411 7.55914 10.4386 8.11066 10.3594 8.81255C10.2622 9.22821 10.0369 9.52443 9.68266 9.75591C9.42746 9.90173 9.15971 9.98333 8.87901 10.0654C8.71348 10.127 8.60986 10.189 8.48442 10.3125C8.42074 10.5373 8.42109 10.639 8.49613 10.8604C8.65037 11.1326 8.87132 11.3627 9.0764 11.5972C9.16633 11.7017 9.2514 11.8099 9.33695 11.918C9.80343 12.4888 10.3317 13.0078 10.8516 13.5293C10.9162 13.5943 10.9162 13.5943 10.9822 13.6606C11.2203 13.8981 11.463 14.1256 11.7188 14.3438C11.7746 14.3928 11.8304 14.4419 11.8861 14.491C12.179 14.7478 12.4745 15.0006 12.7793 15.2432C12.8059 15.2646 12.8325 15.2861 12.8599 15.3082C13.0494 15.457 13.2106 15.5495 13.4502 15.5801C13.6394 15.557 13.7276 15.4955 13.875 15.375C13.9506 15.2171 13.9506 15.2171 13.9952 15.0381C14.1363 14.5624 14.3378 14.1214 14.7604 13.8346C15.2216 13.5865 15.7113 13.5928 16.2036 13.7275C16.5217 13.8374 16.8137 13.9975 17.1094 14.1563C17.1718 14.1895 17.1718 14.1895 17.2355 14.2234C17.8376 14.5444 18.4344 14.8746 19.0269 15.2128C19.2058 15.3149 19.3855 15.4156 19.5659 15.5151C19.6834 15.58 19.8006 15.6454 19.9178 15.7109C20.0009 15.7571 20.0844 15.8027 20.1679 15.8482C20.7002 16.147 21.1535 16.5012 21.4219 17.0625C21.4377 17.0934 21.4536 17.1243 21.4699 17.1561C21.6519 17.5844 21.6368 18.1898 21.4776 18.6211C21.3238 18.9361 21.1012 19.2025 20.8771 19.4696C20.8182 19.5401 20.7608 19.6117 20.7034 19.6833C20.0002 20.5624 19.2198 21.4322 18.0469 21.6094C16.984 21.6805 16.187 21.396 15.2344 20.9532C15.1617 20.9194 15.1617 20.9194 15.0875 20.8849C13.0794 19.9459 11.2184 18.8151 9.51567 17.3907C9.48772 17.3674 9.45977 17.3441 9.43098 17.3201C8.6466 16.6639 7.85983 15.964 7.19938 15.1811C7.11089 15.0772 7.0183 14.9774 6.92582 14.877C6.69 14.6153 6.4747 14.3399 6.25955 14.0613C6.18444 13.9648 6.10828 13.8693 6.0319 13.7738C5.61439 13.2493 5.23699 12.7047 4.87504 12.1407C4.83634 12.0806 4.83634 12.0806 4.79685 12.0193C4.3835 11.3742 4.01108 10.7102 3.65629 10.0313C3.63369 9.98822 3.61109 9.94515 3.58781 9.90077C2.12435 7.09463 2.12435 7.09463 2.51078 5.59575C2.77081 4.84366 3.2332 4.2501 3.84379 3.75005C3.89202 3.70802 3.9401 3.66583 3.98808 3.62352C4.86184 2.85576 5.97377 1.89532 7.17192 2.62505ZM4.49858 4.33361C4.41335 4.40683 4.32754 4.47939 4.24076 4.55077C3.78056 4.93769 3.32865 5.51816 3.27299 6.13955C3.26982 6.24735 3.26793 6.3551 3.26664 6.46294C3.26528 6.49907 3.26392 6.53521 3.26252 6.57244C3.25647 7.14588 3.48929 7.67845 3.72367 8.19145C3.74815 8.24561 3.77263 8.29977 3.79785 8.35557C4.68733 10.306 5.78265 12.207 7.19407 13.8315C7.31082 13.9668 7.42325 14.1049 7.5352 14.2442C7.67695 14.4185 7.82381 14.5795 7.98527 14.7355C8.06266 14.8127 8.13268 14.8931 8.20317 14.9766C8.56208 15.3925 8.96157 15.7902 9.38145 16.1445C9.48542 16.233 9.58515 16.3255 9.68559 16.418C9.94776 16.6543 10.2238 16.8698 10.5029 17.0853C10.5947 17.157 10.6853 17.2302 10.7756 17.3037C11.7056 18.0539 12.7303 18.6994 13.7813 19.2657C13.8244 19.2889 13.8675 19.3121 13.9119 19.3361C14.7068 19.7618 15.5117 20.1685 16.3477 20.5079C16.3851 20.5232 16.4225 20.5385 16.461 20.5542C17.0778 20.7983 17.7545 20.8853 18.3847 20.6395C19.079 20.3143 19.5488 19.7636 20.0157 19.1719C20.0643 19.1123 20.113 19.0527 20.1618 18.9932C20.2127 18.9307 20.2636 18.8682 20.3145 18.8057C20.3505 18.762 20.3505 18.762 20.3873 18.7173C20.6346 18.411 20.7497 18.1696 20.7378 17.7703C20.6884 17.3935 20.5046 17.1531 20.2217 16.9136C20.0141 16.7557 19.7888 16.6304 19.5616 16.503C19.5087 16.4729 19.4558 16.4429 19.4014 16.4119C19.2316 16.3155 19.0612 16.2202 18.8907 16.125C18.8624 16.1092 18.834 16.0934 18.8049 16.0771C18.3815 15.8409 17.9568 15.6073 17.5313 15.375C17.4774 15.3456 17.4234 15.3162 17.3679 15.2858C17.2144 15.2021 17.0609 15.1186 16.9073 15.0352C16.862 15.0106 16.8167 14.986 16.7701 14.9607C16.0675 14.542 16.0675 14.542 15.2813 14.5313C14.977 14.7457 14.8364 15.1325 14.7393 15.4805C14.6499 15.7979 14.4872 16.043 14.2032 16.2188C13.7544 16.4358 13.3405 16.4767 12.8667 16.3168C12.4714 16.1436 12.1481 15.831 11.8241 15.5519C11.6839 15.4314 11.5406 15.3151 11.3965 15.1993C11.2243 15.0592 11.0645 14.9145 10.9108 14.7545C10.8327 14.6764 10.7521 14.6056 10.6678 14.5344C10.4145 14.3142 10.179 14.0766 9.94222 13.839C9.86445 13.7609 9.78643 13.6832 9.70838 13.6054C9.44675 13.344 9.19314 13.0786 8.95317 12.7969C8.88692 12.7245 8.82054 12.6522 8.75395 12.5801C7.55014 11.2446 7.55014 11.2446 7.58097 10.4784C7.62748 10.0466 7.78216 9.75751 8.10942 9.4688C8.31747 9.32113 8.54922 9.26105 8.79203 9.19048C9.06305 9.1103 9.32032 9.02529 9.47575 8.77153C9.58466 8.49976 9.53435 8.21523 9.43363 7.94829C9.29728 7.64662 9.11808 7.37355 8.93932 7.09585C8.47582 6.37537 8.09451 5.6106 7.7072 4.8474C7.27913 3.90776 7.27913 3.90776 6.52043 3.26372C5.74641 3.03353 5.03511 3.87196 4.49858 4.33361Z" fill="white"/>
</svg>
