<svg width="32" height="33" viewBox="0 0 32 33" fill="none" xmlns="http://www.w3.org/2000/svg">
<path d="M10.065 5.83417C10.1143 5.83478 10.1143 5.83478 10.1645 5.8354C10.5995 5.84858 10.8568 5.99303 11.1777 6.2837C11.4557 6.59586 11.5847 6.96767 11.7279 7.35318C11.7514 7.41564 11.7749 7.47808 11.7985 7.54051C11.848 7.67189 11.8973 7.80335 11.9464 7.93488C12.0199 8.13175 12.094 8.32841 12.1682 8.52502C12.2906 8.84941 12.4125 9.17399 12.5342 9.49865C12.5966 9.66512 12.6591 9.83154 12.7216 9.99796C12.7707 10.1288 12.8198 10.2596 12.8688 10.3904C12.8919 10.4519 12.915 10.5133 12.9381 10.5748C13.4286 11.8803 13.4286 11.8803 13.1838 12.4947C12.9789 12.8823 12.731 13.2455 12.4887 13.6102C12.0893 14.1513 12.0893 14.1513 11.9553 14.7836C12.0042 15.0197 12.1352 15.2053 12.2705 15.4007C12.289 15.4278 12.3074 15.4549 12.3265 15.4828C12.8445 16.2409 13.4149 16.9491 14.0395 17.6215C14.0988 17.6857 14.1573 17.7506 14.2157 17.8157C14.3986 18.019 14.5816 18.2156 14.7917 18.3915C14.893 18.4788 14.9896 18.57 15.0866 18.6619C15.3695 18.9294 15.6621 19.1764 15.9723 19.4114C16.0511 19.4712 16.1294 19.5317 16.2077 19.5922C16.9832 20.2474 16.9832 20.2474 17.909 20.5303C18.1775 20.4828 18.3984 20.3229 18.6222 20.1749C18.6473 20.1584 18.6723 20.142 18.6982 20.1251C18.8273 20.0401 18.9558 19.9541 19.0839 19.8676C19.2528 19.7539 19.4234 19.6431 19.5952 19.534C19.6217 19.5168 19.6482 19.4997 19.6755 19.482C19.9268 19.3236 20.1815 19.2115 20.48 19.1837C20.5175 19.1795 20.5549 19.1753 20.5935 19.171C21.0344 19.1936 21.4558 19.3756 21.8651 19.5294C21.9251 19.5518 21.9852 19.5741 22.0453 19.5965C22.2045 19.6557 22.3635 19.7152 22.5225 19.7748C22.6538 19.8241 22.7852 19.8731 22.9166 19.9222C23.269 20.0538 23.6213 20.186 23.9734 20.3184C24.1264 20.376 24.2795 20.4334 24.4327 20.4908C24.6266 20.5635 24.8205 20.6367 25.0141 20.7103C25.0799 20.7353 25.1458 20.7602 25.2117 20.785C25.8041 21.0081 26.275 21.2313 26.5538 21.8257C26.693 22.1549 26.7021 22.6591 26.5801 23.0004C26.4415 23.2848 26.2536 23.5467 26.0788 23.8095C25.9606 23.9889 25.8464 24.1708 25.7316 24.3523C25.6572 24.4692 25.5827 24.586 25.5082 24.7028C25.4553 24.7857 25.4026 24.8687 25.35 24.9517C25.2691 25.079 25.1878 25.2061 25.1063 25.333C25.082 25.3716 25.0577 25.4101 25.0326 25.4497C24.5196 26.2449 23.8089 26.865 22.8687 27.0705C20.8723 27.4445 18.395 26.1884 16.671 25.3227C16.6176 25.2959 16.6176 25.2959 16.5631 25.2685C15.1872 24.5731 13.9081 23.696 12.7272 22.7072C12.702 22.6862 12.6768 22.6651 12.6508 22.6434C12.5766 22.581 12.5026 22.5184 12.4288 22.4556C12.3978 22.4293 12.3978 22.4293 12.3662 22.4025C11.9206 22.0196 11.4994 21.6109 11.0849 21.1949C11.0088 21.1186 10.9326 21.0426 10.8563 20.9666C10.6131 20.7235 10.3749 20.4795 10.1533 20.2164C10.1139 20.1714 10.0744 20.1265 10.0349 20.0816C9.73662 19.7397 9.45717 19.3859 9.18531 19.0227C9.11477 18.9286 9.04366 18.8349 8.97253 18.7413C8.20474 17.7232 7.57226 16.6203 6.99816 15.4837C6.98001 15.4479 6.96187 15.412 6.94318 15.3751C6.13473 13.7647 4.88995 11.1624 5.49017 9.31118C5.69715 8.79283 5.96287 8.35195 6.37544 7.96958C6.39786 7.94694 6.42028 7.9243 6.44339 7.90098C6.73489 7.62093 7.0786 7.42309 7.42076 7.2121C7.6342 7.07937 7.84531 6.94301 8.05678 6.80717C8.14493 6.75078 8.2331 6.6944 8.32127 6.63803C8.48298 6.53459 8.64437 6.43069 8.8055 6.32635C8.87506 6.28164 8.94463 6.23693 9.01421 6.19224C9.04503 6.17209 9.07586 6.15194 9.10761 6.13118C9.42138 5.93054 9.69029 5.82899 10.065 5.83417ZM9.23994 6.8902C9.16759 6.937 9.09521 6.98375 9.0228 7.03047C8.86006 7.13589 8.69789 7.24212 8.53598 7.34881C8.33139 7.48328 8.12502 7.61463 7.91775 7.74492C7.10651 8.25551 6.44971 8.73434 6.12895 9.67427C5.7718 11.2608 6.7679 13.277 7.4133 14.6949C7.43094 14.7342 7.44858 14.7734 7.46676 14.8138C7.7328 15.4027 8.041 15.9645 8.36814 16.5216C8.39777 16.5721 8.39777 16.5721 8.428 16.6236C9.08047 17.7285 9.85109 18.7496 10.6878 19.7208C10.7196 19.7578 10.7196 19.7578 10.7521 19.7956C10.884 19.9474 11.0217 20.091 11.1656 20.2315C11.234 20.3008 11.2971 20.3729 11.3598 20.4473C11.6618 20.7971 11.9965 21.1295 12.3495 21.4278C12.4427 21.5086 12.5324 21.5929 12.6221 21.6775C12.8975 21.9362 13.1849 22.1722 13.4847 22.4019C13.5566 22.4575 13.6277 22.5139 13.6985 22.5707C14.527 23.2338 15.4145 23.8069 16.3389 24.3263C16.3761 24.3474 16.4133 24.3685 16.4516 24.3902C17.85 25.1806 19.3248 25.7425 20.864 26.1945C20.9035 26.2064 20.9429 26.2184 20.9836 26.2307C21.7525 26.462 22.536 26.5269 23.2788 26.1734C24.0068 25.7767 24.3851 25.1352 24.8133 24.456C24.9243 24.2799 25.0363 24.1044 25.1489 23.9293C25.1782 23.8839 25.2074 23.8385 25.2375 23.7917C25.2936 23.7045 25.3497 23.6174 25.406 23.5304C25.4842 23.4087 25.5615 23.2865 25.6382 23.1639C25.6656 23.1202 25.693 23.0765 25.7213 23.0315C25.7476 22.9882 25.774 22.9449 25.8012 22.9002C25.8249 22.8614 25.8487 22.8227 25.8732 22.7827C25.9698 22.5795 25.9729 22.3857 25.9288 22.1676C25.8238 21.9074 25.6471 21.7313 25.392 21.6129C25.3469 21.5961 25.3019 21.5793 25.2555 21.562C25.2303 21.5525 25.2052 21.543 25.1793 21.5332C25.0962 21.5019 25.0129 21.4712 24.9295 21.4404C24.8704 21.4183 24.8113 21.3961 24.7522 21.3739C24.5942 21.3146 24.4361 21.2559 24.2779 21.1972C24.1147 21.1366 23.9515 21.0755 23.7883 21.0146C23.5607 20.9295 23.333 20.8446 23.1052 20.7599C22.761 20.6319 22.4173 20.5027 22.0739 20.3725C21.9527 20.3267 21.8314 20.281 21.7101 20.2353C21.6362 20.2073 21.5624 20.1793 21.4885 20.1512C21.3879 20.1128 21.2871 20.0749 21.1862 20.0372C21.1439 20.0208 21.1439 20.0208 21.1007 20.0042C20.8141 19.898 20.5658 19.8457 20.2801 19.9688C20.1505 20.0333 20.0279 20.1066 19.9066 20.1852C19.8652 20.2114 19.8652 20.2114 19.823 20.2381C19.6458 20.3509 19.4708 20.467 19.2962 20.5838C19.2547 20.6114 19.2131 20.639 19.1704 20.6675C19.0888 20.7218 19.0076 20.7765 18.9267 20.8317C18.4313 21.1616 17.9767 21.3044 17.382 21.1897C17.025 21.0781 16.7235 20.846 16.422 20.6315C16.3911 20.6098 16.3603 20.588 16.3285 20.5656C15.947 20.2964 15.5736 20.0212 15.218 19.7182C15.1721 19.6795 15.1261 19.6408 15.0802 19.6021C14.6192 19.2121 14.1775 18.8053 13.7495 18.3794C13.7223 18.3524 13.6952 18.3254 13.6672 18.2977C13.4838 18.1137 13.3116 17.9224 13.1423 17.7255C13.1024 17.6801 13.0625 17.6347 13.0225 17.5893C11.2408 15.55 11.2408 15.55 11.262 14.5188C11.2992 14.0411 11.5739 13.6803 11.834 13.2941C12.0566 12.9623 12.2784 12.6276 12.4833 12.2845C12.5053 12.2478 12.5053 12.2478 12.5277 12.2104C12.6247 11.9509 12.6083 11.737 12.5136 11.4823C12.5027 11.4512 12.4917 11.4202 12.4805 11.3882C12.4391 11.2723 12.3964 11.157 12.3535 11.0417C12.3355 10.9928 12.3174 10.9439 12.2988 10.8935C12.1553 10.5058 12.0092 10.1192 11.8627 9.73264C11.7919 9.54577 11.7213 9.35882 11.6508 9.17187C11.5929 9.0187 11.5349 8.86557 11.4767 8.71253C11.3757 8.44673 11.275 8.18085 11.1778 7.91361C11.1374 7.80246 11.0965 7.69148 11.0556 7.58051C11.0278 7.50467 11.0007 7.42859 10.9736 7.3525C10.8569 7.03686 10.7326 6.80382 10.4594 6.60219C9.96994 6.44809 9.64264 6.62448 9.23994 6.8902Z" fill="white"/>
</svg>
