<svg width="58" height="58" viewBox="0 0 58 58" fill="none" xmlns="http://www.w3.org/2000/svg">
<g clip-path="url(#clip0_23_300)">
<path d="M48.7153 1.55952C49.0012 1.72693 49.0012 1.72693 49.1617 2.00595C49.2589 2.55396 49.2589 2.55396 49.1617 2.89881C48.6448 3.54121 47.8132 3.91002 47.1039 4.2939C46.8527 4.43219 46.6016 4.57068 46.3506 4.70937C46.2235 4.77946 46.0965 4.84954 45.9656 4.92174C45.3917 5.24161 44.8246 5.57265 44.2579 5.90523C44.0369 6.03472 43.8159 6.1642 43.5948 6.29367C43.4838 6.35875 43.3727 6.42384 43.2582 6.49089C33.8726 11.977 33.8726 11.977 28.2822 10.54C28.206 10.52 28.1298 10.5 28.0514 10.4794C26.8646 10.1953 25.7071 10.3592 24.6591 10.9951C23.6161 11.7586 22.9682 12.7895 22.7108 14.0595C22.602 15.3693 22.9318 16.464 23.7152 17.5193C24.5736 18.4682 25.6142 18.8798 26.8533 19.0962C27.2255 19.2087 27.3827 19.3365 27.6215 19.6399C27.7155 20.1922 27.571 20.604 27.3983 21.1326C27.0214 22.3143 27.1595 23.1731 27.6215 24.3274C28.2545 25.5514 29.2155 26.2112 30.5146 26.6284C31.8215 26.8692 32.9622 26.6018 34.0738 25.9108C35.1367 25.1535 35.5936 24.1497 35.9641 22.9323C36.6697 20.7351 37.8562 18.9515 39.4519 17.2961C39.5249 17.216 39.598 17.1359 39.6733 17.0533C40.4332 16.2431 41.7425 15.0556 42.8559 14.8966C43.2465 14.9524 43.2465 14.9524 43.5743 15.1895C43.8045 15.5104 43.8045 15.5104 43.8743 15.8383C43.7811 16.295 43.5922 16.5522 43.2465 16.8497C43.0626 16.9693 42.8763 17.0852 42.6885 17.1985C40.149 18.7523 38.7081 21.2523 37.7778 23.9926C37.153 25.83 36.1815 27.1624 34.4365 28.0523C32.8042 28.8411 30.9361 28.9541 29.2036 28.3806C27.6112 27.7205 26.3595 26.4849 25.7002 24.8928C25.4686 24.2721 25.2639 23.7006 25.2629 23.0339C25.2628 22.9371 25.2626 22.8404 25.2625 22.7407C25.2629 22.6405 25.2634 22.5403 25.2638 22.437C25.2632 22.2874 25.2632 22.2874 25.2625 22.1347C25.2632 21.6614 25.2681 21.2171 25.3894 20.756C25.3102 20.7431 25.2311 20.7303 25.1496 20.7172C23.755 20.3981 22.5971 19.4108 21.8249 18.2378C20.8573 16.5943 20.527 14.8642 20.8941 12.9748C20.9966 12.6529 21.1146 12.3554 21.2599 12.0506C21.3186 11.9198 21.3186 11.9198 21.3785 11.7864C22.1442 10.2495 23.5424 9.16737 25.1334 8.59339C26.4986 8.19374 27.8224 8.29546 29.191 8.59077C31.0692 8.99064 33.0167 8.96898 34.876 8.47917C35.0075 8.44507 35.139 8.41097 35.2744 8.37584C37.1544 7.81755 38.8555 6.73585 40.5276 5.73427C41.0434 5.42718 41.5628 5.12608 42.0816 4.82403C42.3105 4.69064 42.5394 4.55723 42.7682 4.42382C42.8835 4.35667 42.9987 4.28952 43.1174 4.22033C43.5894 3.94506 44.0612 3.66936 44.533 3.39358C44.7613 3.26034 44.9898 3.1274 45.2184 2.99478C45.6917 2.72024 46.1637 2.44498 46.6283 2.15592C47.3376 1.71919 47.867 1.39534 48.7153 1.55952Z" fill="#292929"/>
<path d="M18.0233 22.5417C19.061 23.3769 19.6541 24.3314 20.1438 25.5551C20.1438 25.6656 20.1438 25.7761 20.1438 25.8899C20.2335 25.8722 20.3231 25.8545 20.4154 25.8363C22.3921 25.5483 24.2341 25.872 25.8624 27.0797C26.1494 27.3321 26.3554 27.5335 26.4566 27.908C26.4783 28.2736 26.4149 28.5318 26.2334 28.8475C25.8031 29.0994 25.4281 29.1257 24.9429 29.0149C24.7243 28.8698 24.5519 28.7076 24.3653 28.5236C23.5567 27.8154 22.4966 27.7388 21.4722 27.7537C20.9537 27.7936 20.5499 27.934 20.0741 28.133C19.6925 28.2779 19.4309 28.2925 19.0278 28.2337C18.6147 27.9559 18.5844 27.518 18.4906 27.0618C18.1904 25.763 17.684 24.7782 16.5724 23.9926C15.4676 23.3333 14.3663 23.1367 13.0903 23.3953C11.9407 23.7398 11.0452 24.4037 10.434 25.4435C9.8843 26.5958 9.7381 27.6246 10.0349 28.8678C10.5882 31.2141 10.547 33.8407 9.87597 36.1578C9.85324 36.2378 9.83051 36.3179 9.80709 36.4003C9.19957 38.4652 8.03232 40.2947 6.94846 42.1362C6.54482 42.8229 6.14855 43.5136 5.75419 44.2057C5.64216 44.4022 5.53 44.5987 5.41779 44.7952C5.11511 45.3252 4.81244 45.8552 4.51082 46.3858C4.35883 46.6532 4.20651 46.9204 4.05384 47.1873C3.9125 47.4345 3.7716 47.6819 3.63123 47.9297C2.773 49.4268 2.773 49.4268 2.39829 49.7738C2.0376 49.8655 1.75454 49.8657 1.39383 49.7738C1.06573 49.5606 0.976933 49.4095 0.84582 49.0449C0.830487 48.4529 1.10867 48.0584 1.4008 47.5556C1.49158 47.3945 1.49158 47.3945 1.58418 47.2301C1.77889 46.8862 1.9765 46.5441 2.17508 46.2024C2.23847 46.0931 2.30186 45.9838 2.36718 45.8711C2.6236 45.4297 2.88081 44.9888 3.13941 44.5487C3.68166 43.6251 4.20712 42.6928 4.72807 41.757C5.09595 41.0966 5.46811 40.439 5.84604 39.7843C7.22045 37.4002 8.24696 35.1803 8.24372 32.3771C8.24386 32.2459 8.24401 32.1147 8.24415 31.9796C8.23297 31.0418 8.11393 30.1708 7.91625 29.2564C7.53753 27.4856 7.73765 25.7456 8.6762 24.1665C9.69039 22.6837 11.1623 21.692 12.9356 21.3498C14.7523 21.1247 16.5357 21.4368 18.0233 22.5417Z" fill="#292929"/>
<path d="M27.1752 30.1799C27.6039 30.2603 27.7756 30.3641 28.0681 30.6891C28.539 31.9897 28.2924 33.4084 27.7956 34.6686C27.1124 36.127 26.0777 37.3434 24.5493 37.9426C24.1141 38.0987 23.676 38.2453 23.2371 38.3906C19.0248 39.7953 17.0105 42.6609 14.8935 46.3781C14.544 46.9905 14.191 47.6009 13.8382 48.2115C13.6988 48.453 13.5594 48.6945 13.4201 48.936C13.351 49.0557 13.282 49.1754 13.2109 49.2987C13 49.6643 12.7893 50.0299 12.5787 50.3956C9.05667 56.5086 9.05667 56.5086 8.64844 56.9168C8.17571 56.9953 7.77085 56.9993 7.36496 56.7355C7.14752 56.3912 7.09661 56.2128 7.08594 55.8007C7.23433 55.4109 7.4417 55.0587 7.65095 54.6986C7.71163 54.591 7.7723 54.4833 7.83482 54.3724C8.02942 54.0287 8.22689 53.6869 8.42522 53.3454C8.48743 53.2379 8.54963 53.1303 8.61372 53.0195C8.93242 52.4693 9.25329 51.9205 9.5753 51.3722C10.0113 50.6287 10.4396 49.8809 10.8666 49.1322C10.9037 49.0673 10.9408 49.0023 10.979 48.9354C11.3207 48.3366 11.662 47.7376 12.003 47.1384C12.4503 46.3526 12.8986 45.5673 13.3489 44.7831C13.4862 44.5438 13.6234 44.3045 13.7603 44.0649C15.9769 40.1957 18.7099 37.5073 23.0283 36.1539C24.2573 35.7559 25.1501 35.1606 25.7487 33.9959C26.0015 33.4463 26.1823 32.956 26.1865 32.3462C26.1886 32.2596 26.1908 32.1729 26.193 32.0836C26.1968 31.9031 26.1988 31.7226 26.1991 31.5421C26.2143 31.0588 26.2393 30.8561 26.5457 30.4624C26.8404 30.2427 26.8404 30.2427 27.1752 30.1799Z" fill="#292929"/>
<path d="M56.0814 7.69799C56.3167 7.87509 56.4036 7.97653 56.4686 8.26561C56.4703 8.39207 56.4703 8.39207 56.4721 8.52109C56.4755 8.60482 56.479 8.68855 56.4825 8.77482C56.3382 9.34631 55.8357 9.62132 55.3608 9.91225C55.1621 10.0284 54.9628 10.1436 54.7631 10.258C54.6548 10.321 54.5466 10.3839 54.435 10.4488C54.2061 10.5819 53.9769 10.7147 53.7475 10.8471C53.3099 11.0999 52.8736 11.3548 52.4373 11.6098C52.1073 11.8026 51.777 11.9948 51.4467 12.1871C50.9167 12.496 50.3876 12.8064 49.8589 13.1175C49.7114 13.2042 49.5639 13.2909 49.4164 13.3776C49.2003 13.5047 48.9842 13.6319 48.7682 13.7593C48.5679 13.8775 48.3674 13.9954 48.1669 14.1132C47.9944 14.2149 47.9944 14.2149 47.8183 14.3186C46.7412 14.9291 46.7412 14.9291 46.1484 14.8408C45.7671 14.6205 45.6213 14.4853 45.4788 14.0666C45.4788 13.6325 45.5312 13.4989 45.8136 13.1667C46.5447 12.6201 47.3515 12.1804 48.1434 11.7298C48.4017 11.5819 48.66 11.4338 48.9181 11.2855C48.9841 11.2477 49.05 11.2098 49.118 11.1707C49.8366 10.7572 50.549 10.3334 51.2614 9.9092C55.2664 7.52639 55.2664 7.52639 56.0814 7.69799Z" fill="#292929"/>
<path d="M9.42976 46.314C9.75811 46.5387 9.85537 46.698 9.98082 47.0743C9.99731 47.9157 9.37432 48.7304 8.96938 49.439C8.90509 49.552 8.8408 49.6649 8.77456 49.7813C8.39754 50.4418 8.01817 51.1008 7.63009 51.7549C7.59065 51.8219 7.55122 51.8889 7.51058 51.958C7.12701 52.5966 7.12701 52.5966 6.86279 52.7872C6.59773 52.8317 6.59773 52.8317 6.30476 52.8291C6.15974 52.8304 6.15974 52.8304 6.01179 52.8317C5.74672 52.7872 5.74672 52.7872 5.55141 52.659C5.35119 52.3625 5.31739 52.1395 5.30029 51.7828C5.40536 51.4697 5.40536 51.4697 5.58629 51.1271C5.63677 51.0308 5.63677 51.0308 5.68827 50.9325C8.22215 46.1869 8.22215 46.1869 9.42976 46.314Z" fill="#292929"/>
<path d="M34.3528 34.2395C35.4145 34.5814 36.2705 35.7458 37.0475 36.5228C37.2628 36.738 37.4791 36.9522 37.6954 37.1664C37.833 37.3037 37.9707 37.4411 38.1082 37.5786C38.1726 37.6422 38.237 37.7058 38.3034 37.7713C38.8812 38.3525 38.8812 38.3525 39.0054 38.7247C38.9695 39.4076 38.9695 39.4076 38.75 39.693C38.4494 39.9257 38.2019 39.9172 37.8314 39.8948C37.5184 39.8337 37.4067 39.759 37.1748 39.5448C37.0981 39.4739 37.0213 39.4031 36.9422 39.3302C36.3804 38.7882 35.8234 38.242 35.2715 37.69C35.0561 37.4749 34.8398 37.2607 34.6236 37.0465C34.4859 36.9091 34.3483 36.7717 34.2107 36.6343C34.1463 36.5707 34.0819 36.5071 34.0155 36.4415C33.4405 35.8632 33.4405 35.8632 33.3135 35.4881C33.3218 35.021 33.3571 34.7868 33.6622 34.4278C33.9831 34.2604 33.9831 34.2604 34.3528 34.2395Z" fill="#292929"/>
<path d="M9.19369 9.08573C10.1084 9.33018 10.9032 10.5014 11.5571 11.1647C12.3688 11.9968 12.3688 11.9968 13.2308 12.7756C13.6133 13.1012 13.7662 13.2652 13.8311 13.7665C13.7823 14.1711 13.7823 14.1711 13.5521 14.4989C13.2243 14.7291 13.2243 14.7291 12.8685 14.8268C12.4114 14.7219 12.298 14.6324 11.9639 14.3224C11.8167 14.1858 11.8167 14.1858 11.6665 14.0465C11.5533 13.9393 11.4401 13.832 11.327 13.7247C11.2637 13.665 11.2004 13.6054 11.1352 13.544C10.7059 13.1386 10.2814 12.7287 9.85993 12.3151C9.71145 12.1702 9.56208 12.0262 9.41187 11.8831C9.19211 11.6735 8.9754 11.4611 8.75912 11.248C8.69182 11.1849 8.62453 11.1219 8.55519 11.0569C8.21968 10.7198 8.04901 10.4977 8.03809 10.0116C8.09035 9.59521 8.09035 9.59521 8.25776 9.31619C8.57316 9.12695 8.82477 9.06456 9.19369 9.08573Z" fill="#292929"/>
<path d="M6.18658 17.788C6.31602 17.788 6.44547 17.788 6.57883 17.7879C6.85211 17.7885 7.12538 17.7905 7.39864 17.7937C7.81727 17.7984 8.2357 17.7983 8.65436 17.7976C8.91994 17.7987 9.18551 17.8002 9.45108 17.8019C9.63908 17.8019 9.63908 17.8019 9.83088 17.802C10.0058 17.8046 10.0058 17.8046 10.1842 17.8074C10.3378 17.8088 10.3378 17.8088 10.4945 17.8102C10.8206 17.8625 10.9753 17.966 11.2154 18.189C11.3526 18.5729 11.3632 18.9571 11.2503 19.347C11.014 19.6395 10.7627 19.74 10.3914 19.7806C10.2437 19.7814 10.2437 19.7814 10.0931 19.7822C9.92489 19.7838 9.92489 19.7838 9.75331 19.7854C9.63286 19.7853 9.51241 19.7852 9.38831 19.7851C9.26392 19.7856 9.13954 19.7861 9.01139 19.7866C8.74843 19.7872 8.48547 19.7873 8.22251 19.7868C7.8203 19.7864 7.41819 19.789 7.016 19.7919C6.76045 19.7921 6.5049 19.7922 6.24935 19.7921C6.12913 19.7931 6.00891 19.7941 5.88504 19.7952C4.83225 19.7887 4.83225 19.7887 4.4074 19.4167C4.30887 19.1839 4.30887 19.1839 4.28184 18.9284C4.27005 18.8447 4.25825 18.761 4.24609 18.6747C4.30477 18.3649 4.4216 18.1906 4.6492 17.9737C5.10702 17.7064 5.67243 17.7804 6.18658 17.788Z" fill="#292929"/>
<path d="M17.9817 5.22875C18.066 5.23767 18.1503 5.24659 18.2371 5.25578C18.592 5.40596 18.6483 5.55685 18.8048 5.91234C18.8537 6.34034 18.849 6.76589 18.8453 7.19626C18.8454 7.32075 18.8454 7.44524 18.8455 7.5735C18.8452 7.83627 18.8441 8.09903 18.8423 8.36178C18.8396 8.76422 18.84 9.16656 18.8407 9.569C18.8401 9.8244 18.8393 10.0798 18.8383 10.3352C18.8384 10.4557 18.8385 10.5761 18.8386 10.7002C18.8376 10.8123 18.8365 10.9245 18.8354 11.04C18.8349 11.1384 18.8344 11.2369 18.8339 11.3383C18.8024 11.6258 18.7326 11.8056 18.5815 12.0507C18.2875 12.2795 18.1224 12.2737 17.7445 12.267C17.3539 12.1623 17.3539 12.1623 17.1102 11.9583C16.8018 11.4199 16.8415 10.9103 16.8442 10.2999C16.8435 10.1732 16.8428 10.0465 16.8421 9.91595C16.8413 9.6484 16.8417 9.38085 16.8431 9.11331C16.8447 8.70394 16.8408 8.29486 16.8366 7.88552C16.8365 7.62539 16.8367 7.36527 16.8372 7.10514C16.8358 6.98283 16.8343 6.86051 16.8328 6.73449C16.8431 5.88682 16.8431 5.88682 17.1744 5.4433C17.4896 5.22606 17.6081 5.17612 17.9817 5.22875Z" fill="#292929"/>
<path d="M37.0934 29.2219C37.2037 29.2212 37.3139 29.2205 37.4275 29.2197C37.6059 29.2196 37.6059 29.2196 37.788 29.2194C37.9103 29.219 38.0326 29.2186 38.1586 29.2182C38.4175 29.2177 38.6763 29.2174 38.9352 29.2174C39.3315 29.2172 39.7278 29.2152 40.1241 29.213C40.3754 29.2127 40.6267 29.2125 40.8781 29.2124C40.9968 29.2116 41.1155 29.2108 41.2378 29.21C41.3484 29.2103 41.459 29.2106 41.573 29.211C41.7187 29.2108 41.7187 29.2108 41.8673 29.2105C42.158 29.241 42.3322 29.303 42.577 29.4613C42.8162 29.8201 42.8338 30.0388 42.8517 30.4619C42.7764 30.7943 42.6138 30.9206 42.3538 31.1354C42.0743 31.1921 42.0743 31.1921 41.757 31.1932C41.5782 31.1953 41.5782 31.1953 41.3958 31.1975C41.2677 31.1966 41.1396 31.1957 41.0076 31.1947C40.8094 31.1954 40.8094 31.1954 40.6073 31.196C40.3281 31.1963 40.0489 31.1955 39.7697 31.1936C39.342 31.1912 38.9145 31.1936 38.4868 31.1965C38.2156 31.1962 37.9445 31.1956 37.6733 31.1947C37.4811 31.1961 37.4811 31.1961 37.285 31.1975C37.1659 31.1961 37.0467 31.1946 36.9239 31.1932C36.7668 31.1927 36.7668 31.1927 36.6065 31.1921C36.2438 31.1186 36.1096 30.9736 35.8806 30.689C35.8252 30.4375 35.8252 30.4375 35.8318 30.1798C35.8319 30.0945 35.8321 30.0092 35.8322 29.9213C35.892 29.6286 35.9814 29.5309 36.2154 29.3497C36.5418 29.2409 36.7535 29.2234 37.0934 29.2219Z" fill="#292929"/>
<path d="M29.7421 36.939C29.931 37.0745 29.931 37.0745 30.0769 37.2738C30.121 37.5441 30.121 37.5441 30.1238 37.8682C30.1256 37.9896 30.1274 38.1111 30.1292 38.2362C30.1292 38.4329 30.1292 38.4329 30.1293 38.6336C30.1305 38.8356 30.1305 38.8356 30.1318 39.0418C30.133 39.3269 30.1334 39.612 30.1329 39.8971C30.1327 40.3339 30.1374 40.7705 30.1423 41.2073C30.1429 41.4841 30.1432 41.7608 30.1432 42.0376C30.146 42.234 30.146 42.234 30.1488 42.4343C30.1411 43.3375 30.1411 43.3375 29.8147 43.7178C29.4512 43.8909 29.2473 43.925 28.8493 43.8586C28.5535 43.7178 28.5535 43.7178 28.2912 43.4122C28.2068 42.9548 28.2185 42.5014 28.225 42.0376C28.225 41.9028 28.225 41.7679 28.2249 41.629C28.2255 41.3441 28.2275 41.0592 28.2307 40.7743C28.2354 40.3373 28.2353 39.9005 28.2346 39.4634C28.2357 39.1868 28.2372 38.9102 28.2389 38.6336C28.2389 38.5024 28.239 38.3713 28.239 38.2362C28.2408 38.1147 28.2425 37.9933 28.2444 37.8682C28.2453 37.7612 28.2462 37.6543 28.2472 37.5441C28.2991 37.2254 28.3693 37.129 28.6261 36.939C29.0469 36.7987 29.3112 36.8466 29.7421 36.939Z" fill="#292929"/>
<path d="M14.3893 24.9762C14.5342 24.9746 14.6791 24.9731 14.8283 24.9714C15.3097 25.002 15.6383 25.0778 15.9937 25.4087C16.1833 25.778 16.1773 26.039 16.1262 26.4481C15.9178 26.712 15.7556 26.8566 15.4565 27.0061C15.075 27.0238 14.7635 27.0007 14.3893 26.9154C13.9879 26.8496 13.9879 26.8496 13.6987 27.1526C13.6159 27.2516 13.533 27.3505 13.4476 27.4525C13.036 27.7269 12.6979 27.7519 12.2199 27.6757C11.86 27.445 11.7876 27.2699 11.6479 26.8666C11.6678 26.2723 11.916 25.9654 12.3315 25.5552C12.9934 25.061 13.5803 24.9802 14.3893 24.9762Z" fill="#292929"/>
<path d="M26.6172 12.1622C26.8823 12.3366 26.8823 12.3366 27.0636 12.6086C27.1322 13.1486 27.1433 13.374 26.8544 13.8363C26.6172 14.0595 26.6172 14.0595 26.394 14.0595C26.3851 14.4881 26.3968 14.8787 26.4707 15.3012C26.5088 15.7738 26.4584 15.9266 26.1708 16.2917C26.0592 16.4033 26.0592 16.4033 25.6407 16.4382C25.2832 16.433 25.1666 16.4035 24.8455 16.2149C24.3053 15.6271 24.3371 14.9847 24.3506 14.2208C24.4262 13.3775 24.8343 12.89 25.4249 12.3126C25.8238 11.9933 26.1463 12.0373 26.6172 12.1622Z" fill="#292929"/>
</g>
<defs>
<clipPath id="clip0_23_300">
<rect width="57.1429" height="57.1429" fill="white" transform="translate(0.16626 0.666748)"/>
</clipPath>
</defs>
</svg>
