<svg width="24" height="24" viewBox="0 0 24 24" fill="none" xmlns="http://www.w3.org/2000/svg">
<g clip-path="url(#clip0_195_1603)">
<path d="M9.44998 -0.0141903C9.54079 -0.0146626 9.54079 -0.0146626 9.63343 -0.0151445C9.79771 -0.0159637 9.962 -0.016192 10.1263 -0.0162522C10.2296 -0.0163194 10.3329 -0.0165206 10.4362 -0.0167676C10.7985 -0.0176323 11.1608 -0.0180181 11.5231 -0.017944C11.8577 -0.0178879 12.1923 -0.0188735 12.5268 -0.0203575C12.8165 -0.0215955 13.1062 -0.0220857 13.396 -0.0220263C13.5679 -0.0220027 13.7398 -0.022251 13.9117 -0.0232617C16.3395 -0.0365388 18.4987 0.701938 20.3029 2.35783C20.3262 2.37914 20.3494 2.40046 20.3733 2.42242C21.8544 3.81826 22.8545 5.88853 22.9778 7.92773C22.9813 8.07761 22.9822 8.22724 22.9818 8.37716C22.9822 8.46144 22.9822 8.46144 22.9826 8.54743C22.9831 8.6997 22.9832 8.85196 22.9831 9.00424C22.983 9.13244 22.9833 9.26065 22.9835 9.38886C22.984 9.6921 22.984 9.99533 22.9838 10.2986C22.9835 10.6087 22.984 10.9188 22.985 11.2289C22.9859 11.4975 22.9862 11.766 22.986 12.0345C22.9859 12.1939 22.986 12.3533 22.9867 12.5126C22.9897 13.4258 22.9508 14.3054 22.6818 15.184C22.6679 15.2306 22.6539 15.2772 22.6394 15.3253C22.1826 16.7976 21.3868 18.0399 20.2971 19.1244C20.2579 19.1636 20.2187 19.2029 20.1782 19.2433C19.074 20.2869 17.6425 20.9753 16.1721 21.3129C16.1324 21.3224 16.0928 21.3319 16.052 21.3417C15.2405 21.5185 14.3963 21.5281 13.5695 21.5222C13.4195 21.5212 13.2694 21.5212 13.1194 21.5213C12.6938 21.5218 12.2682 21.5218 11.8426 21.5188C11.5799 21.517 11.3174 21.517 11.0547 21.5182C10.9555 21.5183 10.8562 21.5177 10.757 21.5165C10.2352 21.4909 10.2352 21.4909 9.75102 21.643C9.65726 21.7362 9.58863 21.8272 9.51583 21.9369C9.45975 21.9894 9.40226 22.0404 9.34298 22.0893C9.17246 22.236 9.00694 22.3875 8.842 22.5404C8.6213 22.7449 8.39936 22.9479 8.17513 23.1485C8.09789 23.2179 8.021 23.2876 7.94442 23.3576C7.82857 23.4633 7.71151 23.5675 7.59396 23.6713C7.55819 23.7041 7.52241 23.7369 7.48556 23.7707C7.27701 23.9507 7.12882 24.0359 6.85055 24.0339C6.69234 23.9796 6.59671 23.9097 6.51583 23.7651C6.47922 23.5494 6.48203 23.335 6.48269 23.1167C6.48207 23.0529 6.48136 22.9891 6.48054 22.9254C6.47868 22.7581 6.4782 22.5908 6.47801 22.4235C6.47757 22.2525 6.47582 22.0816 6.47418 21.9107C6.47115 21.5757 6.46959 21.2407 6.46896 20.9057C6.43511 20.8897 6.40127 20.8736 6.3664 20.8571C6.21178 20.7838 6.05729 20.7101 5.90279 20.6365C5.84955 20.6113 5.79631 20.5861 5.74146 20.5601C5.38152 20.3883 5.05293 20.2097 4.73458 19.9682C4.68606 19.9328 4.63754 19.8974 4.58755 19.8609C4.20587 19.5786 3.85886 19.2645 3.51583 18.9369C3.48514 18.9087 3.45444 18.8805 3.42281 18.8514C1.98085 17.4884 1.09619 15.3262 1.01394 13.3664C1.00473 13.0186 1.00532 12.6709 1.00655 12.323C1.00651 12.1947 1.00625 12.0665 1.00601 11.9383C1.00567 11.6715 1.00611 11.4047 1.00701 11.1379C1.00803 10.8327 1.0077 10.5275 1.00667 10.2223C1.00581 9.95662 1.0057 9.69098 1.00619 9.42534C1.00648 9.26825 1.00646 9.11118 1.0059 8.9541C0.999305 6.57043 1.76847 4.43214 3.38986 2.66544C3.41117 2.64221 3.43248 2.61898 3.45445 2.59504C4.97304 0.983786 7.23485 -0.0158792 9.44998 -0.0141903ZM5.06271 2.4838C5.02119 2.5148 4.97968 2.5458 4.93691 2.57774C3.44475 3.74619 2.47514 5.38434 2.09786 7.23283C2.09021 7.2703 2.08255 7.30778 2.07467 7.3464C1.98688 7.80194 1.96196 8.25698 1.96066 8.72012C1.96035 8.76906 1.96004 8.81801 1.95973 8.86843C1.95881 9.02892 1.95826 9.1894 1.95779 9.34989C1.9576 9.40536 1.95741 9.46083 1.95721 9.51798C1.95623 9.81202 1.95556 10.1061 1.95512 10.4001C1.9546 10.7004 1.95299 11.0007 1.95113 11.3009C1.94989 11.5348 1.94951 11.7686 1.94934 12.0024C1.94912 12.1129 1.94858 12.2234 1.9477 12.3339C1.93055 14.6272 2.65553 16.6634 4.25887 18.3222C4.46584 18.5303 4.68727 18.7143 4.92208 18.8901C4.94652 18.9086 4.97097 18.9272 4.99615 18.9464C5.59421 19.399 6.221 19.7587 6.92392 20.0232C6.95965 20.0372 6.99538 20.0512 7.03219 20.0656C7.06375 20.0774 7.0953 20.0892 7.12782 20.1013C7.26344 20.1822 7.32486 20.2533 7.40646 20.3901C7.43437 20.5446 7.43481 20.6971 7.43502 20.8539C7.4358 20.8983 7.43657 20.9427 7.43737 20.9884C7.43964 21.1298 7.44064 21.2711 7.44161 21.4125C7.44293 21.5086 7.44434 21.6046 7.44582 21.7006C7.44929 21.9356 7.45161 22.1706 7.45333 22.4057C7.59933 22.3358 7.70319 22.2628 7.82028 22.1502C7.87076 22.1022 7.87076 22.1022 7.92227 22.0531C7.95701 22.0196 7.99175 21.9861 8.02755 21.9516C8.25613 21.7325 8.48623 21.5173 8.72564 21.3101C8.80617 21.2395 8.88467 21.1674 8.96249 21.0939C8.99684 21.0616 8.99684 21.0616 9.03188 21.0285C9.07773 20.9852 9.12338 20.9416 9.16885 20.8978C9.48845 20.5986 9.74309 20.557 10.1648 20.5595C10.2155 20.5593 10.2663 20.559 10.3185 20.5588C10.4286 20.5583 10.5386 20.5582 10.6486 20.5583C10.8235 20.5585 10.9984 20.5579 11.1734 20.557C11.5457 20.5552 11.918 20.5546 12.2902 20.5541C12.7199 20.5536 13.1495 20.5525 13.5791 20.5504C13.75 20.5497 13.9209 20.5499 14.0918 20.5501C14.872 20.5483 15.6254 20.4909 16.3772 20.267C16.4175 20.2551 16.4577 20.2433 16.4993 20.2311C18.4093 19.6463 20.0843 18.3525 21.0452 16.5877C21.0936 16.4962 21.1409 16.4043 21.1877 16.3119C21.2028 16.2823 21.2179 16.2527 21.2334 16.2222C21.6046 15.485 21.8689 14.6904 21.9689 13.8697C21.9748 13.8212 21.9807 13.7728 21.9868 13.7229C22.0487 13.174 22.051 12.6275 22.0485 12.0758C22.0485 11.9658 22.0485 11.8558 22.0486 11.7458C22.0486 11.5176 22.0481 11.2893 22.0472 11.061C22.0461 10.7707 22.0461 10.4803 22.0464 10.1899C22.0466 9.96362 22.0463 9.73732 22.0458 9.51102C22.0456 9.40401 22.0456 9.29699 22.0457 9.18997C22.0459 6.81645 21.3275 4.79885 19.6555 3.09025C18.5906 2.03067 17.198 1.36432 15.7356 1.06583C15.6981 1.05818 15.6606 1.05052 15.622 1.04264C15.154 0.952451 14.6879 0.929911 14.2122 0.930119C14.1594 0.929962 14.1067 0.929804 14.0524 0.929642C13.8794 0.9292 13.7065 0.929105 13.5335 0.929055C13.4122 0.928904 13.2908 0.928746 13.1694 0.928582C12.9155 0.928302 12.6615 0.928212 12.4075 0.928242C12.116 0.92827 11.8245 0.927777 11.5331 0.927035C11.2504 0.926343 10.9677 0.92618 10.685 0.926208C10.5658 0.926153 10.4466 0.925948 10.3274 0.925583C8.39626 0.92022 6.63139 1.30781 5.06271 2.4838Z" fill="white"/>
<path d="M7.79902 4.55052C7.85177 4.55424 7.85177 4.55424 7.90559 4.55803C8.06425 4.61048 8.13832 4.70592 8.25019 4.82884C8.29385 4.87491 8.33755 4.92093 8.3813 4.96691C8.64082 5.24529 8.88948 5.52817 9.12782 5.82512C9.2448 5.96618 9.36759 6.101 9.49238 6.23509C9.6971 6.4552 9.89029 6.68209 10.0783 6.9168C10.1584 7.01524 10.2415 7.10852 10.3273 7.20189C10.5973 7.51833 10.7008 7.88481 10.6877 8.29759C10.6276 8.75585 10.4067 9.0835 10.0578 9.37865C10.0182 9.40862 9.97853 9.43859 9.93769 9.46947C10.0729 10.3674 10.7556 11.2731 11.45 11.8138C11.9161 12.1523 12.629 12.6101 13.2189 12.6101C13.3005 12.5252 13.3005 12.5252 13.3713 12.4138C13.59 12.1172 13.8406 11.9467 14.2037 11.8733C14.7829 11.7915 15.2084 12.0202 15.6799 12.3347C15.7567 12.3849 15.8334 12.4351 15.9102 12.4853C15.9903 12.5377 16.0702 12.5905 16.15 12.6433C16.3129 12.751 16.4765 12.8577 16.6403 12.9642C16.8907 13.1272 17.1411 13.2903 17.3904 13.4551C17.4881 13.5192 17.5866 13.5822 17.6855 13.6445C17.7354 13.6763 17.7853 13.7081 17.8367 13.741C17.8816 13.7691 17.9264 13.7973 17.9727 13.8263C18.1133 13.938 18.194 14.0475 18.2814 14.2038C18.2858 14.4916 18.1595 14.6878 18.009 14.9216C17.9862 14.9579 17.9633 14.9942 17.9398 15.0316C17.8669 15.1467 17.793 15.2613 17.7189 15.3757C17.6947 15.4135 17.6705 15.4513 17.6456 15.4903C17.1669 16.2355 16.7253 16.8789 15.8245 17.126C14.8351 17.3082 14.1286 16.9222 13.2952 16.4322C13.1934 16.3726 13.0911 16.3141 12.988 16.2566C11.2981 15.3134 9.51168 14.1442 8.24378 12.6636C8.1429 12.5477 8.03833 12.4356 7.93379 12.323C7.68716 12.0521 7.46075 11.7685 7.23826 11.4776C7.1735 11.3932 7.10801 11.3094 7.04243 11.2256C6.74089 10.8363 6.46433 10.4313 6.19355 10.0202C6.1601 9.96978 6.12665 9.91931 6.09218 9.86731C5.5167 8.98443 5.16939 8.07274 5.35127 7.00304C5.56512 6.14564 6.30013 5.60016 6.95564 5.06999C7.09888 4.95262 7.23778 4.83103 7.37568 4.70744C7.52421 4.58099 7.60651 4.53246 7.79902 4.55052ZM7.48261 5.90404C7.30946 6.06206 7.13282 6.21217 6.94941 6.35814C6.58233 6.6573 6.31633 6.92518 6.26661 7.41136C6.23911 8.19903 6.50799 8.74899 6.93769 9.37572C6.98762 9.45032 7.03748 9.52497 7.08729 9.59966C7.38136 10.0378 7.68751 10.4626 8.01582 10.8757C8.06159 10.9343 8.06159 10.9343 8.10829 10.994C8.2012 11.1119 8.29567 11.2284 8.39082 11.3445C8.42834 11.3908 8.46587 11.437 8.50453 11.4847C9.12149 12.2326 9.8121 12.9267 10.5939 13.5007C10.6887 13.5759 10.7834 13.6511 10.8781 13.7263C11.5566 14.2521 12.2951 14.702 13.0314 15.1413C13.0729 15.1662 13.1143 15.191 13.157 15.2166C13.4576 15.3969 13.7596 15.5746 14.0627 15.7507C14.0974 15.7711 14.132 15.7916 14.1678 15.8126C14.6053 16.0689 15.0308 16.2828 15.551 16.1931C16.2375 15.9952 16.5748 15.3726 16.9193 14.7979C16.9689 14.7195 16.9689 14.7195 17.0559 14.612C17.0736 14.5856 17.0913 14.5592 17.1096 14.532C17.0463 14.3422 16.9251 14.2949 16.7609 14.198C16.3442 13.9453 15.9373 13.6784 15.5306 13.4101C15.0318 13.0455 15.0318 13.0455 14.4728 12.8122C14.1722 12.8874 14.046 13.0954 13.8898 13.3454C13.8636 13.3901 13.8373 13.4348 13.8102 13.4808C13.7346 13.5945 13.7346 13.5945 13.5939 13.6882C13.2679 13.7202 13.008 13.6346 12.7033 13.5242C12.6559 13.5073 12.6085 13.4904 12.5597 13.473C12.1526 13.3244 11.7688 13.1496 11.3908 12.9382C11.3444 12.9124 11.298 12.8865 11.2502 12.8598C10.8971 12.6492 10.6041 12.3814 10.3127 12.0945C10.2795 12.0624 10.2462 12.0303 10.212 11.9972C9.59951 11.361 8.94598 10.2233 8.85957 9.32884C8.94234 9.03365 9.1066 8.87839 9.33418 8.68138C9.39397 8.62845 9.45366 8.57542 9.51325 8.52226C9.53961 8.49931 9.56596 8.47636 9.59311 8.45272C9.68323 8.36538 9.70269 8.30083 9.72675 8.17748C9.67285 7.80685 9.30589 7.51458 9.06172 7.2473C8.95323 7.12562 8.85043 7.00077 8.74824 6.87377C8.57264 6.65664 8.38841 6.4502 8.19851 6.24569C8.07783 6.11568 7.96005 5.98415 7.8459 5.84837C7.80916 5.80584 7.77242 5.7633 7.73457 5.71947C7.63813 5.71947 7.54771 5.84398 7.48261 5.90404Z" fill="white"/>
<path d="M13.4559 3.63619C13.5201 3.6612 13.5201 3.6612 13.5856 3.68672C13.9755 3.84151 14.35 4.01914 14.7186 4.2192C14.7675 4.24561 14.8163 4.27201 14.8667 4.29922C16.8963 5.44102 18.4081 7.38987 19.0913 9.60726C19.1382 9.80779 19.136 9.9746 19.0779 10.1723C18.9776 10.297 18.9107 10.347 18.7529 10.3772C18.5819 10.3879 18.4979 10.3778 18.3481 10.2859C18.2107 10.1489 18.1581 10.0127 18.0994 9.83248C18.0757 9.76486 18.0517 9.69729 18.0276 9.62979C18.0154 9.59532 18.0032 9.56086 17.9907 9.52535C17.5666 8.36704 16.9218 7.35876 16.0496 6.48788C15.9843 6.42254 15.9198 6.35647 15.8571 6.28866C15.1035 5.48551 14.0214 4.8896 12.9811 4.55097C12.4099 4.3634 12.4099 4.3634 12.2342 4.15475C12.1658 3.97509 12.1639 3.83233 12.2166 3.64791C12.5255 3.24073 13.0704 3.48346 13.4559 3.63619Z" fill="white"/>
<path d="M13.1251 5.57733C14.609 6.03236 15.8628 7.12085 16.5923 8.48058C16.6804 8.65651 16.7559 8.83685 16.8282 9.01971C16.8419 9.05408 16.8555 9.08845 16.8696 9.12385C16.9656 9.3801 17.0711 9.66502 16.9601 9.92792C16.8218 10.0947 16.7488 10.162 16.5294 10.1945C16.3236 10.1661 16.212 10.0897 16.0782 9.93671C16.0079 9.80688 15.9612 9.6721 15.9142 9.53241C15.8865 9.45645 15.8586 9.38058 15.8305 9.30481C15.8169 9.26829 15.8034 9.23177 15.7894 9.19414C15.3769 8.13325 14.4691 7.25617 13.4389 6.79658C13.2881 6.73205 13.1366 6.66994 12.9845 6.60858C12.9013 6.57387 12.8182 6.5388 12.7355 6.50311C12.7047 6.4903 12.6739 6.47749 12.6423 6.46429C12.5492 6.41381 12.4895 6.36196 12.422 6.28045C12.3712 6.08838 12.3631 5.98417 12.4337 5.79706C12.6109 5.52492 12.8292 5.535 13.1251 5.57733Z" fill="white"/>
<path d="M13.4031 7.5033C14.1811 7.85629 14.7331 8.44573 15.0558 9.23035C15.127 9.44321 15.1789 9.62824 15.0935 9.84412C14.9494 10.002 14.8597 10.07 14.6482 10.1078C14.4403 10.0707 14.3254 10.0131 14.2029 9.84412C14.1435 9.7118 14.0898 9.57809 14.0366 9.44319C13.8016 8.87286 13.346 8.57179 12.7996 8.33533C12.7663 8.3221 12.733 8.30886 12.6987 8.29523C12.5586 8.22507 12.4837 8.15168 12.4304 8.00427C12.4162 7.7961 12.4564 7.62041 12.5886 7.45642C12.8701 7.33373 13.1252 7.39493 13.4031 7.5033Z" fill="white"/>
</g>
<defs>
<clipPath id="clip0_195_1603">
<rect width="24" height="24" fill="white"/>
</clipPath>
</defs>
</svg>
