<svg width="40" height="27" viewBox="0 0 40 27" fill="none" xmlns="http://www.w3.org/2000/svg">
<path d="M0 0C13.2 0 26.4 0 40 0C40 8.81719 40 17.6344 40 26.7188C26.8 26.7188 13.6 26.7188 0 26.7188C0 17.9016 0 9.08438 0 0Z" fill="#D80027"/>
<path d="M17.2344 5C18.9359 5 20.6375 5 22.3906 5C22.3906 6.72734 22.3906 8.45469 22.3906 10.2344C24.118 10.2344 25.8453 10.2344 27.625 10.2344C27.625 11.9359 27.625 13.6375 27.625 15.3906C25.8977 15.3906 24.1703 15.3906 22.3906 15.3906C22.3906 17.118 22.3906 18.8453 22.3906 20.625C20.6891 20.625 18.9875 20.625 17.2344 20.625C17.2344 18.8977 17.2344 17.1703 17.2344 15.3906C15.507 15.3906 13.7797 15.3906 12 15.3906C12 13.6891 12 11.9875 12 10.2344C13.7273 10.2344 15.4547 10.2344 17.2344 10.2344C17.2344 8.50703 17.2344 6.77969 17.2344 5Z" fill="#F0F0F0"/>
</svg>
