<svg width="33" height="30" viewBox="0 0 33 30" fill="none" xmlns="http://www.w3.org/2000/svg">
<path d="M32.6358 0.260578C32.4911 0.133045 32.3149 0.0482516 32.1265 0.015347C31.938 -0.0175576 31.7443 0.00267599 31.5662 0.0738645L1.16608 12.2117C0.796319 12.3594 0.483478 12.6254 0.27454 12.9699C0.0656017 13.3143 -0.0281545 13.7187 0.00735154 14.1222C0.0428575 14.5256 0.205709 14.9065 0.471449 15.2075C0.737189 15.5085 1.09147 15.7134 1.48109 15.7914L9.5994 17.4183V26.63C9.59957 27.057 9.72481 27.4743 9.95907 27.8282C10.1933 28.1821 10.5259 28.4565 10.9141 28.6163C11.3023 28.776 11.7284 28.8137 12.1378 28.7245C12.5471 28.6354 12.9211 28.4235 13.2115 28.116L17.2077 23.8874L23.4449 29.4659C23.8257 29.8096 24.3165 29.9996 24.825 30C25.047 29.9995 25.2677 29.9639 25.479 29.8944C25.8255 29.7825 26.1372 29.5799 26.383 29.3069C26.6289 29.0338 26.8002 28.6997 26.88 28.3379L32.9733 1.31199C33.0161 1.12199 33.0073 0.923667 32.9478 0.738391C32.8884 0.553115 32.7805 0.38791 32.6358 0.260578ZM1.8066 13.984C1.80086 13.9682 1.80086 13.9508 1.8066 13.935C1.81336 13.9297 1.82097 13.9255 1.8291 13.9228L25.7865 4.35449L10.2909 15.6797L1.8291 13.9901L1.8066 13.984ZM11.9155 26.8396C11.8741 26.8834 11.821 26.9136 11.7627 26.9265C11.7045 26.9393 11.6438 26.9341 11.5885 26.9116C11.5331 26.8891 11.4856 26.8503 11.4519 26.8002C11.4183 26.75 11.4 26.6908 11.3995 26.63V18.6886L15.8531 22.6677L11.9155 26.8396ZM25.1265 27.9232C25.1154 27.9749 25.0909 28.0227 25.0556 28.0615C25.0202 28.1002 24.9753 28.1286 24.9255 28.1436C24.8747 28.1618 24.82 28.1657 24.7672 28.1549C24.7145 28.1442 24.6655 28.1191 24.6255 28.0824L11.9455 16.7342L30.7502 2.98475L25.1265 27.9232Z" fill="white"/>
</svg>
