<svg width="40" height="40" viewBox="0 0 40 40" fill="none" xmlns="http://www.w3.org/2000/svg">
<g clip-path="url(#clip0_195_1157)">
<path d="M15.7493 -0.0236506C15.9007 -0.0244377 15.9007 -0.0244377 16.0551 -0.0252408C16.3289 -0.0266062 16.6027 -0.0269867 16.8765 -0.027087C17.0487 -0.027199 17.2208 -0.0275344 17.393 -0.027946C17.9969 -0.0293871 18.6007 -0.0300302 19.2046 -0.0299067C19.7622 -0.0298132 20.3198 -0.0314558 20.8774 -0.0339291C21.3602 -0.0359924 21.8431 -0.0368095 22.326 -0.0367105C22.6125 -0.0366712 22.899 -0.037085 23.1855 -0.0387696C27.2319 -0.060898 30.8304 1.1699 33.8376 3.92971C33.8763 3.96524 33.915 4.00076 33.9549 4.03736C36.4233 6.36376 38.0903 9.81423 38.2958 13.2129C38.3015 13.4627 38.303 13.7121 38.3024 13.9619C38.303 14.1024 38.303 14.1024 38.3036 14.2457C38.3045 14.4995 38.3047 14.7533 38.3045 15.0071C38.3044 15.2207 38.3048 15.4344 38.3052 15.6481C38.306 16.1535 38.3061 16.6589 38.3056 17.1643C38.3051 17.6812 38.3061 18.198 38.3078 18.7149C38.3091 19.1624 38.3096 19.61 38.3094 20.0575C38.3092 20.3232 38.3094 20.5888 38.3105 20.8544C38.3155 22.3764 38.2507 23.8424 37.8024 25.3067C37.7791 25.3844 37.7558 25.4621 37.7317 25.5421C36.9703 27.9959 35.644 30.0665 33.8278 31.8741C33.7625 31.9394 33.6971 32.0048 33.6298 32.0721C31.7894 33.8115 29.4036 34.9588 26.9528 35.5215C26.8867 35.5373 26.8207 35.5532 26.7526 35.5695C25.4002 35.8641 23.9932 35.8802 22.6152 35.8703C22.3651 35.8688 22.1151 35.8686 21.865 35.8689C21.1557 35.8696 20.4463 35.8696 19.737 35.8646C19.2993 35.8616 18.8616 35.8616 18.4239 35.8636C18.2584 35.8638 18.093 35.8629 17.9276 35.8608C17.058 35.8181 17.058 35.8181 16.251 36.0716C16.0948 36.227 15.9804 36.3787 15.8591 36.5616C15.7656 36.649 15.6698 36.7341 15.571 36.8155C15.2868 37.06 15.0109 37.3125 14.736 37.5674C14.3682 37.9082 13.9983 38.2465 13.6246 38.5809C13.4958 38.6964 13.3677 38.8126 13.2401 38.9294C13.047 39.1056 12.8519 39.2792 12.6559 39.4522C12.5963 39.5069 12.5367 39.5615 12.4753 39.6179C12.1277 39.9178 11.8807 40.0599 11.4169 40.0564C11.1532 39.966 10.9939 39.8495 10.8591 39.6084C10.7981 39.249 10.8027 38.8916 10.8038 38.5278C10.8028 38.4215 10.8016 38.3152 10.8003 38.2089C10.7971 37.9301 10.7963 37.6513 10.796 37.3724C10.7953 37.0875 10.7924 36.8027 10.7896 36.5178C10.7846 35.9594 10.782 35.4011 10.7809 34.8428C10.7245 34.8161 10.6681 34.7894 10.61 34.7619C10.3523 34.6396 10.0948 34.5169 9.83734 34.3942C9.7486 34.3522 9.65987 34.3102 9.56844 34.2669C8.96855 33.9805 8.4209 33.6828 7.89032 33.2803C7.80945 33.2213 7.72858 33.1623 7.64526 33.1015C7.00913 32.631 6.43077 32.1075 5.85907 31.5616C5.80791 31.5145 5.75675 31.4675 5.70404 31.419C3.30076 29.1474 1.82634 25.5437 1.68924 22.2774C1.6739 21.6977 1.67488 21.1181 1.67694 20.5383C1.67687 20.3246 1.67642 20.1109 1.67603 19.8972C1.67547 19.4525 1.6762 19.0078 1.6777 18.5631C1.6794 18.0544 1.67885 17.5458 1.67713 17.0371C1.6757 16.5944 1.67552 16.1516 1.67633 15.7089C1.67681 15.4471 1.67678 15.1853 1.67585 14.9235C1.66486 10.9507 2.9468 7.3869 5.64911 4.44241C5.68463 4.40368 5.72016 4.36496 5.75676 4.32507C8.28774 1.63964 12.0574 -0.0264653 15.7493 -0.0236506ZM8.43719 4.13967C8.36801 4.19134 8.29882 4.243 8.22754 4.29623C5.7406 6.24365 4.12459 8.9739 3.49579 12.0547C3.48303 12.1172 3.47027 12.1796 3.45713 12.244C3.31081 13.0032 3.26928 13.7616 3.26712 14.5335C3.2666 14.6151 3.26609 14.6967 3.26556 14.7807C3.26403 15.0482 3.26311 15.3157 3.26233 15.5832C3.26201 15.6756 3.26169 15.768 3.26136 15.8633C3.25974 16.3534 3.25862 16.8434 3.25788 17.3335C3.25702 17.834 3.25434 18.3344 3.25123 18.8349C3.24916 19.2246 3.24853 19.6143 3.24825 20.0041C3.24788 20.1882 3.24698 20.3724 3.24551 20.5566C3.21693 24.3787 4.42523 27.7723 7.09747 30.5371C7.44241 30.8838 7.81147 31.1904 8.20282 31.4834C8.24356 31.5144 8.28429 31.5454 8.32626 31.5773C9.32303 32.3316 10.3677 32.9311 11.5392 33.372C11.5988 33.3953 11.6583 33.4186 11.7197 33.4427C11.7723 33.4623 11.8249 33.482 11.879 33.5022C12.1051 33.637 12.2074 33.7555 12.3434 33.9834C12.39 34.241 12.3907 34.4952 12.3911 34.7564C12.3923 34.8304 12.3936 34.9045 12.395 34.9807C12.3988 35.2163 12.4004 35.4519 12.402 35.6875C12.4042 35.8476 12.4066 36.0077 12.4091 36.1677C12.4148 36.5594 12.4187 36.9511 12.4216 37.3428C12.6649 37.2263 12.838 37.1046 13.0331 36.9171C13.1173 36.8369 13.1173 36.8369 13.2031 36.7552C13.261 36.6993 13.3189 36.6435 13.3786 36.586C13.7596 36.2209 14.1431 35.8621 14.5421 35.5168C14.6763 35.3992 14.8071 35.2791 14.9368 35.1565C14.9941 35.1026 14.9941 35.1026 15.0525 35.0476C15.1289 34.9753 15.205 34.9026 15.2808 34.8297C15.8134 34.3309 16.2378 34.2616 16.9407 34.2659C17.0252 34.2654 17.1098 34.265 17.1969 34.2646C17.3803 34.2638 17.5637 34.2636 17.747 34.2638C18.0386 34.2642 18.3301 34.2631 18.6216 34.2616C19.2421 34.2587 19.8626 34.2577 20.4831 34.2569C21.1991 34.2559 21.9151 34.2542 22.6311 34.2506C22.916 34.2496 23.2008 34.2499 23.4856 34.2503C24.786 34.2472 26.0417 34.1515 27.2946 33.7783C27.3618 33.7586 27.4289 33.7388 27.4981 33.7184C30.6814 32.7439 33.4733 30.5876 35.0747 27.6462C35.1554 27.4937 35.2342 27.3404 35.3122 27.1865C35.3373 27.1372 35.3625 27.0879 35.3884 27.0371C36.007 25.8083 36.4475 24.4839 36.6141 23.1161C36.624 23.0354 36.6339 22.9546 36.6441 22.8715C36.7472 21.9567 36.7509 21.0458 36.7468 20.1263C36.7468 19.943 36.7468 19.7597 36.7469 19.5764C36.7469 19.1959 36.7461 18.8155 36.7447 18.435C36.7429 17.9511 36.7429 17.4672 36.7434 16.9832C36.7437 16.606 36.7432 16.2289 36.7424 15.8517C36.7421 15.6733 36.742 15.495 36.7421 15.3166C36.7426 11.3607 35.5452 7.99809 32.7585 5.15041C30.9837 3.38444 28.6626 2.27386 26.2253 1.77639C26.1628 1.76363 26.1004 1.75087 26.036 1.73773C25.256 1.58742 24.4792 1.54985 23.6863 1.5502C23.5984 1.54994 23.5105 1.54967 23.4199 1.5494C23.1317 1.54867 22.8435 1.54851 22.5552 1.54842C22.353 1.54817 22.1507 1.54791 21.9484 1.54764C21.5251 1.54717 21.1018 1.54702 20.6785 1.54707C20.1927 1.54712 19.7069 1.54629 19.2211 1.54506C18.75 1.5439 18.2788 1.54363 17.8077 1.54368C17.609 1.54359 17.4104 1.54325 17.2118 1.54264C13.9931 1.5337 11.0517 2.17968 8.43719 4.13967Z" fill="#3481EB"/>
<path d="M12.9984 7.58225C13.0863 7.58845 13.0863 7.58845 13.176 7.59476C13.4404 7.68218 13.5639 7.84125 13.7503 8.04612C13.8231 8.1229 13.8959 8.19959 13.9688 8.27622C14.4014 8.74019 14.8158 9.21166 15.213 9.70658C15.408 9.94168 15.6126 10.1664 15.8206 10.3899C16.1618 10.7567 16.4838 11.1349 16.7972 11.526C16.9307 11.6901 17.0691 11.8456 17.2122 12.0012C17.6621 12.5286 17.8347 13.1394 17.8128 13.8274C17.7126 14.5911 17.3445 15.1372 16.763 15.6291C16.697 15.6791 16.6309 15.729 16.5628 15.7805C16.7882 17.277 17.9261 18.7866 19.0833 19.6877C19.8602 20.2518 21.0484 21.0149 22.0316 21.0149C22.1675 20.8733 22.1675 20.8733 22.2855 20.6877C22.6501 20.1933 23.0676 19.9093 23.6728 19.7868C24.6382 19.6506 25.3473 20.0318 26.1331 20.5559C26.2611 20.6395 26.3891 20.7232 26.517 20.8068C26.6505 20.8943 26.7836 20.9822 26.9166 21.0702C27.1882 21.2498 27.4609 21.4276 27.7338 21.6051C28.1512 21.8768 28.5685 22.1485 28.984 22.4233C29.1469 22.53 29.3109 22.6351 29.4758 22.7388C29.559 22.7919 29.6421 22.845 29.7278 22.8996C29.8026 22.9466 29.8774 22.9935 29.9544 23.0418C30.1889 23.228 30.3233 23.4105 30.4691 23.6711C30.4763 24.1508 30.2658 24.4777 30.015 24.8674C29.9769 24.9279 29.9389 24.9883 29.8997 25.0506C29.7781 25.2426 29.655 25.4335 29.5316 25.6242C29.4912 25.6872 29.4509 25.7502 29.4093 25.8151C28.6115 27.0572 27.8756 28.1295 26.3742 28.5414C24.7252 28.845 23.5477 28.2018 22.1587 27.385C21.989 27.2857 21.8185 27.1882 21.6467 27.0924C18.8301 25.5203 15.8528 23.5718 13.7396 21.104C13.5715 20.9108 13.3972 20.724 13.223 20.5364C12.8119 20.085 12.4346 19.6121 12.0638 19.1274C11.9558 18.9867 11.8467 18.8471 11.7374 18.7074C11.2348 18.0585 10.7739 17.3836 10.3226 16.6985C10.2668 16.6143 10.2111 16.5302 10.1536 16.4436C9.1945 14.9721 8.61566 13.4526 8.91878 11.6698C9.2752 10.2408 10.5002 9.33164 11.5927 8.44804C11.8315 8.25241 12.063 8.04976 12.2928 7.84379C12.5403 7.63303 12.6775 7.55214 12.9984 7.58225ZM12.471 9.83811C12.1824 10.1015 11.888 10.3517 11.5824 10.5949C10.9706 11.0935 10.5272 11.54 10.4444 12.3503C10.3985 13.6631 10.8466 14.5797 11.5628 15.6242C11.646 15.7486 11.7291 15.873 11.8122 15.9975C12.3023 16.7277 12.8125 17.4358 13.3597 18.1242C13.436 18.2218 13.436 18.2218 13.5138 18.3214C13.6687 18.5179 13.8261 18.712 13.9847 18.9055C14.0472 18.9826 14.1098 19.0598 14.1742 19.1393C15.2025 20.3856 16.3535 21.5425 17.6566 22.4992C17.8145 22.6245 17.9724 22.7498 18.1302 22.8752C19.261 23.7516 20.4919 24.5014 21.7191 25.2336C21.7881 25.275 21.8571 25.3165 21.9283 25.3591C22.4293 25.6595 22.9327 25.9557 23.4378 26.2492C23.4956 26.2833 23.5534 26.3173 23.613 26.3524C24.3421 26.7796 25.0513 27.136 25.9183 26.9865C27.0626 26.6567 27.6247 25.6191 28.1988 24.6612C28.2816 24.5305 28.2816 24.5305 28.4265 24.3514C28.456 24.3073 28.4855 24.2633 28.5159 24.218C28.4105 23.9017 28.2086 23.8229 27.9349 23.6614C27.2403 23.2402 26.5622 22.7954 25.8843 22.3481C25.053 21.7405 25.053 21.7405 24.1214 21.3518C23.6204 21.477 23.41 21.8237 23.1497 22.2405C23.1059 22.3149 23.0621 22.3893 23.017 22.466C22.8909 22.6555 22.8909 22.6555 22.6566 22.8117C22.1131 22.8651 21.68 22.7224 21.1722 22.5383C21.0932 22.5102 21.0142 22.482 20.9329 22.453C20.2544 22.2053 19.6147 21.914 18.9847 21.5617C18.9074 21.5186 18.83 21.4755 18.7503 21.4311C18.1618 21.08 17.6735 20.6337 17.1878 20.1555C17.1324 20.102 17.077 20.0485 17.02 19.9934C15.9992 18.9331 14.91 17.0368 14.7659 15.5461C14.9039 15.0541 15.1777 14.7954 15.557 14.467C15.6566 14.3788 15.7561 14.2904 15.8554 14.2018C15.8993 14.1636 15.9433 14.1253 15.9885 14.0859C16.1387 13.9403 16.1711 13.8328 16.2113 13.6272C16.1214 13.0095 15.5098 12.5223 15.1029 12.0769C14.922 11.8741 14.7507 11.666 14.5804 11.4543C14.2877 11.0925 13.9807 10.7484 13.6642 10.4075C13.4631 10.1908 13.2667 9.97163 13.0765 9.74534C13.0153 9.67444 12.954 9.60354 12.8909 9.53049C12.7302 9.53049 12.5795 9.73801 12.471 9.83811Z" fill="#3481EB"/>
<path d="M22.4258 6.05902C22.5328 6.10071 22.5328 6.10071 22.642 6.14323C23.2919 6.40122 23.916 6.69727 24.5303 7.0307C24.6118 7.07471 24.6932 7.11872 24.7772 7.16406C28.1598 9.06706 30.6796 12.3152 31.8182 16.0108C31.8964 16.345 31.8926 16.623 31.7959 16.9526C31.6286 17.1604 31.5171 17.2436 31.2542 17.2941C30.9692 17.3119 30.8292 17.2951 30.5795 17.1418C30.3505 16.9135 30.2628 16.6865 30.1651 16.3862C30.1255 16.2735 30.0856 16.1609 30.0454 16.0483C30.0251 15.9909 30.0047 15.9335 29.9838 15.8743C29.2769 13.9438 28.2023 12.2633 26.7486 10.8118C26.6399 10.7029 26.5323 10.5928 26.4279 10.4798C25.1718 9.14121 23.3683 8.14803 21.6346 7.58364C20.6825 7.27102 20.6825 7.27102 20.3897 6.92328C20.2756 6.62385 20.2726 6.38591 20.3604 6.07855C20.8752 5.39991 21.7833 5.80446 22.4258 6.05902Z" fill="#3481EB"/>
<path d="M21.8747 9.2975C24.3478 10.0559 26.4376 11.87 27.6533 14.1363C27.8001 14.4295 27.9259 14.73 28.0466 15.0348C28.0693 15.0921 28.092 15.1494 28.1155 15.2084C28.2755 15.6355 28.4513 16.1103 28.2663 16.5485C28.0359 16.8265 27.9142 16.9386 27.5485 16.9928C27.2056 16.9455 27.0196 16.8181 26.7966 16.5631C26.6794 16.3467 26.6015 16.1221 26.5231 15.8893C26.4771 15.7627 26.4306 15.6363 26.3837 15.51C26.3611 15.4491 26.3385 15.3882 26.3153 15.3255C25.6278 13.5574 24.1147 12.0956 22.3977 11.3296C22.1464 11.222 21.8938 11.1185 21.6403 11.0163C21.5017 10.9584 21.3632 10.9 21.2253 10.8405C21.174 10.8191 21.1228 10.7978 21.0699 10.7758C20.9148 10.6916 20.8154 10.6052 20.7028 10.4694C20.6182 10.1492 20.6047 9.97557 20.7223 9.66371C21.0177 9.21015 21.3815 9.22695 21.8747 9.2975Z" fill="#3481EB"/>
<path d="M22.3385 12.5055C23.6351 13.0938 24.5552 14.0762 25.093 15.3839C25.2116 15.7387 25.2981 16.0471 25.1559 16.4069C24.9156 16.67 24.7661 16.7834 24.4137 16.8463C24.0672 16.7845 23.8757 16.6885 23.6715 16.4069C23.5725 16.1863 23.4829 15.9635 23.3943 15.7386C23.0027 14.7881 22.2433 14.2863 21.3326 13.8922C21.2771 13.8702 21.2216 13.8481 21.1645 13.8254C20.9311 13.7084 20.8061 13.5861 20.7174 13.3405C20.6937 12.9935 20.7607 12.7007 20.9811 12.4274C21.4502 12.2229 21.8753 12.3249 22.3385 12.5055Z" fill="#3481EB"/>
</g>
<defs>
<clipPath id="clip0_195_1157">
<rect width="40" height="40" fill="white"/>
</clipPath>
</defs>
</svg>
