<svg width="379" height="67" viewBox="0 0 379 67" fill="none" xmlns="http://www.w3.org/2000/svg">
<path d="M51.85 10.24C53.1533 10.0133 54.655 9.75833 56.355 9.475C58.055 9.19167 59.755 9.02167 61.455 8.965C63.2117 8.90833 64.8833 8.99333 66.47 9.22C68.1133 9.44666 69.5017 9.9 70.635 10.58C71.0883 10.8633 71.655 11.3167 72.335 11.94C73.0717 12.5633 73.7233 13.2717 74.29 14.065C74.9133 14.8017 75.395 15.5667 75.735 16.36C76.075 17.0967 76.1033 17.7483 75.82 18.315C75.7067 18.5417 75.48 18.7967 75.14 19.08C74.8567 19.3067 74.5167 19.5333 74.12 19.76C73.7233 19.9867 73.3267 20.185 72.93 20.355C72.5333 20.525 72.2217 20.6667 71.995 20.78C71.485 21.0067 70.9467 21.2333 70.38 21.46C69.87 21.6867 69.3883 21.9417 68.935 22.225C69.7283 22.1683 70.4933 22.0833 71.23 21.97C71.9667 21.8567 72.7317 21.7433 73.525 21.63C74.0917 21.5733 74.63 21.5167 75.14 21.46C75.7067 21.3467 76.2733 21.3467 76.84 21.46C77.01 21.5167 77.1517 21.545 77.265 21.545C77.435 21.545 77.5767 21.5733 77.69 21.63C78.54 22.48 79.4183 23.245 80.325 23.925C81.2317 24.605 82.1667 25.285 83.13 25.965C83.5833 26.305 84.1217 26.7583 84.745 27.325C85.425 27.835 85.8217 28.4017 85.935 29.025C86.0483 29.4783 86.02 29.9317 85.85 30.385C85.7367 30.8383 85.5383 31.2633 85.255 31.66C84.8017 32.3967 84.235 33.105 83.555 33.785C82.875 34.465 82.2233 35.1167 81.6 35.74C78.71 38.1767 75.31 40.3867 71.4 42.37C67.5467 44.2967 63.41 46.025 58.99 47.555C54.57 49.085 49.9517 50.4167 45.135 51.55C40.375 52.6833 35.6433 53.6183 30.94 54.355C26.2367 55.0917 21.675 55.6583 17.255 56.055C12.8917 56.4517 8.86833 56.6783 5.185 56.735C4.90167 56.735 4.505 56.82 3.995 56.99C3.485 57.1033 3.17333 57.0183 3.06 56.735C2.94667 56.3383 2.74833 55.6583 2.465 54.695C2.18167 53.7317 1.89833 52.74 1.615 51.72C1.33167 50.6433 1.07667 49.68 0.85 48.83C0.623333 47.9233 0.538333 47.3567 0.595 47.13C0.595 47.0733 0.991667 46.705 1.785 46.025C2.57833 45.345 3.54167 44.495 4.675 43.475C5.865 42.455 7.14 41.3783 8.5 40.245C9.86 39.055 11.135 37.95 12.325 36.93C13.5717 35.8533 14.62 34.9467 15.47 34.21C16.3767 33.4167 16.9433 32.935 17.17 32.765C19.55 30.7817 21.9017 28.7983 24.225 26.815C26.605 24.775 28.985 22.735 31.365 20.695C24.3383 22.8483 17.5667 25.4833 11.05 28.6C9.74667 29.2233 8.44333 29.875 7.14 30.555C5.83667 31.235 4.56167 31.9717 3.315 32.765H3.23L2.04 30.215C2.21 29.9883 2.465 29.7617 2.805 29.535C3.145 29.2517 3.45667 29.025 3.74 28.855C4.93 28.005 6.17667 27.2117 7.48 26.475C8.78333 25.6817 10.0867 24.9167 11.39 24.18C13.2033 23.16 15.045 22.225 16.915 21.375C18.8417 20.4683 20.7683 19.6183 22.695 18.825C25.585 17.635 28.5033 16.5583 31.45 15.595C34.3967 14.575 37.4 13.6683 40.46 12.875C40.63 12.7617 41.0833 12.3933 41.82 11.77C42.5567 11.09 43.435 10.325 44.455 9.475C45.5317 8.56833 46.6367 7.63333 47.77 6.67C48.9033 5.65 49.9517 4.715 50.915 3.865C51.935 3.015 52.785 2.335 53.465 1.825C54.145 1.25833 54.5133 0.974996 54.57 0.974996C54.74 0.974996 55.1367 1.145 55.76 1.48499C56.44 1.76833 57.12 2.10833 57.8 2.505C58.48 2.90167 59.0467 3.29833 59.5 3.695C59.9533 4.09166 60.0667 4.34667 59.84 4.46C58.48 5.31 57.12 6.245 55.76 7.265C54.4567 8.22833 53.1533 9.22 51.85 10.24ZM7.055 48.49C9.66167 48.6033 12.2967 48.575 14.96 48.405C17.68 48.235 20.3717 48.0083 23.035 47.725C26.4917 47.385 29.8917 46.9883 33.235 46.535C36.635 46.025 40.035 45.43 43.435 44.75C46.0417 44.24 48.9317 43.6167 52.105 42.88C55.2783 42.0867 58.4517 41.18 61.625 40.16C64.855 39.0833 67.915 37.865 70.805 36.505C73.7517 35.0883 76.245 33.5017 78.285 31.745C78.5117 31.575 78.7667 31.3483 79.05 31.065C79.39 30.725 79.7017 30.385 79.985 30.045C80.2683 29.705 80.4667 29.365 80.58 29.025C80.75 28.6283 80.7783 28.26 80.665 27.92C80.4383 27.41 79.9283 27.0417 79.135 26.815C78.3417 26.5317 77.3783 26.3617 76.245 26.305C75.1683 26.2483 73.9783 26.2483 72.675 26.305C71.4283 26.305 70.21 26.3617 69.02 26.475C67.83 26.5883 66.7533 26.73 65.79 26.9C64.8267 27.0133 64.1183 27.0983 63.665 27.155C62.305 27.3817 60.945 27.6083 59.585 27.835C58.225 28.0617 56.8367 28.3167 55.42 28.6C53.4933 28.94 51.5667 29.3083 49.64 29.705C47.7133 30.045 45.7867 30.4417 43.86 30.895C41.31 31.405 38.76 31.9717 36.21 32.595C33.7167 33.1617 31.2517 33.8133 28.815 34.55L28.73 34.465L28.9 31.915C29.4667 31.6317 30.0333 31.405 30.6 31.235C31.1667 31.0083 31.7617 30.7817 32.385 30.555C33.915 29.9883 35.53 29.3933 37.23 28.77C39.27 28.09 41.31 27.4383 43.35 26.815C45.4467 26.135 47.5433 25.455 49.64 24.775C52.1333 23.9817 54.5983 23.16 57.035 22.31C59.4717 21.46 61.9083 20.5533 64.345 19.59C64.6283 19.4767 65.1383 19.2783 65.875 18.995C66.6117 18.7117 67.3767 18.3717 68.17 17.975C68.9633 17.5783 69.6717 17.1817 70.295 16.785C70.9183 16.3883 71.2583 16.02 71.315 15.68C71.3717 15.2833 71.145 14.9717 70.635 14.745C70.1817 14.5183 69.615 14.3483 68.935 14.235C68.3117 14.1217 67.6883 14.065 67.065 14.065C66.4983 14.0083 66.1017 13.98 65.875 13.98C63.835 13.98 61.7383 14.0933 59.585 14.32C57.4883 14.49 55.4483 14.745 53.465 15.085C51.6517 15.3683 49.7817 15.7367 47.855 16.19C45.985 16.6433 44.1717 17.1817 42.415 17.805L35.275 23.925H35.19C30.94 27.665 26.7467 31.3767 22.61 35.06C18.4733 38.7433 14.195 42.37 9.775 45.94L7.055 48.49ZM91.8113 46.025C92.4346 45.9683 93.0296 45.855 93.5963 45.685C94.163 45.515 94.7013 45.2883 95.2113 45.005C95.6646 44.7217 96.0896 44.4667 96.4863 44.24C96.9396 44.0133 97.3646 43.7867 97.7613 43.56C98.3846 43.1633 98.753 43.0217 98.8663 43.135C98.9796 43.2483 99.2913 43.5317 99.8013 43.985C99.9146 44.0983 99.858 44.2683 99.6313 44.495L98.8663 45.005C98.243 45.515 97.563 46.0533 96.8263 46.62C96.1463 47.13 95.4096 47.5833 94.6163 47.98C93.8796 48.32 93.0863 48.5467 92.2363 48.66C91.3863 48.7733 90.5363 48.6317 89.6863 48.235C89.1763 48.6883 88.553 49.1983 87.8163 49.765C87.1363 50.3317 86.3996 50.785 85.6063 51.125C84.8696 51.4083 84.1046 51.4933 83.3113 51.38C82.5746 51.2667 81.923 50.785 81.3563 49.935L79.3163 46.96C78.8063 46.2233 78.6363 45.4017 78.8063 44.495C79.033 43.5317 79.4013 42.5967 79.9113 41.69C80.4213 40.7833 81.0163 39.9333 81.6963 39.14C82.3763 38.3467 82.9713 37.7233 83.4813 37.27C84.218 36.5333 84.983 35.8533 85.7763 35.23C86.5696 34.55 87.4196 33.9833 88.3263 33.53C88.9496 33.2467 89.6296 32.9917 90.3663 32.765C91.103 32.4817 91.783 32.4533 92.4063 32.68H92.4913L96.7413 37.355C96.968 37.6383 96.9113 38.205 96.5713 39.055C96.2313 39.8483 95.7496 40.7267 95.1263 41.69C94.5596 42.5967 93.9363 43.475 93.2563 44.325C92.633 45.175 92.1513 45.7417 91.8113 46.025ZM89.3463 45.43C89.5163 45.26 89.828 44.8917 90.2813 44.325C90.7346 43.7583 91.188 43.135 91.6413 42.455C92.0946 41.7183 92.5196 40.9817 92.9163 40.245C93.3696 39.5083 93.653 38.885 93.7663 38.375C93.8796 37.8083 93.7946 37.4117 93.5113 37.185C93.228 36.9017 92.6613 36.8733 91.8113 37.1C91.5846 37.44 91.2163 38.0067 90.7063 38.8C90.253 39.5367 89.828 40.33 89.4313 41.18C89.0913 41.9733 88.8646 42.7667 88.7513 43.56C88.638 44.3533 88.8363 44.9767 89.3463 45.43ZM87.8163 46.875C87.1363 46.025 86.7963 45.09 86.7963 44.07C86.7963 43.05 86.938 42.0583 87.2213 41.095C86.6546 41.8883 86.1163 42.71 85.6063 43.56C85.0963 44.3533 84.643 45.175 84.2463 46.025C84.133 46.2517 83.9913 46.5633 83.8213 46.96C83.708 47.3567 83.793 47.6683 84.0763 47.895C84.4163 48.1783 84.898 48.235 85.5213 48.065C86.1446 47.8383 86.598 47.64 86.8813 47.47C87.0513 47.3567 87.2213 47.2717 87.3913 47.215C87.5613 47.1017 87.703 46.9883 87.8163 46.875ZM108.693 48.15C108.126 48.49 107.446 48.8867 106.653 49.34C105.86 49.7933 105.038 50.19 104.188 50.53C103.338 50.87 102.488 51.125 101.638 51.295C100.788 51.4083 100.023 51.3517 99.3431 51.125C98.9464 51.125 98.5214 50.8133 98.0681 50.19C97.6148 49.5667 97.3314 49.1133 97.2181 48.83C96.9914 48.49 96.7648 48.065 96.5381 47.555C96.3114 46.9883 96.2264 46.5067 96.2831 46.11C96.2831 45.8833 96.5381 45.43 97.0481 44.75C97.5581 44.07 98.1248 43.3617 98.7481 42.625C99.4281 41.8883 100.136 41.18 100.873 40.5C101.61 39.7633 102.29 39.1117 102.913 38.545C103.536 37.9783 103.933 37.695 104.103 37.695C104.386 37.695 104.755 37.9217 105.208 38.375C105.718 38.7717 106.058 39.055 106.228 39.225C106.455 39.4517 106.766 39.8483 107.163 40.415C107.616 40.925 107.786 41.3217 107.673 41.605V41.775C107.56 42.0017 107.39 42.2 107.163 42.37C106.936 42.4833 106.738 42.625 106.568 42.795C106.115 43.2483 105.321 44.24 104.188 45.77L102.148 48.065C104.131 47.7817 105.803 47.1017 107.163 46.025C108.523 44.8917 109.855 43.6167 111.158 42.2C111.895 41.2933 112.773 40.33 113.793 39.31C113.963 39.14 114.36 38.7433 114.983 38.12C115.606 37.44 116.258 36.76 116.938 36.08C117.675 35.3433 118.355 34.6917 118.978 34.125C119.601 33.5583 119.998 33.275 120.168 33.275C120.451 33.275 120.82 33.5017 121.273 33.955C121.783 34.3517 122.123 34.635 122.293 34.805C122.463 35.0317 122.746 35.4283 123.143 35.995C123.596 36.505 123.766 36.9017 123.653 37.185V37.355C123.54 37.5817 123.37 37.78 123.143 37.95C122.973 38.0633 122.803 38.205 122.633 38.375C122.18 38.8283 121.755 39.2533 121.358 39.65C120.961 40.0467 120.536 40.4717 120.083 40.925L116.088 45.77L114.048 48.065C114.728 47.9517 115.521 47.725 116.428 47.385C117.335 46.9883 118.241 46.5917 119.148 46.195C120.055 45.7417 120.905 45.2883 121.698 44.835C122.548 44.325 123.256 43.9 123.823 43.56C124.503 43.1633 124.9 43.0217 125.013 43.135C125.126 43.2483 125.438 43.5317 125.948 43.985C125.948 44.0417 125.891 44.2117 125.778 44.495L125.013 45.005C124.276 45.5717 123.313 46.28 122.123 47.13C120.99 47.9233 119.771 48.6883 118.468 49.425C117.165 50.105 115.861 50.6433 114.558 51.04C113.255 51.4367 112.15 51.465 111.243 51.125C111.016 51.125 110.761 51.0117 110.478 50.785C110.251 50.5583 110.025 50.3033 109.798 50.02C109.571 49.68 109.345 49.34 109.118 49C108.948 48.66 108.806 48.3767 108.693 48.15ZM137.051 46.025C137.674 45.9683 138.269 45.855 138.836 45.685C139.402 45.515 139.941 45.2883 140.451 45.005C140.904 44.7217 141.329 44.4667 141.726 44.24C142.179 44.0133 142.604 43.7867 143.001 43.56C143.624 43.1633 143.992 43.0217 144.106 43.135C144.219 43.2483 144.531 43.5317 145.041 43.985C145.154 44.0983 145.097 44.2683 144.871 44.495L144.106 45.005C143.482 45.515 142.802 46.0533 142.066 46.62C141.386 47.13 140.649 47.5833 139.856 47.98C139.119 48.32 138.326 48.5467 137.476 48.66C136.626 48.7733 135.776 48.6317 134.926 48.235C134.416 48.6883 133.792 49.1983 133.056 49.765C132.376 50.3317 131.639 50.785 130.846 51.125C130.109 51.4083 129.344 51.4933 128.551 51.38C127.814 51.2667 127.162 50.785 126.596 49.935L124.556 46.96C124.046 46.2233 123.876 45.4017 124.046 44.495C124.272 43.5317 124.641 42.5967 125.151 41.69C125.661 40.7833 126.256 39.9333 126.936 39.14C127.616 38.3467 128.211 37.7233 128.721 37.27C129.457 36.5333 130.222 35.8533 131.016 35.23C131.809 34.55 132.659 33.9833 133.566 33.53C134.189 33.2467 134.869 32.9917 135.606 32.765C136.342 32.4817 137.022 32.4533 137.646 32.68H137.731L141.981 37.355C142.207 37.6383 142.151 38.205 141.811 39.055C141.471 39.8483 140.989 40.7267 140.366 41.69C139.799 42.5967 139.176 43.475 138.496 44.325C137.872 45.175 137.391 45.7417 137.051 46.025ZM134.586 45.43C134.756 45.26 135.067 44.8917 135.521 44.325C135.974 43.7583 136.427 43.135 136.881 42.455C137.334 41.7183 137.759 40.9817 138.156 40.245C138.609 39.5083 138.892 38.885 139.006 38.375C139.119 37.8083 139.034 37.4117 138.751 37.185C138.467 36.9017 137.901 36.8733 137.051 37.1C136.824 37.44 136.456 38.0067 135.946 38.8C135.492 39.5367 135.067 40.33 134.671 41.18C134.331 41.9733 134.104 42.7667 133.991 43.56C133.877 44.3533 134.076 44.9767 134.586 45.43ZM133.056 46.875C132.376 46.025 132.036 45.09 132.036 44.07C132.036 43.05 132.177 42.0583 132.461 41.095C131.894 41.8883 131.356 42.71 130.846 43.56C130.336 44.3533 129.882 45.175 129.486 46.025C129.372 46.2517 129.231 46.5633 129.061 46.96C128.947 47.3567 129.032 47.6683 129.316 47.895C129.656 48.1783 130.137 48.235 130.761 48.065C131.384 47.8383 131.837 47.64 132.121 47.47C132.291 47.3567 132.461 47.2717 132.631 47.215C132.801 47.1017 132.942 46.9883 133.056 46.875ZM151.297 49.85C150.731 50.19 150.079 50.53 149.342 50.87C148.662 51.1533 147.982 51.3233 147.302 51.38C146.622 51.38 145.999 51.2383 145.432 50.955C144.866 50.6717 144.412 50.105 144.072 49.255L142.627 45.855C142.344 45.175 142.287 44.4667 142.457 43.73C142.627 42.9933 142.911 42.2567 143.307 41.52C143.704 40.7833 144.157 40.1317 144.667 39.565C145.234 38.9417 145.744 38.4033 146.197 37.95C146.707 37.4967 147.302 36.9867 147.982 36.42C148.719 35.7967 149.484 35.23 150.277 34.72C151.071 34.21 151.864 33.8133 152.657 33.53C153.507 33.19 154.329 33.0483 155.122 33.105C156.312 33.3317 157.389 33.9833 158.352 35.06C159.372 36.1367 160.194 37.1567 160.817 38.12C161.384 37.3267 161.951 36.505 162.517 35.655C163.141 34.805 163.792 33.955 164.472 33.105C164.699 32.8783 165.067 32.935 165.577 33.275C166.087 33.5583 166.597 33.9833 167.107 34.55C167.617 35.1167 168.042 35.6833 168.382 36.25C168.779 36.76 168.892 37.1 168.722 37.27C165.946 40.8967 163.197 44.4667 160.477 47.98C157.814 51.4367 154.726 54.6383 151.212 57.585C148.719 59.7383 146.056 61.58 143.222 63.11C140.446 64.64 137.442 65.7167 134.212 66.34C133.986 66.17 133.674 65.7733 133.277 65.15C132.824 64.5267 132.456 63.875 132.172 63.195C131.889 62.4583 131.747 61.7783 131.747 61.155C131.691 60.5317 131.917 60.135 132.427 59.965C132.654 60.0783 132.994 60.1633 133.447 60.22C133.844 60.22 134.269 60.22 134.722 60.22C135.176 60.1633 135.629 60.1067 136.082 60.05C136.479 59.9933 136.791 59.9367 137.017 59.88C138.377 59.6533 139.709 59.2 141.012 58.52C142.316 57.7833 143.562 56.9617 144.752 56.055C145.999 55.0917 147.161 54.0717 148.237 52.995C149.371 51.9183 150.391 50.87 151.297 49.85ZM147.642 45.77C147.076 46.5633 146.849 47.1583 146.962 47.555C147.132 47.895 147.444 48.0933 147.897 48.15C148.351 48.2067 148.861 48.15 149.427 47.98C150.051 47.81 150.589 47.5833 151.042 47.3L152.742 46.28C152.969 46.11 153.536 45.6 154.442 44.75C155.406 43.8433 156.284 42.9083 157.077 41.945C157.871 40.925 158.352 40.0183 158.522 39.225C158.749 38.4317 158.267 38.0633 157.077 38.12C156.907 38.12 156.766 38.1483 156.652 38.205C155.972 38.375 155.122 38.8 154.102 39.48C153.139 40.16 152.346 40.755 151.722 41.265C151.042 41.8883 150.334 42.5967 149.597 43.39C148.861 44.1833 148.209 44.9767 147.642 45.77ZM177.839 48.15C177.272 48.49 176.592 48.8867 175.799 49.34C175.005 49.7933 174.184 50.19 173.334 50.53C172.484 50.87 171.634 51.125 170.784 51.295C169.934 51.4083 169.169 51.3517 168.489 51.125C168.092 51.125 167.667 50.8133 167.214 50.19C166.76 49.5667 166.477 49.1133 166.364 48.83C166.137 48.49 165.91 48.065 165.684 47.555C165.457 46.9883 165.372 46.5067 165.429 46.11C165.429 45.8833 165.684 45.43 166.194 44.75C166.704 44.07 167.27 43.3617 167.894 42.625C168.574 41.8883 169.197 41.2083 169.764 40.585C170.387 39.9617 170.812 39.5367 171.039 39.31C171.209 39.14 171.605 38.7433 172.229 38.12C172.852 37.44 173.532 36.76 174.269 36.08C175.005 35.3433 175.685 34.6917 176.309 34.125C176.932 33.5583 177.329 33.275 177.499 33.275C177.782 33.275 178.15 33.5017 178.604 33.955C179.114 34.3517 179.454 34.635 179.624 34.805C179.85 35.0317 180.162 35.4283 180.559 35.995C181.012 36.505 181.182 36.9017 181.069 37.185V37.355C180.955 37.5817 180.785 37.78 180.559 37.95C180.332 38.0633 180.134 38.205 179.964 38.375C179.51 38.8283 179.085 39.2533 178.689 39.65C178.292 40.0467 177.895 40.4717 177.499 40.925L173.334 45.77L171.294 48.065C173.277 47.7817 174.949 47.1017 176.309 46.025C177.669 44.8917 179 43.6167 180.304 42.2C181.04 41.2933 181.919 40.33 182.939 39.31C183.109 39.14 183.505 38.7433 184.129 38.12C184.752 37.44 185.404 36.76 186.084 36.08C186.82 35.3433 187.5 34.6917 188.124 34.125C188.747 33.5583 189.144 33.275 189.314 33.275C189.597 33.275 189.965 33.5017 190.419 33.955C190.929 34.3517 191.269 34.635 191.439 34.805C191.609 35.0317 191.892 35.4283 192.289 35.995C192.742 36.505 192.912 36.9017 192.799 37.185V37.355C192.685 37.5817 192.515 37.78 192.289 37.95C192.119 38.0633 191.949 38.205 191.779 38.375C191.325 38.8283 190.9 39.2533 190.504 39.65C190.107 40.0467 189.682 40.4717 189.229 40.925L185.234 45.77L183.194 48.065C183.874 47.9517 184.667 47.725 185.574 47.385C186.48 46.9883 187.387 46.5917 188.294 46.195C189.2 45.7417 190.05 45.2883 190.844 44.835C191.694 44.325 192.402 43.9 192.969 43.56C193.649 43.1633 194.045 43.0217 194.159 43.135C194.272 43.2483 194.584 43.5317 195.094 43.985C195.094 44.0417 195.037 44.2117 194.924 44.495L194.159 45.005C193.422 45.5717 192.459 46.28 191.269 47.13C190.135 47.9233 188.917 48.6883 187.614 49.425C186.31 50.105 185.007 50.6433 183.704 51.04C182.4 51.4367 181.295 51.465 180.389 51.125C180.162 51.125 179.907 51.0117 179.624 50.785C179.397 50.5583 179.17 50.3033 178.944 50.02C178.717 49.68 178.49 49.34 178.264 49C178.094 48.66 177.952 48.3767 177.839 48.15ZM216.056 48.32C215.489 48.66 214.809 49.0283 214.016 49.425C213.279 49.8217 212.486 50.19 211.636 50.53C210.786 50.87 209.936 51.125 209.086 51.295C208.293 51.4083 207.556 51.3517 206.876 51.125C206.649 51.125 206.394 51.0117 206.111 50.785C205.884 50.5017 205.629 50.19 205.346 49.85C205.119 49.4533 204.893 49.085 204.666 48.745C204.496 48.3483 204.383 48.065 204.326 47.895C203.759 48.235 203.051 48.66 202.201 49.17C201.408 49.6233 200.558 50.0483 199.651 50.445C198.744 50.8417 197.838 51.125 196.931 51.295C196.024 51.465 195.231 51.4083 194.551 51.125C194.154 51.125 193.729 50.8133 193.276 50.19C192.879 49.5667 192.596 49.1133 192.426 48.83C192.256 48.49 192.058 48.065 191.831 47.555C191.548 46.9883 191.434 46.5067 191.491 46.11C191.491 45.8833 191.746 45.43 192.256 44.75C192.823 44.07 193.474 43.3333 194.211 42.54C194.948 41.69 195.684 40.925 196.421 40.245C197.158 39.5083 197.809 38.8567 198.376 38.29C198.999 37.7233 199.396 37.44 199.566 37.44C199.849 37.44 200.218 37.6667 200.671 38.12C201.181 38.5167 201.521 38.8 201.691 38.97C201.861 39.1967 202.173 39.5933 202.626 40.16C203.079 40.67 203.249 41.0667 203.136 41.35C203.136 41.4067 203.108 41.4633 203.051 41.52C202.938 41.7467 202.768 41.945 202.541 42.115C202.371 42.2283 202.201 42.37 202.031 42.54C201.578 42.9933 201.153 43.4183 200.756 43.815C200.359 44.2117 199.963 44.6367 199.566 45.09L197.356 48.065C198.659 47.895 199.764 47.6117 200.671 47.215C201.578 46.8183 202.399 46.3367 203.136 45.77C203.929 45.2033 204.666 44.5517 205.346 43.815C206.026 43.0217 206.791 42.1717 207.641 41.265C207.811 41.0383 208.293 40.5 209.086 39.65C209.936 38.8 210.814 37.9217 211.721 37.015C212.684 36.0517 213.563 35.2017 214.356 34.465C215.206 33.6717 215.716 33.275 215.886 33.275C216.169 33.275 216.538 33.5017 216.991 33.955C217.501 34.3517 217.841 34.635 218.011 34.805C218.181 35.0317 218.493 35.4283 218.946 35.995C219.399 36.505 219.569 36.9017 219.456 37.185C219.456 37.2417 219.428 37.2983 219.371 37.355C219.258 37.5817 219.088 37.78 218.861 37.95C218.691 38.0633 218.521 38.205 218.351 38.375C217.331 39.3383 216.509 40.1883 215.886 40.925L211.636 45.77L209.681 48.065C210.984 47.895 212.033 47.6117 212.826 47.215C213.676 46.8183 214.413 46.365 215.036 45.855C215.716 45.2883 216.339 44.6367 216.906 43.9C217.529 43.1633 218.238 42.37 219.031 41.52C219.201 41.2933 219.711 40.755 220.561 39.905C221.411 38.9983 222.318 38.0633 223.281 37.1C224.244 36.08 225.123 35.2017 225.916 34.465C226.766 33.6717 227.276 33.275 227.446 33.275C227.729 33.275 228.126 33.5017 228.636 33.955C229.146 34.3517 229.486 34.635 229.656 34.805C229.826 35.0317 230.138 35.4283 230.591 35.995C231.044 36.505 231.214 36.9017 231.101 37.185C231.101 37.2417 231.073 37.27 231.016 37.27C231.016 37.27 231.016 37.2983 231.016 37.355C230.903 37.5817 230.733 37.78 230.506 37.95C230.279 38.0633 230.081 38.205 229.911 38.375C229.458 38.8283 229.033 39.2533 228.636 39.65C228.239 40.0467 227.843 40.4717 227.446 40.925L223.281 45.77L221.326 48.065C222.006 47.9517 222.799 47.725 223.706 47.385C224.613 46.9883 225.519 46.5917 226.426 46.195C227.333 45.7417 228.211 45.2883 229.061 44.835C229.911 44.325 230.648 43.9 231.271 43.56C231.894 43.1633 232.234 43.0217 232.291 43.135C232.404 43.2483 232.688 43.5317 233.141 43.985C233.254 44.0983 233.283 44.1833 233.226 44.24C233.169 44.2967 233.113 44.3817 233.056 44.495C232.943 44.6083 232.829 44.6933 232.716 44.75C232.603 44.8067 232.489 44.8917 232.376 45.005C231.639 45.5717 230.676 46.28 229.486 47.13C228.296 47.9233 227.049 48.6883 225.746 49.425C224.443 50.105 223.139 50.6433 221.836 51.04C220.533 51.4367 219.428 51.465 218.521 51.125C218.294 51.125 218.039 51.0117 217.756 50.785C217.529 50.5583 217.303 50.3033 217.076 50.02C216.849 49.68 216.623 49.3683 216.396 49.085C216.226 48.745 216.113 48.49 216.056 48.32ZM242.336 48.15C241.769 48.49 241.089 48.8867 240.296 49.34C239.502 49.7933 238.681 50.19 237.831 50.53C236.981 50.87 236.131 51.125 235.281 51.295C234.431 51.4083 233.666 51.3517 232.986 51.125C232.589 51.125 232.164 50.8133 231.711 50.19C231.257 49.5667 230.974 49.1133 230.861 48.83C230.634 48.49 230.407 48.065 230.181 47.555C229.954 46.9883 229.869 46.5067 229.926 46.11C229.926 45.8833 230.181 45.43 230.691 44.75C231.201 44.07 231.767 43.3617 232.391 42.625C233.071 41.8883 233.694 41.2083 234.261 40.585C234.884 39.9617 235.309 39.5367 235.536 39.31C235.706 39.14 236.102 38.7433 236.726 38.12C237.349 37.44 238.029 36.76 238.766 36.08C239.502 35.3433 240.182 34.6917 240.806 34.125C241.429 33.5583 241.826 33.275 241.996 33.275C242.279 33.275 242.647 33.5017 243.101 33.955C243.611 34.3517 243.951 34.635 244.121 34.805C244.347 35.0317 244.659 35.4283 245.056 35.995C245.509 36.505 245.679 36.9017 245.566 37.185V37.355C245.452 37.5817 245.282 37.78 245.056 37.95C244.829 38.0633 244.631 38.205 244.461 38.375C244.007 38.8283 243.582 39.2533 243.186 39.65C242.789 40.0467 242.392 40.4717 241.996 40.925L237.831 45.77L235.791 48.065C237.774 47.7817 239.446 47.1017 240.806 46.025C242.166 44.8917 243.497 43.6167 244.801 42.2C245.537 41.2933 246.416 40.33 247.436 39.31C247.606 39.14 248.002 38.7433 248.626 38.12C249.249 37.44 249.901 36.76 250.581 36.08C251.317 35.3433 251.997 34.6917 252.621 34.125C253.244 33.5583 253.641 33.275 253.811 33.275C254.094 33.275 254.462 33.5017 254.916 33.955C255.426 34.3517 255.766 34.635 255.936 34.805C256.106 35.0317 256.389 35.4283 256.786 35.995C257.239 36.505 257.409 36.9017 257.296 37.185V37.355C257.182 37.5817 257.012 37.78 256.786 37.95C256.616 38.0633 256.446 38.205 256.276 38.375C255.822 38.8283 255.397 39.2533 255.001 39.65C254.604 40.0467 254.179 40.4717 253.726 40.925L249.731 45.77L247.691 48.065C248.371 47.9517 249.164 47.725 250.071 47.385C250.977 46.9883 251.884 46.5917 252.791 46.195C253.697 45.7417 254.547 45.2883 255.341 44.835C256.191 44.325 256.899 43.9 257.466 43.56C258.146 43.1633 258.542 43.0217 258.656 43.135C258.769 43.2483 259.081 43.5317 259.591 43.985C259.591 44.0417 259.534 44.2117 259.421 44.495L258.656 45.005C257.919 45.5717 256.956 46.28 255.766 47.13C254.632 47.9233 253.414 48.6883 252.111 49.425C250.807 50.105 249.504 50.6433 248.201 51.04C246.897 51.4367 245.792 51.465 244.886 51.125C244.659 51.125 244.404 51.0117 244.121 50.785C243.894 50.5583 243.667 50.3033 243.441 50.02C243.214 49.68 242.987 49.34 242.761 49C242.591 48.66 242.449 48.3767 242.336 48.15ZM269.503 39.735L277.918 34.635C278.315 34.4083 278.825 34.4367 279.448 34.72C280.071 34.9467 280.666 35.315 281.233 35.825C281.856 36.2783 282.338 36.76 282.678 37.27C283.075 37.78 283.245 38.1483 283.188 38.375C283.188 38.4317 283.046 38.63 282.763 38.97C282.48 39.31 282.168 39.7067 281.828 40.16C281.488 40.5567 281.148 40.9533 280.808 41.35C280.525 41.7467 280.326 42.0017 280.213 42.115C279.306 43.0217 278.428 43.9567 277.578 44.92C276.785 45.8267 275.906 46.705 274.943 47.555C275.056 47.9517 275.396 48.15 275.963 48.15C276.53 48.0933 277.21 47.9517 278.003 47.725C278.853 47.4417 279.731 47.1017 280.638 46.705C281.545 46.3083 282.395 45.9117 283.188 45.515C284.038 45.0617 284.775 44.665 285.398 44.325C286.021 43.9283 286.446 43.6733 286.673 43.56C287.296 43.1633 287.665 43.0217 287.778 43.135C287.891 43.2483 288.203 43.5317 288.713 43.985C288.826 44.0983 288.826 44.1833 288.713 44.24C288.656 44.2967 288.628 44.3817 288.628 44.495L287.863 45.005C286.39 46.0817 284.831 47.1867 283.188 48.32C281.601 49.3967 279.93 50.2183 278.173 50.785C277.04 51.125 275.85 51.3517 274.603 51.465C273.413 51.5217 272.223 51.55 271.033 51.55C270.976 51.55 270.778 51.5783 270.438 51.635C270.098 51.6917 269.73 51.72 269.333 51.72C268.936 51.72 268.568 51.72 268.228 51.72C267.945 51.72 267.803 51.6917 267.803 51.635L266.783 48.32C266.783 48.2067 267.01 48.0933 267.463 47.98C267.973 47.81 268.285 47.6967 268.398 47.64C268.851 47.4133 269.248 47.1867 269.588 46.96C269.985 46.7333 270.381 46.45 270.778 46.11C271.345 45.6567 271.883 45.1467 272.393 44.58C272.903 43.9567 273.385 43.3333 273.838 42.71C274.065 42.37 274.32 41.945 274.603 41.435C274.886 40.8683 274.971 40.3583 274.858 39.905L260.493 48.66L260.153 49L249.953 60.305L244.853 66.85C244.74 66.9067 244.683 66.9067 244.683 66.85C244.626 66.7933 244.57 66.765 244.513 66.765C244.23 66.6517 243.946 66.3683 243.663 65.915C243.323 65.4617 243.011 64.98 242.728 64.47C242.388 63.96 242.133 63.45 241.963 62.94C241.736 62.3733 241.623 61.9483 241.623 61.665C241.623 61.4383 242.246 60.5883 243.493 59.115C244.74 57.6417 246.298 55.8567 248.168 53.76C249.981 51.6633 251.993 49.425 254.203 47.045C256.413 44.6083 258.453 42.37 260.323 40.33C262.25 38.29 263.865 36.6183 265.168 35.315C266.471 33.955 267.18 33.275 267.293 33.275C267.463 33.275 267.888 33.445 268.568 33.785C269.305 34.0683 270.041 34.4083 270.778 34.805C271.515 35.2017 272.138 35.5983 272.648 35.995C273.158 36.335 273.328 36.59 273.158 36.76C272.535 37.2133 271.911 37.695 271.288 38.205C270.721 38.6583 270.126 39.1683 269.503 39.735ZM300.078 46.025C300.701 45.9683 301.296 45.855 301.863 45.685C302.43 45.515 302.968 45.2883 303.478 45.005C303.931 44.7217 304.356 44.4667 304.753 44.24C305.206 44.0133 305.631 43.7867 306.028 43.56C306.651 43.1633 307.02 43.0217 307.133 43.135C307.246 43.2483 307.558 43.5317 308.068 43.985C308.181 44.0983 308.125 44.2683 307.898 44.495L307.133 45.005C306.51 45.515 305.83 46.0533 305.093 46.62C304.413 47.13 303.676 47.5833 302.883 47.98C302.146 48.32 301.353 48.5467 300.503 48.66C299.653 48.7733 298.803 48.6317 297.953 48.235C297.443 48.6883 296.82 49.1983 296.083 49.765C295.403 50.3317 294.666 50.785 293.873 51.125C293.136 51.4083 292.371 51.4933 291.578 51.38C290.841 51.2667 290.19 50.785 289.623 49.935L287.583 46.96C287.073 46.2233 286.903 45.4017 287.073 44.495C287.3 43.5317 287.668 42.5967 288.178 41.69C288.688 40.7833 289.283 39.9333 289.963 39.14C290.643 38.3467 291.238 37.7233 291.748 37.27C292.485 36.5333 293.25 35.8533 294.043 35.23C294.836 34.55 295.686 33.9833 296.593 33.53C297.216 33.2467 297.896 32.9917 298.633 32.765C299.37 32.4817 300.05 32.4533 300.673 32.68H300.758L305.008 37.355C305.235 37.6383 305.178 38.205 304.838 39.055C304.498 39.8483 304.016 40.7267 303.393 41.69C302.826 42.5967 302.203 43.475 301.523 44.325C300.9 45.175 300.418 45.7417 300.078 46.025ZM297.613 45.43C297.783 45.26 298.095 44.8917 298.548 44.325C299.001 43.7583 299.455 43.135 299.908 42.455C300.361 41.7183 300.786 40.9817 301.183 40.245C301.636 39.5083 301.92 38.885 302.033 38.375C302.146 37.8083 302.061 37.4117 301.778 37.185C301.495 36.9017 300.928 36.8733 300.078 37.1C299.851 37.44 299.483 38.0067 298.973 38.8C298.52 39.5367 298.095 40.33 297.698 41.18C297.358 41.9733 297.131 42.7667 297.018 43.56C296.905 44.3533 297.103 44.9767 297.613 45.43ZM296.083 46.875C295.403 46.025 295.063 45.09 295.063 44.07C295.063 43.05 295.205 42.0583 295.488 41.095C294.921 41.8883 294.383 42.71 293.873 43.56C293.363 44.3533 292.91 45.175 292.513 46.025C292.4 46.2517 292.258 46.5633 292.088 46.96C291.975 47.3567 292.06 47.6683 292.343 47.895C292.683 48.1783 293.165 48.235 293.788 48.065C294.411 47.8383 294.865 47.64 295.148 47.47C295.318 47.3567 295.488 47.2717 295.658 47.215C295.828 47.1017 295.97 46.9883 296.083 46.875ZM322.57 39.395C322.74 39.1683 322.91 38.885 323.08 38.545C323.306 38.1483 323.306 37.8367 323.08 37.61C322.91 37.3833 322.655 37.27 322.315 37.27C321.975 37.2133 321.606 37.2133 321.21 37.27C320.813 37.3267 320.416 37.44 320.02 37.61C319.623 37.7233 319.34 37.8083 319.17 37.865L317.385 38.97C317.271 39.0833 316.96 39.3667 316.45 39.82C315.996 40.2167 315.486 40.7267 314.92 41.35C314.353 41.9167 313.786 42.54 313.22 43.22C312.71 43.8433 312.313 44.4383 312.03 45.005C311.746 45.5717 311.661 46.025 311.775 46.365C311.945 46.705 312.426 46.875 313.22 46.875H313.56C314.296 46.6483 315.146 46.2233 316.11 45.6C317.073 44.92 317.866 44.325 318.49 43.815C319.226 43.1917 319.963 42.5117 320.7 41.775C321.436 40.9817 322.06 40.1883 322.57 39.395ZM329.54 25.455C327.953 26.7017 326.423 28.005 324.95 29.365C322.626 31.5183 320.388 33.6717 318.235 35.825C318.858 35.4283 319.538 35.06 320.275 34.72C321.068 34.38 321.833 34.1533 322.57 34.04C322.853 33.9833 323.108 33.955 323.335 33.955C324.185 33.615 324.978 33.0483 325.715 32.255C326.621 31.2917 327.415 30.1583 328.095 28.855C328.775 27.5517 329.256 26.4183 329.54 25.455ZM326.565 36.93L327.67 39.395C327.896 40.075 327.925 40.755 327.755 41.435C327.641 42.115 327.386 42.795 326.99 43.475C326.593 44.0983 326.14 44.7217 325.63 45.345C325.12 45.9117 324.638 46.3933 324.185 46.79C325.261 46.3367 326.31 45.855 327.33 45.345C328.35 44.7783 329.341 44.1833 330.305 43.56C330.928 43.1633 331.296 43.0217 331.41 43.135C331.58 43.2483 331.92 43.5317 332.43 43.985C332.43 44.0417 332.373 44.2117 332.26 44.495L331.495 45.005C330.701 45.5717 329.766 46.2233 328.69 46.96C327.67 47.6967 326.565 48.405 325.375 49.085C324.241 49.7083 323.08 50.2467 321.89 50.7C320.756 51.0967 319.736 51.295 318.83 51.295C318.49 51.295 317.98 51.295 317.3 51.295C316.676 51.295 315.996 51.295 315.26 51.295C314.58 51.2383 313.928 51.1817 313.305 51.125C312.738 51.0683 312.341 50.9833 312.115 50.87L308.885 45.94C307.241 47.6967 305.655 49.4533 304.125 51.21C304.068 51.3233 303.955 51.295 303.785 51.125C303.501 51.0117 303.218 50.785 302.935 50.445C302.651 50.105 302.396 49.7367 302.17 49.34C301.886 48.8867 301.688 48.4617 301.575 48.065C301.405 47.6117 301.348 47.2433 301.405 46.96C301.405 46.7333 302.085 45.8833 303.445 44.41C304.805 42.9367 306.505 41.1517 308.545 39.055C310.585 36.9583 312.795 34.72 315.175 32.34C317.611 29.96 319.85 27.7783 321.89 25.795C323.986 23.755 325.743 22.0833 327.16 20.78C328.633 19.42 329.426 18.74 329.54 18.74C329.71 18.74 329.965 18.9667 330.305 19.42C330.701 19.8733 331.07 20.3833 331.41 20.95C331.523 21.1767 331.636 21.4317 331.75 21.715C332.826 22.225 333.79 23.585 334.64 25.795C334.3 27.4383 333.761 29.025 333.025 30.555C332.345 32.085 331.466 33.4167 330.39 34.55C329.37 35.6267 328.123 36.42 326.65 36.93H326.565ZM341.613 48.15C341.046 48.49 340.366 48.8867 339.573 49.34C338.78 49.7933 337.958 50.19 337.108 50.53C336.258 50.87 335.408 51.125 334.558 51.295C333.708 51.4083 332.943 51.3517 332.263 51.125C331.866 51.125 331.441 50.8133 330.988 50.19C330.535 49.5667 330.251 49.1133 330.138 48.83C329.911 48.49 329.685 48.065 329.458 47.555C329.231 46.9883 329.146 46.5067 329.203 46.11C329.203 45.8833 329.458 45.43 329.968 44.75C330.478 44.07 331.045 43.3617 331.668 42.625C332.348 41.8883 332.971 41.2083 333.538 40.585C334.161 39.9617 334.586 39.5367 334.813 39.31C334.983 39.14 335.38 38.7433 336.003 38.12C336.626 37.44 337.306 36.76 338.043 36.08C338.78 35.3433 339.46 34.6917 340.083 34.125C340.706 33.5583 341.103 33.275 341.273 33.275C341.556 33.275 341.925 33.5017 342.378 33.955C342.888 34.3517 343.228 34.635 343.398 34.805C343.625 35.0317 343.936 35.4283 344.333 35.995C344.786 36.505 344.956 36.9017 344.843 37.185V37.355C344.73 37.5817 344.56 37.78 344.333 37.95C344.106 38.0633 343.908 38.205 343.738 38.375C343.285 38.8283 342.86 39.2533 342.463 39.65C342.066 40.0467 341.67 40.4717 341.273 40.925L337.108 45.77L335.068 48.065C337.051 47.7817 338.723 47.1017 340.083 46.025C341.443 44.8917 342.775 43.6167 344.078 42.2C344.815 41.2933 345.693 40.33 346.713 39.31C346.883 39.14 347.28 38.7433 347.903 38.12C348.526 37.44 349.178 36.76 349.858 36.08C350.595 35.3433 351.275 34.6917 351.898 34.125C352.521 33.5583 352.918 33.275 353.088 33.275C353.371 33.275 353.74 33.5017 354.193 33.955C354.703 34.3517 355.043 34.635 355.213 34.805C355.383 35.0317 355.666 35.4283 356.063 35.995C356.516 36.505 356.686 36.9017 356.573 37.185V37.355C356.46 37.5817 356.29 37.78 356.063 37.95C355.893 38.0633 355.723 38.205 355.553 38.375C355.1 38.8283 354.675 39.2533 354.278 39.65C353.881 40.0467 353.456 40.4717 353.003 40.925L349.008 45.77L346.968 48.065C347.648 47.9517 348.441 47.725 349.348 47.385C350.255 46.9883 351.161 46.5917 352.068 46.195C352.975 45.7417 353.825 45.2883 354.618 44.835C355.468 44.325 356.176 43.9 356.743 43.56C357.423 43.1633 357.82 43.0217 357.933 43.135C358.046 43.2483 358.358 43.5317 358.868 43.985C358.868 44.0417 358.811 44.2117 358.698 44.495L357.933 45.005C357.196 45.5717 356.233 46.28 355.043 47.13C353.91 47.9233 352.691 48.6883 351.388 49.425C350.085 50.105 348.781 50.6433 347.478 51.04C346.175 51.4367 345.07 51.465 344.163 51.125C343.936 51.125 343.681 51.0117 343.398 50.785C343.171 50.5583 342.945 50.3033 342.718 50.02C342.491 49.68 342.265 49.34 342.038 49C341.868 48.66 341.726 48.3767 341.613 48.15ZM366.06 48.065C366.74 47.9517 367.534 47.725 368.44 47.385C369.347 46.9883 370.254 46.5917 371.16 46.195C372.124 45.7417 373.03 45.2883 373.88 44.835C374.73 44.325 375.439 43.9 376.005 43.56C376.629 43.1633 376.997 43.0217 377.11 43.135C377.224 43.2483 377.535 43.5317 378.045 43.985C378.159 44.0983 378.187 44.1833 378.13 44.24C378.074 44.2967 378.017 44.3817 377.96 44.495L377.195 45.005C376.459 45.5717 375.495 46.28 374.305 47.13C373.115 47.9233 371.869 48.6883 370.565 49.425C369.262 50.105 367.959 50.6433 366.655 51.04C365.352 51.4367 364.247 51.465 363.34 51.125C363 51.125 362.604 50.8133 362.15 50.19C361.697 49.5667 361.385 49.1133 361.215 48.83C361.045 48.49 360.819 48.065 360.535 47.555C360.309 46.9883 360.224 46.5067 360.28 46.11C360.28 45.77 360.649 45.175 361.385 44.325C362.122 43.4183 362.944 42.455 363.85 41.435C364.814 40.415 365.72 39.48 366.57 38.63C367.477 37.7233 368.1 37.1 368.44 36.76C367.987 36.76 367.562 36.7033 367.165 36.59C366.769 36.42 366.344 36.2783 365.89 36.165C364.927 37.7517 363.822 39.31 362.575 40.84C361.385 42.3133 359.997 43.56 358.41 44.58C358.354 44.6367 358.184 44.665 357.9 44.665C357.617 44.6083 357.334 44.5517 357.05 44.495C356.824 44.3817 356.597 44.2683 356.37 44.155C356.2 43.985 356.172 43.815 356.285 43.645C357.589 42.6817 358.807 41.3783 359.94 39.735C361.13 38.0917 362.037 36.505 362.66 34.975L360.45 32.68C360.337 31.15 360.875 29.8467 362.065 28.77C362.519 28.3167 363 27.9767 363.51 27.75C364.077 27.4667 364.672 27.41 365.295 27.58C365.749 27.8067 366.117 28.1467 366.4 28.6C366.514 28.7133 366.57 28.8267 366.57 28.94C366.627 28.9967 366.712 29.0817 366.825 29.195C367.335 29.7617 368.015 30.385 368.865 31.065C368.979 31.1783 369.177 31.3767 369.46 31.66C369.744 31.9433 369.885 32.1983 369.885 32.425C369.885 32.595 369.744 32.8217 369.46 33.105C369.29 33.1617 369.092 33.3033 368.865 33.53C369.375 33.6433 369.914 33.6717 370.48 33.615C371.047 33.5583 371.585 33.4733 372.095 33.36C372.322 33.19 372.662 33.275 373.115 33.615C373.569 33.955 373.994 34.3517 374.39 34.805C374.844 35.2583 375.212 35.74 375.495 36.25C375.779 36.7033 375.892 37.015 375.835 37.185C375.835 37.2417 375.807 37.2983 375.75 37.355C375.637 37.5817 375.467 37.78 375.24 37.95C375.07 38.0633 374.9 38.205 374.73 38.375C374.277 38.8283 373.852 39.2533 373.455 39.65C373.059 40.0467 372.662 40.4717 372.265 40.925L368.185 45.77L366.06 48.065Z" fill="white"/>
</svg>
