<svg width="40" height="40" viewBox="0 0 40 40" fill="none" xmlns="http://www.w3.org/2000/svg">
<g clip-path="url(#clip0_133_995)">
<path d="M18.942 37.9788C18.1877 37.8748 17.4334 37.7969 16.6877 37.6583C14.7108 37.3032 12.8466 36.6276 11.1125 35.6142C10.8351 35.4496 10.5923 35.4323 10.2888 35.5276C8.13855 36.2032 5.97959 36.8614 3.82063 37.5284C3.78595 37.537 3.75127 37.5457 3.71659 37.5544C3.42179 37.6669 3.13566 37.6583 2.90156 37.4244C2.66745 37.1906 2.66745 36.9134 2.74549 36.6103C3.36977 34.3583 3.99404 32.1063 4.61832 29.8544C4.68769 29.6119 4.67034 29.4213 4.54029 29.1961C3.27439 27.1087 2.46803 24.8481 2.15589 22.4316C1.53162 17.5119 2.67612 13.034 5.69347 9.08438C8.38133 5.58518 11.9102 3.3159 16.2368 2.41511C21.5952 1.30646 26.5114 2.39779 30.8727 5.68912C34.4102 8.35682 36.6386 11.908 37.5836 16.2387C37.7484 17.0009 37.8177 17.7891 37.9305 18.5599C37.9478 18.6812 37.9738 18.8111 37.9912 18.9324V21.0371C37.9651 21.2883 37.9305 21.5395 37.9045 21.7993C37.4709 25.6709 35.9969 29.0835 33.3784 31.9764C30.6039 35.0512 27.1703 36.9654 23.0865 37.6929C22.4102 37.8142 21.7253 37.8835 21.0403 37.9701H18.9334L18.942 37.9788ZM4.38422 35.8914C4.52295 35.8567 4.60098 35.8394 4.67901 35.8134C6.41312 35.2851 8.15589 34.7827 9.87266 34.2024C10.5923 33.9599 11.1472 34.0292 11.8149 34.4103C15.127 36.3158 18.7079 36.9567 22.4796 36.4024C26.0172 35.8827 29.1125 34.3843 31.6097 31.8292C36.2917 27.0481 37.7657 21.3576 35.7975 14.9655C33.6646 8.02769 27.4131 3.50645 20.1472 3.40251C16.0721 3.34188 12.4305 4.63243 9.34376 7.27415C4.96514 11.0332 3.0056 15.8316 3.47381 21.5914C3.66456 23.982 4.37555 26.2339 5.6241 28.278C6.07497 29.0142 6.17034 29.6552 5.91023 30.4693C5.35532 32.2363 4.89578 34.0378 4.38422 35.8914Z" fill="white"/>
<path d="M24.8728 30.9032C21.5693 30.7906 18.656 29.6213 16.0635 27.6292C12.8901 25.178 10.5664 22.0686 9.04905 18.3615C8.0346 15.8844 8.38142 13.4938 9.682 11.2245C10.0722 10.5403 10.5924 9.92532 11.0693 9.28438C11.1733 9.14579 11.3554 8.98989 11.5115 8.97257C12.1965 8.89461 12.8814 8.84265 13.5664 8.83398C13.9306 8.83398 14.234 9.04186 14.4334 9.36233C15.3265 10.8088 16.1589 12.2812 16.7485 13.8749C17.0173 14.5938 16.8525 15.2694 16.4623 15.8844C16.1675 16.3434 15.8207 16.7765 15.4392 17.1749C15.1791 17.4521 15.1531 17.7119 15.3352 17.9804C15.7687 18.656 16.1675 19.3749 16.6965 19.9639C18.2745 21.7221 20.1647 23.0993 22.2196 24.2512C22.8005 24.5717 22.9045 24.5717 23.3554 24.0607C23.971 23.3591 24.5693 22.6402 25.1415 21.904C25.6271 21.2804 26.2167 21.0639 26.9623 21.3497C27.3092 21.4883 27.63 21.6875 27.9508 21.878C29.1647 22.6229 30.3785 23.3851 31.5924 24.13C32.0866 24.4331 32.1647 24.6237 32.0519 25.204C31.8092 26.4599 31.393 27.6378 30.578 28.6512C29.4941 30.0024 28.0201 30.6174 26.3467 30.8079C25.8612 30.8599 25.367 30.8685 24.8728 30.9032ZM25.5317 29.5C26.0433 29.5 26.997 29.4048 27.8988 29.015C29.5028 28.3221 30.2485 26.9882 30.604 25.3686C30.6213 25.2906 30.5433 25.1434 30.4739 25.1001C29.234 24.3205 27.9941 23.5497 26.7543 22.7702C26.4768 22.5969 26.3294 22.6489 26.13 22.9087C25.5317 23.6623 24.9421 24.4158 24.2658 25.1001C23.4074 25.9662 22.8092 26.0701 21.8728 25.6024C19.2109 24.2686 16.8959 22.4843 15.023 20.1631C14.5028 19.5135 14.0953 18.7859 13.8699 17.9717C13.7138 17.4001 13.7398 16.9064 14.2167 16.4647C14.5808 16.1269 14.8843 15.7111 15.1878 15.3127C15.4999 14.9056 15.5953 14.4552 15.3352 13.9702C14.7369 12.8355 14.13 11.7009 13.5577 10.5489C13.393 10.2111 13.1589 10.1592 12.8294 10.1678C12.2918 10.1852 11.8583 10.3237 11.5808 10.8348C11.2167 11.5104 10.7571 12.1426 10.445 12.8442C9.69934 14.5245 9.62998 16.2395 10.367 17.9544C11.893 21.4969 14.1213 24.5111 17.234 26.815C19.5491 28.53 22.1589 29.4741 25.523 29.5174L25.5317 29.5Z" fill="white"/>
</g>
<defs>
<clipPath id="clip0_133_995">
<rect width="36" height="36" fill="white" transform="translate(2 2)"/>
</clipPath>
</defs>
</svg>
